%TF.GenerationSoftware,KiCad,Pcbnew,7.0.1*%
%TF.CreationDate,2023-04-16T19:54:37+01:00*%
%TF.ProjectId,lightweatherV3,6c696768-7477-4656-9174-68657256332e,rev?*%
%TF.SameCoordinates,Original*%
%TF.FileFunction,Soldermask,Bot*%
%TF.FilePolarity,Negative*%
%FSLAX46Y46*%
G04 Gerber Fmt 4.6, Leading zero omitted, Abs format (unit mm)*
G04 Created by KiCad (PCBNEW 7.0.1) date 2023-04-16 19:54:37*
%MOMM*%
%LPD*%
G01*
G04 APERTURE LIST*
%ADD10R,2.000000X2.000000*%
%ADD11O,1.700000X1.700000*%
%ADD12O,2.000000X2.000000*%
%ADD13R,1.980000X3.960000*%
%ADD14O,1.980000X3.960000*%
%ADD15C,2.500000*%
%ADD16C,2.000000*%
%ADD17C,3.200000*%
%ADD18O,1.200000X2.100000*%
%ADD19R,2.500000X2.500000*%
%ADD20C,1.600000*%
%ADD21C,3.000000*%
%ADD22R,1.700000X1.700000*%
G04 APERTURE END LIST*
D10*
X138176000Y-115138200D03*
D11*
X135636000Y-115138200D03*
X133096000Y-115138200D03*
X130556000Y-115138200D03*
D12*
X128016000Y-115138200D03*
D13*
X144790000Y-117370000D03*
D14*
X149790000Y-117370000D03*
D13*
X116270000Y-117360000D03*
D14*
X121270000Y-117360000D03*
D13*
X158850000Y-117370000D03*
D14*
X163850000Y-117370000D03*
D10*
X153035000Y-59690000D03*
X150495000Y-59690000D03*
X158115000Y-59690000D03*
X165735000Y-59690000D03*
X163195000Y-59690000D03*
X160655000Y-59690000D03*
X155575000Y-59690000D03*
X153035000Y-62230000D03*
X150495000Y-62230000D03*
X158115000Y-62230000D03*
X165735000Y-62230000D03*
X163195000Y-62230000D03*
X160655000Y-62230000D03*
X155575000Y-62230000D03*
X153035000Y-64770000D03*
X150495000Y-64770000D03*
X158115000Y-64770000D03*
X165735000Y-64770000D03*
X163195000Y-64770000D03*
X160655000Y-64770000D03*
X155575000Y-64770000D03*
X153035000Y-67310000D03*
X168275000Y-67310000D03*
X158115000Y-67310000D03*
X173355000Y-67310000D03*
X150495000Y-67310000D03*
X170815000Y-67310000D03*
X165735000Y-67310000D03*
X160655000Y-67310000D03*
X155575000Y-67310000D03*
X163195000Y-67310000D03*
X153035000Y-69850000D03*
X168275000Y-69850000D03*
X158115000Y-69850000D03*
X173355000Y-69850000D03*
X150495000Y-69850000D03*
X170815000Y-69850000D03*
X165735000Y-69850000D03*
X160655000Y-69850000D03*
X155575000Y-69850000D03*
X163195000Y-69850000D03*
X173355000Y-72390000D03*
X168275000Y-72390000D03*
X170815000Y-72390000D03*
X153035000Y-72390000D03*
X158115000Y-72390000D03*
X160655000Y-72390000D03*
X165735000Y-72390000D03*
X163195000Y-72390000D03*
X155575000Y-72390000D03*
X150495000Y-72390000D03*
D15*
X86650000Y-100405000D03*
X86650000Y-93905000D03*
D16*
X91150000Y-100405000D03*
X91150000Y-93905000D03*
D10*
X153035000Y-77470000D03*
X168275000Y-80010000D03*
X165735000Y-92710000D03*
X160655000Y-77470000D03*
X168275000Y-92710000D03*
X155575000Y-87630000D03*
X163195000Y-82550000D03*
X168275000Y-85090000D03*
D17*
X170815000Y-119380000D03*
D10*
X155575000Y-77470000D03*
X160655000Y-97790000D03*
X160655000Y-85090000D03*
X158115000Y-95250000D03*
X173355000Y-90170000D03*
X170815000Y-87630000D03*
X170815000Y-82550000D03*
X158115000Y-77470000D03*
X155575000Y-82550000D03*
X155575000Y-74930000D03*
X165735000Y-95250000D03*
X170815000Y-92710000D03*
X155575000Y-90170000D03*
X163195000Y-92710000D03*
X173355000Y-95250000D03*
X160655000Y-80010000D03*
X168275000Y-90170000D03*
X170815000Y-77470000D03*
X173355000Y-92710000D03*
X158115000Y-85090000D03*
X153035000Y-74930000D03*
D17*
X89535000Y-119380000D03*
D10*
X173355000Y-87630000D03*
X163195000Y-95250000D03*
X165735000Y-77470000D03*
X155575000Y-97790000D03*
X165735000Y-85090000D03*
X165735000Y-97790000D03*
X173355000Y-82550000D03*
X163195000Y-87630000D03*
X150495000Y-97790000D03*
X150495000Y-95250000D03*
X150495000Y-92710000D03*
X150495000Y-90170000D03*
X150495000Y-87630000D03*
X150495000Y-85090000D03*
X150495000Y-82550000D03*
X150495000Y-80010000D03*
X150495000Y-77470000D03*
X150495000Y-74930000D03*
X168275000Y-87630000D03*
X173355000Y-80010000D03*
X173355000Y-97790000D03*
X160655000Y-92710000D03*
X153035000Y-85090000D03*
X170815000Y-80010000D03*
X165735000Y-87630000D03*
X160655000Y-74930000D03*
X155575000Y-95250000D03*
D18*
X136180000Y-120870000D03*
X130520000Y-120870000D03*
D10*
X160655000Y-87630000D03*
X155575000Y-80010000D03*
X153035000Y-95250000D03*
X168275000Y-74930000D03*
X163195000Y-85090000D03*
X165735000Y-80010000D03*
X153035000Y-87630000D03*
D17*
X170815000Y-62230000D03*
D10*
X170815000Y-74930000D03*
X158115000Y-90170000D03*
X165735000Y-82550000D03*
X163195000Y-80010000D03*
D12*
X118125000Y-90170000D03*
X120665000Y-90170000D03*
X123205000Y-90170000D03*
D10*
X155575000Y-85090000D03*
X173355000Y-74930000D03*
X153035000Y-82550000D03*
X153035000Y-92710000D03*
X160655000Y-82550000D03*
X163195000Y-90170000D03*
X168275000Y-77470000D03*
D15*
X86650000Y-90245000D03*
X86650000Y-83745000D03*
D16*
X91150000Y-90245000D03*
X91150000Y-83745000D03*
D10*
X158115000Y-82550000D03*
X165735000Y-74930000D03*
X153035000Y-80010000D03*
X168275000Y-97790000D03*
X163195000Y-97790000D03*
X158115000Y-80010000D03*
X163195000Y-74930000D03*
X173355000Y-77470000D03*
X158115000Y-87630000D03*
D19*
X99822000Y-110490000D03*
D20*
X102322000Y-110490000D03*
X104322000Y-110490000D03*
D19*
X106822000Y-110490000D03*
D21*
X96752000Y-113200000D03*
X109892000Y-113200000D03*
D10*
X158115000Y-97790000D03*
X168275000Y-82550000D03*
X158115000Y-92710000D03*
X173355000Y-85090000D03*
D17*
X89535000Y-62230000D03*
D10*
X170815000Y-90170000D03*
X160655000Y-95250000D03*
X170815000Y-95250000D03*
X153035000Y-90170000D03*
X170815000Y-97790000D03*
X170815000Y-85090000D03*
X165735000Y-90170000D03*
X163195000Y-77470000D03*
X168275000Y-95250000D03*
X155575000Y-92710000D03*
X160655000Y-90170000D03*
X158115000Y-74930000D03*
X153035000Y-97790000D03*
D22*
X86360000Y-80010000D03*
D16*
X86360000Y-77470000D03*
X86360000Y-74930000D03*
X86360000Y-72390000D03*
X86360000Y-69850000D03*
X86360000Y-67310000D03*
M02*
