%TF.GenerationSoftware,KiCad,Pcbnew,7.0.1*%
%TF.CreationDate,2023-04-16T19:54:37+01:00*%
%TF.ProjectId,lightweatherV3,6c696768-7477-4656-9174-68657256332e,rev?*%
%TF.SameCoordinates,Original*%
%TF.FileFunction,Copper,L2,Bot*%
%TF.FilePolarity,Positive*%
%FSLAX46Y46*%
G04 Gerber Fmt 4.6, Leading zero omitted, Abs format (unit mm)*
G04 Created by KiCad (PCBNEW 7.0.1) date 2023-04-16 19:54:37*
%MOMM*%
%LPD*%
G01*
G04 APERTURE LIST*
%TA.AperFunction,ComponentPad*%
%ADD10R,2.000000X2.000000*%
%TD*%
%TA.AperFunction,ComponentPad*%
%ADD11O,1.700000X1.700000*%
%TD*%
%TA.AperFunction,ComponentPad*%
%ADD12O,2.000000X2.000000*%
%TD*%
%TA.AperFunction,ComponentPad*%
%ADD13R,1.980000X3.960000*%
%TD*%
%TA.AperFunction,ComponentPad*%
%ADD14O,1.980000X3.960000*%
%TD*%
%TA.AperFunction,ComponentPad*%
%ADD15C,2.500000*%
%TD*%
%TA.AperFunction,ComponentPad*%
%ADD16C,2.000000*%
%TD*%
%TA.AperFunction,ComponentPad*%
%ADD17C,0.400000*%
%TD*%
%TA.AperFunction,ComponentPad*%
%ADD18O,1.200000X2.100000*%
%TD*%
%TA.AperFunction,ComponentPad*%
%ADD19R,2.500000X2.500000*%
%TD*%
%TA.AperFunction,ComponentPad*%
%ADD20C,1.600000*%
%TD*%
%TA.AperFunction,ComponentPad*%
%ADD21C,3.000000*%
%TD*%
%TA.AperFunction,ComponentPad*%
%ADD22R,1.700000X1.700000*%
%TD*%
%TA.AperFunction,ViaPad*%
%ADD23C,0.650000*%
%TD*%
%TA.AperFunction,Conductor*%
%ADD24C,0.250000*%
%TD*%
%TA.AperFunction,Conductor*%
%ADD25C,1.000000*%
%TD*%
G04 APERTURE END LIST*
D10*
X138176000Y-115138200D03*
D11*
X135636000Y-115138200D03*
X133096000Y-115138200D03*
X130556000Y-115138200D03*
D12*
X128016000Y-115138200D03*
D13*
X144790000Y-117370000D03*
D14*
X149790000Y-117370000D03*
D13*
X116270000Y-117360000D03*
D14*
X121270000Y-117360000D03*
D13*
X158850000Y-117370000D03*
D14*
X163850000Y-117370000D03*
D10*
X153035000Y-59690000D03*
X150495000Y-59690000D03*
X158115000Y-59690000D03*
X165735000Y-59690000D03*
X163195000Y-59690000D03*
X160655000Y-59690000D03*
X155575000Y-59690000D03*
X153035000Y-62230000D03*
X150495000Y-62230000D03*
X158115000Y-62230000D03*
X165735000Y-62230000D03*
X163195000Y-62230000D03*
X160655000Y-62230000D03*
X155575000Y-62230000D03*
X153035000Y-64770000D03*
X150495000Y-64770000D03*
X158115000Y-64770000D03*
X165735000Y-64770000D03*
X163195000Y-64770000D03*
X160655000Y-64770000D03*
X155575000Y-64770000D03*
X153035000Y-67310000D03*
X168275000Y-67310000D03*
X158115000Y-67310000D03*
X173355000Y-67310000D03*
X150495000Y-67310000D03*
X170815000Y-67310000D03*
X165735000Y-67310000D03*
X160655000Y-67310000D03*
X155575000Y-67310000D03*
X163195000Y-67310000D03*
X153035000Y-69850000D03*
X168275000Y-69850000D03*
X158115000Y-69850000D03*
X173355000Y-69850000D03*
X150495000Y-69850000D03*
X170815000Y-69850000D03*
X165735000Y-69850000D03*
X160655000Y-69850000D03*
X155575000Y-69850000D03*
X163195000Y-69850000D03*
X173355000Y-72390000D03*
X168275000Y-72390000D03*
X170815000Y-72390000D03*
X153035000Y-72390000D03*
X158115000Y-72390000D03*
X160655000Y-72390000D03*
X165735000Y-72390000D03*
X163195000Y-72390000D03*
X155575000Y-72390000D03*
X150495000Y-72390000D03*
D15*
X86650000Y-100405000D03*
X86650000Y-93905000D03*
D16*
X91150000Y-100405000D03*
X91150000Y-93905000D03*
D10*
X153035000Y-77470000D03*
X168275000Y-80010000D03*
X165735000Y-92710000D03*
X160655000Y-77470000D03*
X168275000Y-92710000D03*
X155575000Y-87630000D03*
X163195000Y-82550000D03*
X168275000Y-85090000D03*
X155575000Y-77470000D03*
X160655000Y-97790000D03*
X160655000Y-85090000D03*
X158115000Y-95250000D03*
X173355000Y-90170000D03*
X170815000Y-87630000D03*
X170815000Y-82550000D03*
X158115000Y-77470000D03*
X155575000Y-82550000D03*
X155575000Y-74930000D03*
X165735000Y-95250000D03*
X170815000Y-92710000D03*
D17*
X113478500Y-74250000D03*
X112378500Y-74250000D03*
X114028500Y-73700000D03*
X112928500Y-73700000D03*
X111828500Y-73700000D03*
X113478500Y-73150000D03*
X112378500Y-73150000D03*
X114028500Y-72600000D03*
X112928500Y-72600000D03*
X111828500Y-72600000D03*
X113478500Y-72050000D03*
X112378500Y-72050000D03*
D10*
X155575000Y-90170000D03*
X163195000Y-92710000D03*
X173355000Y-95250000D03*
X160655000Y-80010000D03*
X168275000Y-90170000D03*
X170815000Y-77470000D03*
X173355000Y-92710000D03*
X158115000Y-85090000D03*
X153035000Y-74930000D03*
X173355000Y-87630000D03*
X163195000Y-95250000D03*
X165735000Y-77470000D03*
X155575000Y-97790000D03*
X165735000Y-85090000D03*
X165735000Y-97790000D03*
X173355000Y-82550000D03*
X163195000Y-87630000D03*
X150495000Y-97790000D03*
X150495000Y-95250000D03*
X150495000Y-92710000D03*
X150495000Y-90170000D03*
X150495000Y-87630000D03*
X150495000Y-85090000D03*
X150495000Y-82550000D03*
X150495000Y-80010000D03*
X150495000Y-77470000D03*
X150495000Y-74930000D03*
X168275000Y-87630000D03*
X173355000Y-80010000D03*
X173355000Y-97790000D03*
X160655000Y-92710000D03*
X153035000Y-85090000D03*
X170815000Y-80010000D03*
X165735000Y-87630000D03*
X160655000Y-74930000D03*
X155575000Y-95250000D03*
D18*
X136180000Y-120870000D03*
X130520000Y-120870000D03*
D10*
X160655000Y-87630000D03*
X155575000Y-80010000D03*
X153035000Y-95250000D03*
X168275000Y-74930000D03*
X163195000Y-85090000D03*
X165735000Y-80010000D03*
X153035000Y-87630000D03*
X170815000Y-74930000D03*
X158115000Y-90170000D03*
X165735000Y-82550000D03*
X163195000Y-80010000D03*
D12*
X118125000Y-90170000D03*
X120665000Y-90170000D03*
X123205000Y-90170000D03*
D10*
X155575000Y-85090000D03*
X173355000Y-74930000D03*
X153035000Y-82550000D03*
X153035000Y-92710000D03*
X160655000Y-82550000D03*
X163195000Y-90170000D03*
X168275000Y-77470000D03*
D15*
X86650000Y-90245000D03*
X86650000Y-83745000D03*
D16*
X91150000Y-90245000D03*
X91150000Y-83745000D03*
D10*
X158115000Y-82550000D03*
X165735000Y-74930000D03*
X153035000Y-80010000D03*
X168275000Y-97790000D03*
X163195000Y-97790000D03*
X158115000Y-80010000D03*
X163195000Y-74930000D03*
X173355000Y-77470000D03*
X158115000Y-87630000D03*
D19*
X99822000Y-110490000D03*
D20*
X102322000Y-110490000D03*
X104322000Y-110490000D03*
D19*
X106822000Y-110490000D03*
D21*
X96752000Y-113200000D03*
X109892000Y-113200000D03*
D10*
X158115000Y-97790000D03*
X168275000Y-82550000D03*
X158115000Y-92710000D03*
X173355000Y-85090000D03*
X170815000Y-90170000D03*
X160655000Y-95250000D03*
X170815000Y-95250000D03*
X153035000Y-90170000D03*
X170815000Y-97790000D03*
X170815000Y-85090000D03*
X165735000Y-90170000D03*
X163195000Y-77470000D03*
X168275000Y-95250000D03*
X155575000Y-92710000D03*
X160655000Y-90170000D03*
X158115000Y-74930000D03*
X153035000Y-97790000D03*
D22*
X86360000Y-80010000D03*
D16*
X86360000Y-77470000D03*
X86360000Y-74930000D03*
X86360000Y-72390000D03*
X86360000Y-69850000D03*
X86360000Y-67310000D03*
D23*
X126365000Y-90170000D03*
X108458000Y-82042000D03*
X118111674Y-80675358D03*
X118761016Y-80026016D03*
X117524285Y-78789285D03*
X116923597Y-79389975D03*
X129540000Y-87630000D03*
X135128000Y-70866000D03*
X136652000Y-116586000D03*
X133096000Y-113687497D03*
X135128000Y-97028000D03*
X108458000Y-76835000D03*
X114808000Y-78409800D03*
X115443000Y-80899000D03*
X147955000Y-81280000D03*
X147320000Y-78105000D03*
X147167478Y-86360000D03*
X163195000Y-105410000D03*
X154686000Y-100076000D03*
X130366999Y-68136999D03*
X130810000Y-98425000D03*
X126365000Y-98425000D03*
X132080000Y-69850000D03*
X133350000Y-98425000D03*
X123825000Y-98425000D03*
X91150000Y-86189500D03*
X91607299Y-73492701D03*
X97790000Y-71120000D03*
X95250000Y-71120000D03*
X114935000Y-99695000D03*
X127635000Y-102235000D03*
X130175000Y-103505000D03*
X103124000Y-97028000D03*
X127000000Y-92075000D03*
X93345000Y-82550000D03*
X143510000Y-93980000D03*
X131591514Y-83299608D03*
X149860000Y-105410000D03*
X160020000Y-107950000D03*
X137160000Y-68106919D03*
X103124000Y-100076000D03*
X102108000Y-99060000D03*
X125984000Y-68580000D03*
X123190000Y-106045000D03*
X140335000Y-90805000D03*
X146685000Y-110490000D03*
X128905000Y-99695000D03*
X98552000Y-99060000D03*
X93980000Y-73279000D03*
X145415000Y-109220000D03*
X107950000Y-89535000D03*
X133032500Y-108585000D03*
X114300000Y-68580000D03*
X142875000Y-86360000D03*
X145415000Y-110490000D03*
X114935000Y-103505000D03*
X160020000Y-110490000D03*
X93345000Y-88265000D03*
X99568000Y-99060000D03*
X127635000Y-99695000D03*
X98552000Y-100076000D03*
X129540000Y-81915000D03*
X161290000Y-110490000D03*
X127635000Y-100965000D03*
X144145000Y-98425000D03*
X142875000Y-67564000D03*
X113665000Y-99695000D03*
X113665000Y-100965000D03*
X88900000Y-81280000D03*
X103733600Y-104140000D03*
X116205000Y-103505000D03*
X97155000Y-93980000D03*
X116205000Y-99695000D03*
X135890000Y-66675000D03*
X162560000Y-110490000D03*
X145415000Y-107950000D03*
X117475000Y-103505000D03*
X103124000Y-99060000D03*
X147955000Y-110490000D03*
X118872000Y-84074000D03*
X103124000Y-98044000D03*
X93345000Y-77639267D03*
X99568000Y-70104000D03*
X103124000Y-80264000D03*
X113665000Y-103505000D03*
X130175000Y-99695000D03*
X137160000Y-72390000D03*
X96901000Y-68326000D03*
X107315000Y-67945000D03*
X98552000Y-97028000D03*
X138747500Y-60007500D03*
X113665000Y-102235000D03*
X131445000Y-103505000D03*
X98552000Y-98044000D03*
X144145000Y-80024500D03*
X100330000Y-88265000D03*
X127635000Y-103505000D03*
X140970000Y-71755000D03*
X128905000Y-103505000D03*
X111125000Y-81915000D03*
X144780000Y-120142000D03*
X105410000Y-103835200D03*
X122009431Y-95339431D03*
X111125000Y-86360000D03*
X133350000Y-120015000D03*
X160020000Y-109220000D03*
X101092000Y-99060000D03*
X100330000Y-72390000D03*
X147955000Y-88900000D03*
X135255000Y-116840000D03*
X140970000Y-87630000D03*
X126365000Y-97400500D03*
X122936000Y-80518000D03*
X160020000Y-106680000D03*
X91440000Y-71120000D03*
X145415000Y-106680000D03*
X136525000Y-74930000D03*
X104760500Y-72102655D03*
X113044500Y-76620498D03*
X106509500Y-72796400D03*
X123190000Y-75184000D03*
X118280500Y-75500019D03*
X111745500Y-76620497D03*
X124245500Y-75985497D03*
X128289500Y-75985497D03*
X124245500Y-76835000D03*
X104700000Y-72950000D03*
X122682000Y-76708000D03*
X113044500Y-77470000D03*
X128289500Y-76835000D03*
X118070560Y-76323171D03*
X106509500Y-73645903D03*
X111745500Y-77470000D03*
X130581400Y-84277200D03*
X130692714Y-85720814D03*
X123190000Y-85230672D03*
X114715734Y-86579266D03*
X128269500Y-85430172D03*
X115634266Y-85660734D03*
X133985000Y-68580000D03*
X122583218Y-85880172D03*
X116348032Y-86374500D03*
X144780000Y-87630000D03*
X127590134Y-86176265D03*
X148844000Y-87630000D03*
X115316423Y-87179955D03*
X132715000Y-67310000D03*
X131127500Y-65722500D03*
X95222500Y-78132500D03*
X97790000Y-78105000D03*
X128289500Y-78135515D03*
X124245500Y-77684503D03*
X97790000Y-85939503D03*
X109011912Y-79202088D03*
X94615418Y-85925002D03*
X114300000Y-81661000D03*
X106684808Y-80920998D03*
X112395000Y-81661000D03*
X111731481Y-78319387D03*
X108331000Y-78359000D03*
X106043980Y-80363330D03*
X113044500Y-78319503D03*
X97790000Y-85090000D03*
X94615000Y-85075500D03*
X139700000Y-99449500D03*
X152679931Y-99796069D03*
X151231069Y-101244931D03*
X127537092Y-87475765D03*
X139700000Y-97400500D03*
X138599000Y-96299500D03*
X136525000Y-93980000D03*
X123524978Y-86979672D03*
X138850497Y-99449500D03*
X117744783Y-71341423D03*
X138781468Y-97400500D03*
X124245500Y-87429672D03*
X137749497Y-96299500D03*
X118957334Y-72602333D03*
X135686800Y-94250500D03*
X127505933Y-88394067D03*
X106235718Y-79535750D03*
X107654723Y-77844899D03*
X102870000Y-95250000D03*
X102870000Y-90170000D03*
X142557500Y-88582500D03*
X144462500Y-90487500D03*
X128919500Y-84836000D03*
X133350000Y-80010000D03*
X116983032Y-87009500D03*
X122681936Y-86875107D03*
X115951422Y-87863766D03*
X131826000Y-81534000D03*
D24*
X129390503Y-113763697D02*
X128016000Y-115138200D01*
X129390503Y-113687497D02*
X129390503Y-113763697D01*
X133096000Y-113687497D02*
X129390503Y-113687497D01*
X123190000Y-85230672D02*
X123389500Y-85430172D01*
X123389500Y-85430172D02*
X128269500Y-85430172D01*
X127294041Y-85880172D02*
X127590134Y-86176265D01*
X122583218Y-85880172D02*
X127294041Y-85880172D01*
X128919500Y-85766138D02*
X128919500Y-84836000D01*
X127859373Y-86826265D02*
X128919500Y-85766138D01*
X127321602Y-86826265D02*
X127859373Y-86826265D01*
X122681936Y-86875107D02*
X122681936Y-86700693D01*
X122681936Y-86700693D02*
X123052457Y-86330172D01*
X123052457Y-86330172D02*
X126825509Y-86330172D01*
X126825509Y-86330172D02*
X127321602Y-86826265D01*
D25*
X126365000Y-90170000D02*
X123205000Y-90170000D01*
D24*
X131127500Y-65722500D02*
X132715000Y-67310000D01*
X128219764Y-75985497D02*
X128289500Y-75985497D01*
X127820261Y-76385000D02*
X128219764Y-75985497D01*
X124315236Y-75985497D02*
X124714739Y-76385000D01*
X124245500Y-75985497D02*
X124315236Y-75985497D01*
X124714739Y-76385000D02*
X127820261Y-76385000D01*
X124315236Y-77684503D02*
X124245500Y-77684503D01*
X124714739Y-77285000D02*
X124315236Y-77684503D01*
X128289500Y-77939507D02*
X127634993Y-77285000D01*
X127634993Y-77285000D02*
X124714739Y-77285000D01*
X128289500Y-78135515D02*
X128289500Y-77939507D01*
X124245500Y-76835000D02*
X128289500Y-76835000D01*
X133985000Y-68580000D02*
X132715000Y-67310000D01*
D25*
X130366999Y-68136999D02*
X132080000Y-69850000D01*
D24*
X124421239Y-87429672D02*
X124245500Y-87429672D01*
X124602000Y-87248911D02*
X124421239Y-87429672D01*
X124602000Y-87230172D02*
X124602000Y-87248911D01*
X126342038Y-87230172D02*
X124602000Y-87230172D01*
X127505933Y-88394067D02*
X126342038Y-87230172D01*
X152679931Y-99796069D02*
X151231069Y-101244931D01*
X106326670Y-80363330D02*
X108331000Y-78359000D01*
X106043980Y-80363330D02*
X106326670Y-80363330D01*
X108124308Y-79202088D02*
X109011912Y-79202088D01*
X106684808Y-80641588D02*
X108124308Y-79202088D01*
X106684808Y-80920998D02*
X106684808Y-80641588D01*
X118376587Y-76323171D02*
X118070560Y-76323171D01*
X119007758Y-75692000D02*
X118376587Y-76323171D01*
X122428000Y-75692000D02*
X119007758Y-75692000D01*
X122682000Y-75946000D02*
X122428000Y-75692000D01*
X122682000Y-76708000D02*
X122682000Y-75946000D01*
X118596519Y-75184000D02*
X118280500Y-75500019D01*
X123190000Y-75184000D02*
X118596519Y-75184000D01*
X118957334Y-72553974D02*
X118957334Y-72602333D01*
X117744783Y-71341423D02*
X118957334Y-72553974D01*
X118111674Y-80675358D02*
X116923597Y-79487281D01*
X116923597Y-79487281D02*
X116923597Y-79389975D01*
X118761016Y-80026016D02*
X117524285Y-78789285D01*
X126639113Y-86780172D02*
X127334706Y-87475765D01*
X123724478Y-86780172D02*
X126639113Y-86780172D01*
X127334706Y-87475765D02*
X127537092Y-87475765D01*
X123524978Y-86979672D02*
X123724478Y-86780172D01*
X130581400Y-85609500D02*
X130581400Y-84277200D01*
X130692714Y-85720814D02*
X130581400Y-85609500D01*
X136525000Y-94452304D02*
X136525000Y-93980000D01*
X137722196Y-95649500D02*
X136525000Y-94452304D01*
X138018736Y-95649500D02*
X137722196Y-95649500D01*
X138599000Y-96299500D02*
X138599000Y-96229764D01*
X138599000Y-96229764D02*
X138018736Y-95649500D01*
X137735800Y-96299500D02*
X137749497Y-96299500D01*
X135686800Y-94250500D02*
X137735800Y-96299500D01*
X116047434Y-87863766D02*
X115951422Y-87863766D01*
X116983032Y-87009500D02*
X116901700Y-87009500D01*
X116901700Y-87009500D02*
X116047434Y-87863766D01*
X115542577Y-87179955D02*
X115316423Y-87179955D01*
X116348032Y-86374500D02*
X115542577Y-87179955D01*
X115634266Y-85660734D02*
X114715734Y-86579266D01*
X111731597Y-78319503D02*
X113044500Y-78319503D01*
X111731481Y-78319387D02*
X111731597Y-78319503D01*
X106030903Y-73645903D02*
X105335000Y-72950000D01*
X105335000Y-72950000D02*
X104700000Y-72950000D01*
X106509500Y-73645903D02*
X106030903Y-73645903D01*
X105124051Y-72102655D02*
X104760500Y-72102655D01*
X106509500Y-72796400D02*
X105817796Y-72796400D01*
X105817796Y-72796400D02*
X105124051Y-72102655D01*
X106235718Y-79263904D02*
X106235718Y-79535750D01*
X107654723Y-77844899D02*
X106235718Y-79263904D01*
X148844000Y-87630000D02*
X144780000Y-87630000D01*
X114300000Y-81661000D02*
X112395000Y-81661000D01*
X147320000Y-78105000D02*
X150495000Y-74930000D01*
X149225000Y-86360000D02*
X150495000Y-87630000D01*
X147167478Y-86360000D02*
X149225000Y-86360000D01*
D25*
X133350000Y-98425000D02*
X130810000Y-98425000D01*
D24*
X94629500Y-85090000D02*
X94615000Y-85075500D01*
X97790000Y-85090000D02*
X94629500Y-85090000D01*
X94815420Y-85725000D02*
X94615418Y-85925002D01*
X97575497Y-85725000D02*
X94815420Y-85725000D01*
X97790000Y-85939503D02*
X97575497Y-85725000D01*
X138781468Y-99380471D02*
X138850497Y-99449500D01*
X138781468Y-97400500D02*
X138781468Y-99380471D01*
X113044499Y-76620497D02*
X111745500Y-76620497D01*
X113044500Y-76620498D02*
X113044499Y-76620497D01*
D25*
X126365000Y-98425000D02*
X123825000Y-98425000D01*
D24*
X91150000Y-86189500D02*
X91150000Y-83745000D01*
X91607299Y-73492701D02*
X90170000Y-74930000D01*
X90170000Y-74930000D02*
X86360000Y-74930000D01*
X95250000Y-71120000D02*
X97790000Y-71120000D01*
X111745500Y-77470000D02*
X113044500Y-77470000D01*
X95250000Y-78105000D02*
X97790000Y-78105000D01*
X95222500Y-78132500D02*
X95250000Y-78105000D01*
X139700000Y-99449500D02*
X139700000Y-97400500D01*
X102870000Y-90170000D02*
X102870000Y-95250000D01*
D25*
X144462500Y-90487500D02*
X142557500Y-88582500D01*
D24*
X131826000Y-81534000D02*
X133350000Y-80010000D01*
%TA.AperFunction,Conductor*%
G36*
X92587809Y-59058611D02*
G01*
X92589587Y-59059046D01*
X92640566Y-59071520D01*
X92672176Y-59083971D01*
X92766121Y-59136582D01*
X92772211Y-59140223D01*
X92894583Y-59218184D01*
X92899133Y-59221225D01*
X93224372Y-59448959D01*
X93255048Y-59470438D01*
X93263763Y-59477124D01*
X93590128Y-59750977D01*
X93605918Y-59766818D01*
X93872150Y-60086174D01*
X93882068Y-60099838D01*
X96191934Y-63777394D01*
X96196623Y-63793591D01*
X96201838Y-63798823D01*
X96208664Y-63807331D01*
X96219146Y-63816160D01*
X96387894Y-63984908D01*
X96763016Y-64313882D01*
X97158851Y-64617616D01*
X97158857Y-64617620D01*
X97573704Y-64894813D01*
X98005796Y-65144281D01*
X98150922Y-65215848D01*
X98453281Y-65364956D01*
X98914241Y-65555891D01*
X99386701Y-65716270D01*
X99868638Y-65845405D01*
X100357990Y-65942743D01*
X100852660Y-66007868D01*
X101272967Y-66035416D01*
X101350528Y-66040500D01*
X101350531Y-66040500D01*
X101599901Y-66040500D01*
X101600000Y-66040500D01*
X101600500Y-66040500D01*
X102234901Y-66040500D01*
X102235099Y-66040500D01*
X121919500Y-66040500D01*
X121920099Y-66040500D01*
X122169469Y-66040500D01*
X122169472Y-66040500D01*
X122243203Y-66035667D01*
X122667340Y-66007868D01*
X123162010Y-65942743D01*
X123651362Y-65845405D01*
X124110052Y-65722499D01*
X130289409Y-65722499D01*
X130307723Y-65896750D01*
X130361866Y-66063384D01*
X130449467Y-66215114D01*
X130449468Y-66215116D01*
X130449470Y-66215118D01*
X130566708Y-66345323D01*
X130708454Y-66448308D01*
X130868516Y-66519572D01*
X131035396Y-66555043D01*
X131069317Y-66567558D01*
X131098290Y-66589194D01*
X131852148Y-67343052D01*
X131876779Y-67377902D01*
X131888363Y-67418976D01*
X131895223Y-67484250D01*
X131949366Y-67650884D01*
X132036967Y-67802614D01*
X132036968Y-67802616D01*
X132036970Y-67802618D01*
X132154208Y-67932823D01*
X132295954Y-68035808D01*
X132456016Y-68107072D01*
X132622896Y-68142543D01*
X132656817Y-68155058D01*
X132685790Y-68176694D01*
X133122147Y-68613051D01*
X133146777Y-68647901D01*
X133158362Y-68688974D01*
X133165223Y-68754251D01*
X133219366Y-68920884D01*
X133306967Y-69072614D01*
X133306968Y-69072616D01*
X133306970Y-69072618D01*
X133424208Y-69202823D01*
X133565954Y-69305808D01*
X133726016Y-69377072D01*
X133897396Y-69413500D01*
X134072602Y-69413500D01*
X134072604Y-69413500D01*
X134243984Y-69377072D01*
X134404046Y-69305808D01*
X134545792Y-69202823D01*
X134663030Y-69072618D01*
X134750634Y-68920882D01*
X134804777Y-68754249D01*
X134823091Y-68580000D01*
X134823056Y-68579671D01*
X134817512Y-68526919D01*
X134804777Y-68405751D01*
X134750634Y-68239118D01*
X134750633Y-68239117D01*
X134750633Y-68239115D01*
X134663032Y-68087385D01*
X134663031Y-68087384D01*
X134663030Y-68087382D01*
X134545792Y-67957177D01*
X134521182Y-67939297D01*
X134404047Y-67854193D01*
X134404046Y-67854192D01*
X134243984Y-67782928D01*
X134077106Y-67747456D01*
X134043184Y-67734942D01*
X134014211Y-67713306D01*
X133577851Y-67276946D01*
X133553220Y-67242094D01*
X133541636Y-67201019D01*
X133541608Y-67200757D01*
X133534777Y-67135751D01*
X133480634Y-66969118D01*
X133393030Y-66817382D01*
X133275792Y-66687177D01*
X133134046Y-66584192D01*
X132988907Y-66519572D01*
X132973980Y-66512926D01*
X132807107Y-66477456D01*
X132773182Y-66464941D01*
X132744209Y-66443305D01*
X131990351Y-65689447D01*
X131965720Y-65654595D01*
X131954136Y-65613520D01*
X131947277Y-65548251D01*
X131947276Y-65548249D01*
X131893134Y-65381618D01*
X131883514Y-65364956D01*
X131805532Y-65229885D01*
X131805531Y-65229884D01*
X131805530Y-65229882D01*
X131688292Y-65099677D01*
X131546546Y-64996692D01*
X131386484Y-64925428D01*
X131215104Y-64889000D01*
X131039896Y-64889000D01*
X130925642Y-64913285D01*
X130868515Y-64925428D01*
X130708453Y-64996693D01*
X130566708Y-65099676D01*
X130449467Y-65229885D01*
X130361866Y-65381615D01*
X130307723Y-65548249D01*
X130289409Y-65722499D01*
X124110052Y-65722499D01*
X124133299Y-65716270D01*
X124605759Y-65555891D01*
X125066719Y-65364956D01*
X125514203Y-65144281D01*
X125946297Y-64894812D01*
X126361149Y-64617616D01*
X126756984Y-64313882D01*
X127132106Y-63984908D01*
X127294672Y-63822341D01*
X127301688Y-63817205D01*
X127303846Y-63814455D01*
X127313894Y-63803120D01*
X127327845Y-63789168D01*
X127336515Y-63773541D01*
X127893274Y-63078388D01*
X130294856Y-60079842D01*
X130301139Y-60072589D01*
X130590113Y-59763741D01*
X130601101Y-59753330D01*
X130930277Y-59477120D01*
X130938950Y-59470466D01*
X131294924Y-59221213D01*
X131299459Y-59218184D01*
X131421799Y-59140245D01*
X131427910Y-59136592D01*
X131450677Y-59123842D01*
X131521869Y-59083973D01*
X131553469Y-59071525D01*
X131606254Y-59058609D01*
X131636193Y-59055000D01*
X135005774Y-59055000D01*
X135052627Y-59064035D01*
X135092761Y-59089844D01*
X135120419Y-59128727D01*
X135134628Y-59159890D01*
X135138676Y-59169878D01*
X135205850Y-59358433D01*
X135211317Y-59379262D01*
X135244939Y-59573825D01*
X135246664Y-59589907D01*
X135254960Y-59784233D01*
X135255075Y-59789637D01*
X135254500Y-62229500D01*
X135254500Y-62301603D01*
X135286367Y-62441221D01*
X135348500Y-62570243D01*
X135348501Y-62570244D01*
X135348502Y-62570246D01*
X135437790Y-62682210D01*
X135534713Y-62759503D01*
X135540138Y-62766977D01*
X135542231Y-62767876D01*
X135669340Y-62829087D01*
X135678780Y-62833633D01*
X135818396Y-62865500D01*
X135961603Y-62865500D01*
X135961604Y-62865500D01*
X136101220Y-62833633D01*
X136181209Y-62795112D01*
X136237768Y-62767876D01*
X136239862Y-62766976D01*
X136245287Y-62759503D01*
X136342210Y-62682210D01*
X136431498Y-62570246D01*
X136493633Y-62441220D01*
X136525500Y-62301604D01*
X136525500Y-62230000D01*
X136525500Y-62229500D01*
X136525500Y-60694190D01*
X136535091Y-60645972D01*
X136562405Y-60605095D01*
X138075595Y-59091905D01*
X138116472Y-59064591D01*
X138164690Y-59055000D01*
X138695310Y-59055000D01*
X138743528Y-59064591D01*
X138784405Y-59091905D01*
X140297595Y-60605095D01*
X140324909Y-60645972D01*
X140334500Y-60694190D01*
X140334500Y-62301603D01*
X140366367Y-62441221D01*
X140428500Y-62570243D01*
X140428501Y-62570244D01*
X140428502Y-62570246D01*
X140517790Y-62682210D01*
X140614713Y-62759503D01*
X140620138Y-62766977D01*
X140622231Y-62767876D01*
X140749340Y-62829087D01*
X140758780Y-62833633D01*
X140898396Y-62865500D01*
X141041603Y-62865500D01*
X141041604Y-62865500D01*
X141181220Y-62833633D01*
X141261209Y-62795112D01*
X141317768Y-62767876D01*
X141319862Y-62766976D01*
X141325287Y-62759503D01*
X141422210Y-62682210D01*
X141511498Y-62570246D01*
X141573633Y-62441220D01*
X141605500Y-62301604D01*
X141605500Y-62230000D01*
X141605500Y-62229500D01*
X141605500Y-59791984D01*
X141605620Y-59786488D01*
X141606479Y-59766818D01*
X141614287Y-59587976D01*
X141616078Y-59571613D01*
X141651029Y-59373397D01*
X141656713Y-59352189D01*
X141713741Y-59195504D01*
X141733876Y-59159735D01*
X141764433Y-59132341D01*
X141854864Y-59074731D01*
X141922560Y-59055000D01*
X148860500Y-59055000D01*
X148923500Y-59071881D01*
X148969619Y-59118000D01*
X148986500Y-59181000D01*
X148986500Y-60738638D01*
X148993011Y-60799200D01*
X149036563Y-60915968D01*
X149044507Y-60960000D01*
X149036563Y-61004032D01*
X148993011Y-61120799D01*
X148986500Y-61181362D01*
X148986500Y-63278638D01*
X148993011Y-63339200D01*
X149036563Y-63455968D01*
X149044507Y-63500000D01*
X149036563Y-63544032D01*
X148993011Y-63660799D01*
X148986500Y-63721362D01*
X148986500Y-65818638D01*
X148993011Y-65879201D01*
X149028487Y-65974314D01*
X149036563Y-65995967D01*
X149044507Y-66039999D01*
X149036563Y-66084031D01*
X149035744Y-66086228D01*
X148993011Y-66200799D01*
X148986500Y-66261362D01*
X148986500Y-68358638D01*
X148993011Y-68419201D01*
X149032398Y-68524801D01*
X149036563Y-68535967D01*
X149044507Y-68579999D01*
X149036563Y-68624031D01*
X148993010Y-68740799D01*
X148993011Y-68740799D01*
X148986500Y-68801362D01*
X148986500Y-70898638D01*
X148993011Y-70959201D01*
X149017251Y-71024189D01*
X149036563Y-71075967D01*
X149044507Y-71119999D01*
X149036563Y-71164031D01*
X149011047Y-71232443D01*
X148993011Y-71280799D01*
X148986500Y-71341362D01*
X148986500Y-73438638D01*
X148990049Y-73471654D01*
X148993011Y-73499200D01*
X149036563Y-73615968D01*
X149044507Y-73660000D01*
X149036563Y-73704032D01*
X148993011Y-73820799D01*
X148986500Y-73881362D01*
X148986500Y-75490406D01*
X148976909Y-75538624D01*
X148949597Y-75579498D01*
X147701382Y-76827713D01*
X147290788Y-77238307D01*
X147261815Y-77259942D01*
X147227891Y-77272457D01*
X147143273Y-77290443D01*
X147061015Y-77307928D01*
X146900953Y-77379193D01*
X146759208Y-77482176D01*
X146641967Y-77612385D01*
X146554366Y-77764115D01*
X146500223Y-77930749D01*
X146481909Y-78104999D01*
X146500223Y-78279250D01*
X146554366Y-78445884D01*
X146641967Y-78597614D01*
X146641968Y-78597616D01*
X146641970Y-78597618D01*
X146759208Y-78727823D01*
X146900954Y-78830808D01*
X147061016Y-78902072D01*
X147232396Y-78938500D01*
X147407602Y-78938500D01*
X147407604Y-78938500D01*
X147578984Y-78902072D01*
X147739046Y-78830808D01*
X147880792Y-78727823D01*
X147998030Y-78597618D01*
X148069757Y-78473382D01*
X148085633Y-78445884D01*
X148085634Y-78445882D01*
X148139777Y-78279249D01*
X148146637Y-78213971D01*
X148158220Y-78172903D01*
X148182846Y-78138057D01*
X148771407Y-77549496D01*
X148821564Y-77518761D01*
X148880211Y-77514145D01*
X148934561Y-77536658D01*
X148972767Y-77581391D01*
X148986500Y-77638594D01*
X148986500Y-78518638D01*
X148993011Y-78579201D01*
X149023292Y-78660387D01*
X149036563Y-78695967D01*
X149044507Y-78739999D01*
X149036563Y-78784031D01*
X149007735Y-78861323D01*
X148993011Y-78900799D01*
X148986500Y-78961362D01*
X148986500Y-81058638D01*
X148993011Y-81119201D01*
X149016997Y-81183509D01*
X149036563Y-81235967D01*
X149044507Y-81279999D01*
X149036563Y-81324031D01*
X149019977Y-81368500D01*
X148993011Y-81440799D01*
X148986500Y-81501362D01*
X148986500Y-83598638D01*
X148993011Y-83659201D01*
X149025013Y-83745000D01*
X149036563Y-83775967D01*
X149044507Y-83819999D01*
X149036563Y-83864031D01*
X148993011Y-83980799D01*
X148986500Y-84041362D01*
X148986500Y-85600500D01*
X148969619Y-85663500D01*
X148923500Y-85709619D01*
X148860500Y-85726500D01*
X147754514Y-85726500D01*
X147715578Y-85720333D01*
X147680453Y-85702436D01*
X147654210Y-85683369D01*
X147586524Y-85634192D01*
X147426462Y-85562928D01*
X147255082Y-85526500D01*
X147079874Y-85526500D01*
X146985476Y-85546565D01*
X146908493Y-85562928D01*
X146824106Y-85600500D01*
X146763062Y-85627679D01*
X146748431Y-85634193D01*
X146606686Y-85737176D01*
X146489445Y-85867385D01*
X146401844Y-86019115D01*
X146347701Y-86185749D01*
X146329387Y-86360000D01*
X146347701Y-86534250D01*
X146401843Y-86700882D01*
X146463399Y-86807500D01*
X146480280Y-86870500D01*
X146463399Y-86933500D01*
X146417280Y-86979619D01*
X146354280Y-86996500D01*
X145367036Y-86996500D01*
X145328100Y-86990333D01*
X145292975Y-86972436D01*
X145199046Y-86904192D01*
X145038984Y-86832928D01*
X144867604Y-86796500D01*
X144692396Y-86796500D01*
X144617955Y-86812323D01*
X144521015Y-86832928D01*
X144360953Y-86904193D01*
X144219208Y-87007176D01*
X144101967Y-87137385D01*
X144014366Y-87289115D01*
X143960223Y-87455749D01*
X143941909Y-87630000D01*
X143960223Y-87804250D01*
X144014366Y-87970884D01*
X144101967Y-88122614D01*
X144101968Y-88122616D01*
X144101970Y-88122618D01*
X144219208Y-88252823D01*
X144360954Y-88355808D01*
X144521016Y-88427072D01*
X144692396Y-88463500D01*
X144867602Y-88463500D01*
X144867604Y-88463500D01*
X145038984Y-88427072D01*
X145199046Y-88355808D01*
X145292975Y-88287563D01*
X145328100Y-88269667D01*
X145367036Y-88263500D01*
X148256964Y-88263500D01*
X148295900Y-88269667D01*
X148331024Y-88287563D01*
X148424954Y-88355808D01*
X148585016Y-88427072D01*
X148756396Y-88463500D01*
X148756398Y-88463500D01*
X148860500Y-88463500D01*
X148923500Y-88480381D01*
X148969619Y-88526500D01*
X148986500Y-88589500D01*
X148986500Y-88678638D01*
X148993011Y-88739201D01*
X149036563Y-88855967D01*
X149044507Y-88899999D01*
X149036563Y-88944031D01*
X148993011Y-89060799D01*
X148986500Y-89121362D01*
X148986500Y-91218638D01*
X148993011Y-91279200D01*
X149036563Y-91395968D01*
X149044507Y-91440000D01*
X149036563Y-91484032D01*
X148993011Y-91600799D01*
X148986500Y-91661362D01*
X148986500Y-93758638D01*
X148993011Y-93819200D01*
X149036563Y-93935968D01*
X149044507Y-93980000D01*
X149036563Y-94024032D01*
X148993011Y-94140799D01*
X148986500Y-94201362D01*
X148986500Y-96298638D01*
X148991791Y-96347857D01*
X148993011Y-96359200D01*
X149036829Y-96476683D01*
X149044773Y-96520715D01*
X149036829Y-96564746D01*
X148993505Y-96680904D01*
X148987000Y-96741411D01*
X148987000Y-97536000D01*
X150623000Y-97536000D01*
X150686000Y-97552881D01*
X150732119Y-97599000D01*
X150749000Y-97662000D01*
X150749000Y-99298000D01*
X151543589Y-99298000D01*
X151604095Y-99291494D01*
X151720251Y-99248170D01*
X151764284Y-99240225D01*
X151808312Y-99248168D01*
X151854300Y-99265321D01*
X151899889Y-99294811D01*
X151928836Y-99340750D01*
X151935764Y-99394605D01*
X151919385Y-99446374D01*
X151914296Y-99455188D01*
X151860154Y-99621818D01*
X151853294Y-99687090D01*
X151841710Y-99728163D01*
X151817080Y-99763013D01*
X151201857Y-100378237D01*
X151172883Y-100399873D01*
X151138958Y-100412389D01*
X150972084Y-100447859D01*
X150812022Y-100519124D01*
X150670277Y-100622107D01*
X150553036Y-100752316D01*
X150465435Y-100904046D01*
X150411292Y-101070680D01*
X150392978Y-101244930D01*
X150411292Y-101419181D01*
X150465435Y-101585815D01*
X150553036Y-101737545D01*
X150553037Y-101737547D01*
X150553039Y-101737549D01*
X150670277Y-101867754D01*
X150812023Y-101970739D01*
X150972085Y-102042003D01*
X151143465Y-102078431D01*
X151318671Y-102078431D01*
X151318673Y-102078431D01*
X151490053Y-102042003D01*
X151650115Y-101970739D01*
X151791861Y-101867754D01*
X151909099Y-101737549D01*
X151996703Y-101585813D01*
X152050846Y-101419180D01*
X152057706Y-101353907D01*
X152069290Y-101312833D01*
X152093921Y-101277982D01*
X152301223Y-101070680D01*
X152709144Y-100662759D01*
X152738114Y-100641126D01*
X152772030Y-100628613D01*
X152938915Y-100593141D01*
X153098977Y-100521877D01*
X153240723Y-100418892D01*
X153357961Y-100288687D01*
X153423421Y-100175306D01*
X153445564Y-100136953D01*
X153466564Y-100072323D01*
X153499708Y-99970318D01*
X153518022Y-99796069D01*
X153499708Y-99621820D01*
X153482628Y-99569255D01*
X153448246Y-99463436D01*
X153443630Y-99404789D01*
X153466143Y-99350439D01*
X153510876Y-99312233D01*
X153568079Y-99298500D01*
X154083638Y-99298500D01*
X154144201Y-99291989D01*
X154260967Y-99248436D01*
X154305000Y-99240492D01*
X154349032Y-99248436D01*
X154465799Y-99291989D01*
X154526362Y-99298500D01*
X156623638Y-99298500D01*
X156684201Y-99291989D01*
X156800967Y-99248436D01*
X156845000Y-99240492D01*
X156889032Y-99248436D01*
X157005799Y-99291989D01*
X157066362Y-99298500D01*
X159163638Y-99298500D01*
X159224201Y-99291989D01*
X159340967Y-99248436D01*
X159385000Y-99240492D01*
X159429032Y-99248436D01*
X159545799Y-99291989D01*
X159606362Y-99298500D01*
X161703638Y-99298500D01*
X161764201Y-99291989D01*
X161880967Y-99248436D01*
X161925000Y-99240492D01*
X161969032Y-99248436D01*
X162085799Y-99291989D01*
X162146362Y-99298500D01*
X164243638Y-99298500D01*
X164304201Y-99291989D01*
X164420967Y-99248436D01*
X164465000Y-99240492D01*
X164509032Y-99248436D01*
X164625799Y-99291989D01*
X164686362Y-99298500D01*
X166783638Y-99298500D01*
X166844201Y-99291989D01*
X166960967Y-99248436D01*
X167005000Y-99240492D01*
X167049032Y-99248436D01*
X167165799Y-99291989D01*
X167226362Y-99298500D01*
X169323638Y-99298500D01*
X169384201Y-99291989D01*
X169500967Y-99248436D01*
X169545000Y-99240492D01*
X169589032Y-99248436D01*
X169705799Y-99291989D01*
X169766362Y-99298500D01*
X171863638Y-99298500D01*
X171924201Y-99291989D01*
X172040967Y-99248436D01*
X172085000Y-99240492D01*
X172129032Y-99248436D01*
X172245799Y-99291989D01*
X172306362Y-99298500D01*
X174403638Y-99298500D01*
X174464201Y-99291989D01*
X174464202Y-99291988D01*
X174479936Y-99290297D01*
X174480172Y-99292495D01*
X174514700Y-99288470D01*
X174570859Y-99309988D01*
X174610647Y-99355085D01*
X174625000Y-99413488D01*
X174625000Y-120365668D01*
X174621345Y-120395794D01*
X174551132Y-120680936D01*
X174537934Y-120713762D01*
X174380106Y-120987405D01*
X174377481Y-120991751D01*
X174342047Y-121047838D01*
X174339250Y-121052074D01*
X174071614Y-121440147D01*
X174065519Y-121448265D01*
X173769107Y-121811580D01*
X173762377Y-121819181D01*
X173437672Y-122157462D01*
X173430367Y-122164484D01*
X173079497Y-122475516D01*
X173071636Y-122481938D01*
X172696881Y-122763706D01*
X172688528Y-122769475D01*
X172290139Y-123021531D01*
X172285795Y-123024158D01*
X172222959Y-123060455D01*
X172220079Y-123062069D01*
X172041510Y-123159071D01*
X172009064Y-123171270D01*
X171946825Y-123185294D01*
X171939620Y-123186918D01*
X171911924Y-123190000D01*
X86230606Y-123190000D01*
X86203482Y-123187046D01*
X86190380Y-123184157D01*
X86090781Y-123162202D01*
X86058786Y-123150425D01*
X85854270Y-123041760D01*
X85851570Y-123040283D01*
X85820680Y-123022890D01*
X85789070Y-123005091D01*
X85784794Y-123002572D01*
X85402132Y-122766766D01*
X85365055Y-122743918D01*
X85356813Y-122738378D01*
X84960807Y-122448940D01*
X84953021Y-122442764D01*
X84581032Y-122122993D01*
X84573756Y-122116222D01*
X84228140Y-121768140D01*
X84221422Y-121760817D01*
X83904334Y-121386602D01*
X83898213Y-121378773D01*
X83893918Y-121372808D01*
X129411500Y-121372808D01*
X129426580Y-121530737D01*
X129486222Y-121733861D01*
X129583230Y-121922028D01*
X129651110Y-122008344D01*
X129714092Y-122088432D01*
X129874082Y-122227065D01*
X130057418Y-122332913D01*
X130257473Y-122402153D01*
X130362244Y-122417216D01*
X130467014Y-122432281D01*
X130467015Y-122432280D01*
X130467016Y-122432281D01*
X130678474Y-122422208D01*
X130884204Y-122372298D01*
X131076771Y-122284356D01*
X131076771Y-122284355D01*
X131076775Y-122284354D01*
X131249211Y-122161563D01*
X131253121Y-122157462D01*
X131395303Y-122008346D01*
X131509756Y-121830254D01*
X131537555Y-121760817D01*
X131588435Y-121633724D01*
X131608285Y-121530737D01*
X131628500Y-121425849D01*
X131628500Y-121372808D01*
X135071500Y-121372808D01*
X135086580Y-121530737D01*
X135146222Y-121733861D01*
X135243230Y-121922028D01*
X135311110Y-122008344D01*
X135374092Y-122088432D01*
X135534082Y-122227065D01*
X135717418Y-122332913D01*
X135917473Y-122402153D01*
X136022244Y-122417216D01*
X136127014Y-122432281D01*
X136127015Y-122432280D01*
X136127016Y-122432281D01*
X136338474Y-122422208D01*
X136544204Y-122372298D01*
X136736771Y-122284356D01*
X136736771Y-122284355D01*
X136736775Y-122284354D01*
X136909211Y-122161563D01*
X136913121Y-122157462D01*
X137055303Y-122008346D01*
X137169756Y-121830254D01*
X137197555Y-121760817D01*
X137248435Y-121633724D01*
X137268285Y-121530737D01*
X137288500Y-121425849D01*
X137288500Y-120367197D01*
X137286531Y-120346579D01*
X137273419Y-120209262D01*
X137243003Y-120105675D01*
X137213777Y-120006138D01*
X137116771Y-119817974D01*
X137103334Y-119800888D01*
X137053085Y-119736991D01*
X136985908Y-119651568D01*
X136825918Y-119512935D01*
X136642581Y-119407086D01*
X136618172Y-119398638D01*
X143291500Y-119398638D01*
X143298011Y-119459201D01*
X143318053Y-119512935D01*
X143349111Y-119596205D01*
X143436738Y-119713261D01*
X143553794Y-119800888D01*
X143553795Y-119800888D01*
X143553796Y-119800889D01*
X143690799Y-119851989D01*
X143751362Y-119858500D01*
X145828638Y-119858500D01*
X145889201Y-119851989D01*
X146026204Y-119800889D01*
X146143261Y-119713261D01*
X146230889Y-119596204D01*
X146281989Y-119459201D01*
X146288500Y-119398638D01*
X146288500Y-118421981D01*
X148291500Y-118421981D01*
X148306872Y-118607490D01*
X148367835Y-118848230D01*
X148367837Y-118848234D01*
X148467592Y-119075652D01*
X148603420Y-119283553D01*
X148771611Y-119466257D01*
X148771615Y-119466261D01*
X148967589Y-119618794D01*
X149185996Y-119736990D01*
X149420879Y-119817625D01*
X149665831Y-119858500D01*
X149914166Y-119858500D01*
X149914169Y-119858500D01*
X150159121Y-119817625D01*
X150394004Y-119736990D01*
X150612411Y-119618794D01*
X150808385Y-119466261D01*
X150870636Y-119398638D01*
X157351500Y-119398638D01*
X157358011Y-119459201D01*
X157378053Y-119512935D01*
X157409111Y-119596205D01*
X157496738Y-119713261D01*
X157613794Y-119800888D01*
X157613795Y-119800888D01*
X157613796Y-119800889D01*
X157750799Y-119851989D01*
X157811362Y-119858500D01*
X159888638Y-119858500D01*
X159949201Y-119851989D01*
X160086204Y-119800889D01*
X160203261Y-119713261D01*
X160290889Y-119596204D01*
X160341989Y-119459201D01*
X160348500Y-119398638D01*
X160348500Y-118421981D01*
X162351500Y-118421981D01*
X162366872Y-118607490D01*
X162427835Y-118848230D01*
X162427837Y-118848234D01*
X162527592Y-119075652D01*
X162663420Y-119283553D01*
X162831611Y-119466257D01*
X162831615Y-119466261D01*
X163027589Y-119618794D01*
X163245996Y-119736990D01*
X163480879Y-119817625D01*
X163725831Y-119858500D01*
X163974166Y-119858500D01*
X163974169Y-119858500D01*
X164219121Y-119817625D01*
X164454004Y-119736990D01*
X164672411Y-119618794D01*
X164868385Y-119466261D01*
X164885411Y-119447766D01*
X168960787Y-119447766D01*
X168990413Y-119717015D01*
X169009726Y-119790888D01*
X169058928Y-119979088D01*
X169164870Y-120228390D01*
X169305982Y-120459610D01*
X169479255Y-120667820D01*
X169479256Y-120667821D01*
X169479258Y-120667823D01*
X169680993Y-120848578D01*
X169680995Y-120848579D01*
X169680998Y-120848582D01*
X169906910Y-120998044D01*
X170039104Y-121060014D01*
X170152171Y-121113018D01*
X170152173Y-121113018D01*
X170152176Y-121113020D01*
X170411569Y-121191060D01*
X170411572Y-121191060D01*
X170411574Y-121191061D01*
X170679558Y-121230500D01*
X170679561Y-121230500D01*
X170882630Y-121230500D01*
X170882631Y-121230500D01*
X171085156Y-121215677D01*
X171349553Y-121156780D01*
X171602558Y-121060014D01*
X171838777Y-120927441D01*
X172053177Y-120761888D01*
X172241186Y-120566881D01*
X172398799Y-120346579D01*
X172522656Y-120105675D01*
X172610118Y-119849305D01*
X172659319Y-119582933D01*
X172669212Y-119312235D01*
X172669143Y-119311611D01*
X172643181Y-119075652D01*
X172639586Y-119042982D01*
X172571072Y-118780912D01*
X172465130Y-118531610D01*
X172324018Y-118300390D01*
X172150745Y-118092180D01*
X172045759Y-117998112D01*
X171949006Y-117911421D01*
X171949003Y-117911419D01*
X171949002Y-117911418D01*
X171723090Y-117761956D01*
X171723086Y-117761954D01*
X171477828Y-117646981D01*
X171218425Y-117568938D01*
X170950442Y-117529500D01*
X170950439Y-117529500D01*
X170747369Y-117529500D01*
X170713614Y-117531970D01*
X170544839Y-117544323D01*
X170280449Y-117603219D01*
X170027441Y-117699985D01*
X169791225Y-117832557D01*
X169576820Y-117998114D01*
X169388815Y-118193117D01*
X169231200Y-118413422D01*
X169107342Y-118654328D01*
X169019882Y-118910693D01*
X168970681Y-119177065D01*
X168960787Y-119447766D01*
X164885411Y-119447766D01*
X165036580Y-119283552D01*
X165172408Y-119075652D01*
X165272165Y-118848230D01*
X165333128Y-118607490D01*
X165348500Y-118421981D01*
X165348500Y-116318019D01*
X165333128Y-116132510D01*
X165272165Y-115891770D01*
X165172408Y-115664348D01*
X165036580Y-115456448D01*
X165036579Y-115456446D01*
X164868388Y-115273742D01*
X164868387Y-115273741D01*
X164868385Y-115273739D01*
X164672411Y-115121206D01*
X164454004Y-115003010D01*
X164454003Y-115003009D01*
X164454000Y-115003008D01*
X164297415Y-114949253D01*
X164219121Y-114922375D01*
X163974169Y-114881500D01*
X163725831Y-114881500D01*
X163480879Y-114922375D01*
X163480876Y-114922375D01*
X163480876Y-114922376D01*
X163245999Y-115003008D01*
X163027587Y-115121207D01*
X162831611Y-115273742D01*
X162663420Y-115456446D01*
X162527592Y-115664347D01*
X162457050Y-115825166D01*
X162427835Y-115891770D01*
X162366872Y-116132510D01*
X162351500Y-116318019D01*
X162351500Y-118421981D01*
X160348500Y-118421981D01*
X160348500Y-115341362D01*
X160341989Y-115280799D01*
X160290889Y-115143796D01*
X160286700Y-115138200D01*
X160203261Y-115026738D01*
X160086205Y-114939111D01*
X160015831Y-114912863D01*
X159949201Y-114888011D01*
X159888638Y-114881500D01*
X157811362Y-114881500D01*
X157750799Y-114888011D01*
X157613794Y-114939111D01*
X157496738Y-115026738D01*
X157409111Y-115143794D01*
X157385164Y-115208000D01*
X157358011Y-115280799D01*
X157351500Y-115341362D01*
X157351500Y-119398638D01*
X150870636Y-119398638D01*
X150976580Y-119283552D01*
X151112408Y-119075652D01*
X151212165Y-118848230D01*
X151273128Y-118607490D01*
X151288500Y-118421981D01*
X151288500Y-116318019D01*
X151273128Y-116132510D01*
X151212165Y-115891770D01*
X151112408Y-115664348D01*
X150976580Y-115456448D01*
X150976579Y-115456446D01*
X150808388Y-115273742D01*
X150808387Y-115273741D01*
X150808385Y-115273739D01*
X150612411Y-115121206D01*
X150394004Y-115003010D01*
X150394003Y-115003009D01*
X150394000Y-115003008D01*
X150237415Y-114949253D01*
X150159121Y-114922375D01*
X149914169Y-114881500D01*
X149665831Y-114881500D01*
X149420879Y-114922375D01*
X149420876Y-114922375D01*
X149420876Y-114922376D01*
X149185999Y-115003008D01*
X148967587Y-115121207D01*
X148771611Y-115273742D01*
X148603420Y-115456446D01*
X148467592Y-115664347D01*
X148397050Y-115825166D01*
X148367835Y-115891770D01*
X148306872Y-116132510D01*
X148291500Y-116318019D01*
X148291500Y-118421981D01*
X146288500Y-118421981D01*
X146288500Y-115341362D01*
X146281989Y-115280799D01*
X146230889Y-115143796D01*
X146226700Y-115138200D01*
X146143261Y-115026738D01*
X146026205Y-114939111D01*
X145955831Y-114912863D01*
X145889201Y-114888011D01*
X145828638Y-114881500D01*
X143751362Y-114881500D01*
X143690799Y-114888011D01*
X143553794Y-114939111D01*
X143436738Y-115026738D01*
X143349111Y-115143794D01*
X143325164Y-115208000D01*
X143298011Y-115280799D01*
X143291500Y-115341362D01*
X143291500Y-119398638D01*
X136618172Y-119398638D01*
X136442524Y-119337846D01*
X136232985Y-119307718D01*
X136021527Y-119317791D01*
X135815797Y-119367701D01*
X135623224Y-119455645D01*
X135450788Y-119578436D01*
X135304696Y-119731655D01*
X135190241Y-119909749D01*
X135111564Y-120106275D01*
X135071500Y-120314151D01*
X135071500Y-121372808D01*
X131628500Y-121372808D01*
X131628500Y-120367197D01*
X131626531Y-120346579D01*
X131613419Y-120209262D01*
X131583003Y-120105675D01*
X131553777Y-120006138D01*
X131456771Y-119817974D01*
X131443334Y-119800888D01*
X131393085Y-119736991D01*
X131325908Y-119651568D01*
X131165918Y-119512935D01*
X130982581Y-119407086D01*
X130782524Y-119337846D01*
X130572985Y-119307718D01*
X130361527Y-119317791D01*
X130155797Y-119367701D01*
X129963224Y-119455645D01*
X129790788Y-119578436D01*
X129644696Y-119731655D01*
X129530241Y-119909749D01*
X129451564Y-120106275D01*
X129411500Y-120314151D01*
X129411500Y-121372808D01*
X83893918Y-121372808D01*
X83611577Y-120980696D01*
X83606093Y-120972408D01*
X83429324Y-120680936D01*
X83350434Y-120550855D01*
X83347949Y-120546569D01*
X83313179Y-120483777D01*
X83311722Y-120481069D01*
X83300515Y-120459610D01*
X83213119Y-120292267D01*
X83201666Y-120260631D01*
X83187857Y-120196912D01*
X83185000Y-120170228D01*
X83185000Y-119447766D01*
X87680787Y-119447766D01*
X87710413Y-119717015D01*
X87729726Y-119790888D01*
X87778928Y-119979088D01*
X87884870Y-120228390D01*
X88025982Y-120459610D01*
X88199255Y-120667820D01*
X88199256Y-120667821D01*
X88199258Y-120667823D01*
X88400993Y-120848578D01*
X88400995Y-120848579D01*
X88400998Y-120848582D01*
X88626910Y-120998044D01*
X88759104Y-121060014D01*
X88872171Y-121113018D01*
X88872173Y-121113018D01*
X88872176Y-121113020D01*
X89131569Y-121191060D01*
X89131572Y-121191060D01*
X89131574Y-121191061D01*
X89399558Y-121230500D01*
X89399561Y-121230500D01*
X89602630Y-121230500D01*
X89602631Y-121230500D01*
X89805156Y-121215677D01*
X90069553Y-121156780D01*
X90322558Y-121060014D01*
X90558777Y-120927441D01*
X90773177Y-120761888D01*
X90961186Y-120566881D01*
X91118799Y-120346579D01*
X91242656Y-120105675D01*
X91330118Y-119849305D01*
X91379319Y-119582933D01*
X91386420Y-119388638D01*
X114771500Y-119388638D01*
X114778011Y-119449201D01*
X114781741Y-119459201D01*
X114829111Y-119586205D01*
X114916738Y-119703261D01*
X115033794Y-119790888D01*
X115033795Y-119790888D01*
X115033796Y-119790889D01*
X115170799Y-119841989D01*
X115231362Y-119848500D01*
X117308638Y-119848500D01*
X117369201Y-119841989D01*
X117506204Y-119790889D01*
X117623261Y-119703261D01*
X117710889Y-119586204D01*
X117761989Y-119449201D01*
X117768500Y-119388638D01*
X117768500Y-117614000D01*
X119772000Y-117614000D01*
X119772000Y-118411953D01*
X119787368Y-118597412D01*
X119848310Y-118838068D01*
X119948030Y-119065408D01*
X120083819Y-119273247D01*
X120251951Y-119455888D01*
X120447865Y-119608374D01*
X120666198Y-119726530D01*
X120900999Y-119807136D01*
X121016000Y-119826327D01*
X121016000Y-117614000D01*
X121524000Y-117614000D01*
X121524000Y-119826327D01*
X121639000Y-119807136D01*
X121873801Y-119726530D01*
X122092134Y-119608374D01*
X122288048Y-119455888D01*
X122456180Y-119273247D01*
X122591969Y-119065408D01*
X122691689Y-118838068D01*
X122752631Y-118597412D01*
X122768000Y-118411953D01*
X122768000Y-117614000D01*
X121524000Y-117614000D01*
X121016000Y-117614000D01*
X119772000Y-117614000D01*
X117768500Y-117614000D01*
X117768500Y-117106000D01*
X119772000Y-117106000D01*
X121016000Y-117106000D01*
X121016000Y-114893673D01*
X121524000Y-114893673D01*
X121524000Y-117106000D01*
X122768000Y-117106000D01*
X122768000Y-116308047D01*
X122752631Y-116122587D01*
X122691689Y-115881931D01*
X122591969Y-115654591D01*
X122456180Y-115446752D01*
X122288048Y-115264111D01*
X122126278Y-115138200D01*
X126502835Y-115138200D01*
X126521464Y-115374911D01*
X126576895Y-115605794D01*
X126667761Y-115825166D01*
X126791823Y-116027615D01*
X126946030Y-116208169D01*
X127126584Y-116362376D01*
X127329033Y-116486438D01*
X127329035Y-116486438D01*
X127329037Y-116486440D01*
X127548406Y-116577305D01*
X127723858Y-116619427D01*
X127779288Y-116632735D01*
X127796558Y-116634094D01*
X128016000Y-116651365D01*
X128252711Y-116632735D01*
X128483594Y-116577305D01*
X128702963Y-116486440D01*
X128905416Y-116362376D01*
X129085969Y-116208169D01*
X129240176Y-116027616D01*
X129268850Y-115980823D01*
X129313921Y-115937173D01*
X129374457Y-115920672D01*
X129435446Y-115935413D01*
X129472042Y-115968857D01*
X129473207Y-115967786D01*
X129480276Y-115975464D01*
X129480278Y-115975468D01*
X129615712Y-116122587D01*
X129632762Y-116141108D01*
X129780758Y-116256299D01*
X129810424Y-116279389D01*
X130008426Y-116386542D01*
X130221365Y-116459644D01*
X130443431Y-116496700D01*
X130668566Y-116496700D01*
X130668569Y-116496700D01*
X130890635Y-116459644D01*
X131103574Y-116386542D01*
X131301576Y-116279389D01*
X131479240Y-116141106D01*
X131631722Y-115975468D01*
X131720518Y-115839554D01*
X131766031Y-115797658D01*
X131826000Y-115782472D01*
X131885969Y-115797658D01*
X131931481Y-115839554D01*
X131984478Y-115920672D01*
X132020278Y-115975468D01*
X132172762Y-116141108D01*
X132320758Y-116256299D01*
X132350424Y-116279389D01*
X132548426Y-116386542D01*
X132761365Y-116459644D01*
X132983431Y-116496700D01*
X133208566Y-116496700D01*
X133208569Y-116496700D01*
X133430635Y-116459644D01*
X133643574Y-116386542D01*
X133841576Y-116279389D01*
X134019240Y-116141106D01*
X134171722Y-115975468D01*
X134260518Y-115839554D01*
X134306031Y-115797658D01*
X134366000Y-115782472D01*
X134425969Y-115797658D01*
X134471481Y-115839554D01*
X134524478Y-115920672D01*
X134560278Y-115975468D01*
X134712762Y-116141108D01*
X134860758Y-116256299D01*
X134890424Y-116279389D01*
X135088426Y-116386542D01*
X135301365Y-116459644D01*
X135523431Y-116496700D01*
X135748566Y-116496700D01*
X135748569Y-116496700D01*
X135970635Y-116459644D01*
X136183574Y-116386542D01*
X136381576Y-116279389D01*
X136482419Y-116200898D01*
X136535690Y-116176661D01*
X136594169Y-116179107D01*
X136645232Y-116207710D01*
X136677864Y-116256299D01*
X136725554Y-116384162D01*
X136813095Y-116501104D01*
X136930037Y-116588645D01*
X137066906Y-116639694D01*
X137127411Y-116646200D01*
X137922000Y-116646200D01*
X137922000Y-115392200D01*
X138430000Y-115392200D01*
X138430000Y-116646200D01*
X139224589Y-116646200D01*
X139285093Y-116639694D01*
X139421962Y-116588645D01*
X139538904Y-116501104D01*
X139626445Y-116384162D01*
X139677494Y-116247293D01*
X139684000Y-116186789D01*
X139684000Y-115392200D01*
X138430000Y-115392200D01*
X137922000Y-115392200D01*
X137922000Y-113630200D01*
X138430000Y-113630200D01*
X138430000Y-114884200D01*
X139684000Y-114884200D01*
X139684000Y-114089611D01*
X139677494Y-114029106D01*
X139626445Y-113892237D01*
X139538904Y-113775295D01*
X139421962Y-113687754D01*
X139285093Y-113636705D01*
X139224589Y-113630200D01*
X138430000Y-113630200D01*
X137922000Y-113630200D01*
X137127411Y-113630200D01*
X137066906Y-113636705D01*
X136930037Y-113687754D01*
X136813095Y-113775295D01*
X136725554Y-113892237D01*
X136677864Y-114020100D01*
X136645232Y-114068689D01*
X136594169Y-114097292D01*
X136535691Y-114099738D01*
X136482417Y-114075499D01*
X136381578Y-113997012D01*
X136183573Y-113889857D01*
X136039427Y-113840372D01*
X135970635Y-113816756D01*
X135748569Y-113779700D01*
X135523431Y-113779700D01*
X135301365Y-113816756D01*
X135301362Y-113816756D01*
X135301362Y-113816757D01*
X135088426Y-113889857D01*
X134890421Y-113997012D01*
X134712762Y-114135291D01*
X134560278Y-114300931D01*
X134471483Y-114436843D01*
X134425969Y-114478741D01*
X134366000Y-114493927D01*
X134306031Y-114478741D01*
X134260517Y-114436843D01*
X134171721Y-114300931D01*
X134019237Y-114135291D01*
X133935478Y-114070098D01*
X133902387Y-114031245D01*
X133887422Y-113982454D01*
X133893035Y-113931737D01*
X133915777Y-113861746D01*
X133934091Y-113687497D01*
X133915777Y-113513248D01*
X133861634Y-113346615D01*
X133861633Y-113346614D01*
X133861633Y-113346612D01*
X133774032Y-113194882D01*
X133774031Y-113194881D01*
X133774030Y-113194879D01*
X133656792Y-113064674D01*
X133650733Y-113060272D01*
X133515047Y-112961690D01*
X133515046Y-112961689D01*
X133354984Y-112890425D01*
X133183604Y-112853997D01*
X133008396Y-112853997D01*
X132894142Y-112878282D01*
X132837015Y-112890425D01*
X132676953Y-112961690D01*
X132583025Y-113029933D01*
X132547900Y-113047830D01*
X132508964Y-113053997D01*
X129462296Y-113053997D01*
X129438687Y-113051765D01*
X129435327Y-113051124D01*
X129430594Y-113050221D01*
X129374552Y-113053748D01*
X129366640Y-113053997D01*
X129350642Y-113053997D01*
X129334778Y-113056000D01*
X129326907Y-113056744D01*
X129270851Y-113060271D01*
X129263010Y-113062819D01*
X129239879Y-113067990D01*
X129231706Y-113069022D01*
X129179507Y-113089689D01*
X129172065Y-113092368D01*
X129118629Y-113109731D01*
X129111662Y-113114153D01*
X129090541Y-113124914D01*
X129082888Y-113127944D01*
X129082887Y-113127944D01*
X129082886Y-113127945D01*
X129053098Y-113149585D01*
X129037458Y-113160949D01*
X129030917Y-113165393D01*
X128983487Y-113195494D01*
X128977839Y-113201509D01*
X128960061Y-113217182D01*
X128953394Y-113222025D01*
X128917600Y-113265293D01*
X128912369Y-113271227D01*
X128873914Y-113312178D01*
X128869945Y-113319398D01*
X128856624Y-113339000D01*
X128851371Y-113345349D01*
X128827450Y-113396182D01*
X128823859Y-113403229D01*
X128794397Y-113456822D01*
X128773076Y-113485218D01*
X128594459Y-113663835D01*
X128539566Y-113696009D01*
X128475950Y-113697259D01*
X128252711Y-113643665D01*
X128016000Y-113625035D01*
X127779288Y-113643664D01*
X127548405Y-113699095D01*
X127329033Y-113789961D01*
X127126584Y-113914023D01*
X126946030Y-114068230D01*
X126791823Y-114248784D01*
X126667761Y-114451233D01*
X126576895Y-114670605D01*
X126521464Y-114901488D01*
X126502835Y-115138200D01*
X122126278Y-115138200D01*
X122092134Y-115111625D01*
X121873801Y-114993469D01*
X121639000Y-114912863D01*
X121524000Y-114893673D01*
X121016000Y-114893673D01*
X120900999Y-114912863D01*
X120666198Y-114993469D01*
X120447865Y-115111625D01*
X120251951Y-115264111D01*
X120083819Y-115446752D01*
X119948030Y-115654591D01*
X119848310Y-115881931D01*
X119787368Y-116122587D01*
X119772000Y-116308047D01*
X119772000Y-117106000D01*
X117768500Y-117106000D01*
X117768500Y-115331362D01*
X117761989Y-115270799D01*
X117710889Y-115133796D01*
X117701465Y-115121207D01*
X117623261Y-115016738D01*
X117506205Y-114929111D01*
X117411192Y-114893673D01*
X117369201Y-114878011D01*
X117308638Y-114871500D01*
X115231362Y-114871500D01*
X115170799Y-114878011D01*
X115033794Y-114929111D01*
X114916738Y-115016738D01*
X114829111Y-115133794D01*
X114778011Y-115270798D01*
X114778011Y-115270799D01*
X114771500Y-115331362D01*
X114771500Y-119388638D01*
X91386420Y-119388638D01*
X91389212Y-119312235D01*
X91389143Y-119311611D01*
X91363181Y-119075652D01*
X91359586Y-119042982D01*
X91291072Y-118780912D01*
X91185130Y-118531610D01*
X91044018Y-118300390D01*
X90870745Y-118092180D01*
X90765759Y-117998112D01*
X90669006Y-117911421D01*
X90669003Y-117911419D01*
X90669002Y-117911418D01*
X90443090Y-117761956D01*
X90443086Y-117761954D01*
X90197828Y-117646981D01*
X89938425Y-117568938D01*
X89670442Y-117529500D01*
X89670439Y-117529500D01*
X89467369Y-117529500D01*
X89433614Y-117531970D01*
X89264839Y-117544323D01*
X89000449Y-117603219D01*
X88747441Y-117699985D01*
X88511225Y-117832557D01*
X88296820Y-117998114D01*
X88108815Y-118193117D01*
X87951200Y-118413422D01*
X87827342Y-118654328D01*
X87739882Y-118910693D01*
X87690681Y-119177065D01*
X87680787Y-119447766D01*
X83185000Y-119447766D01*
X83185000Y-114707923D01*
X95423679Y-114707923D01*
X95423680Y-114707924D01*
X95591322Y-114844310D01*
X95826026Y-114987036D01*
X96077989Y-115096480D01*
X96342513Y-115170596D01*
X96614645Y-115208000D01*
X96889355Y-115208000D01*
X97161486Y-115170596D01*
X97426010Y-115096480D01*
X97677973Y-114987036D01*
X97912681Y-114844308D01*
X98080318Y-114707924D01*
X98080319Y-114707923D01*
X108563679Y-114707923D01*
X108563680Y-114707924D01*
X108731322Y-114844310D01*
X108966026Y-114987036D01*
X109217989Y-115096480D01*
X109482513Y-115170596D01*
X109754645Y-115208000D01*
X110029355Y-115208000D01*
X110301486Y-115170596D01*
X110566010Y-115096480D01*
X110817973Y-114987036D01*
X111052681Y-114844308D01*
X111220318Y-114707924D01*
X111220319Y-114707923D01*
X109892001Y-113379605D01*
X109891999Y-113379605D01*
X108563679Y-114707923D01*
X98080319Y-114707923D01*
X96752001Y-113379605D01*
X96751999Y-113379605D01*
X95423679Y-114707923D01*
X83185000Y-114707923D01*
X83185000Y-113200000D01*
X94739308Y-113200000D01*
X94758053Y-113474056D01*
X94813945Y-113743020D01*
X94905936Y-114001860D01*
X95032318Y-114245765D01*
X95190729Y-114470183D01*
X95244565Y-114527827D01*
X95244567Y-114527827D01*
X96572395Y-113200001D01*
X96572395Y-113199999D01*
X95244566Y-111872171D01*
X95244565Y-111872171D01*
X95190732Y-111929814D01*
X95032316Y-112154238D01*
X94905936Y-112398139D01*
X94813945Y-112656979D01*
X94758053Y-112925943D01*
X94739308Y-113200000D01*
X83185000Y-113200000D01*
X83185000Y-111692075D01*
X95423679Y-111692075D01*
X96752000Y-113020395D01*
X98259431Y-114527827D01*
X98259433Y-114527827D01*
X98313270Y-114470182D01*
X98471681Y-114245765D01*
X98598063Y-114001860D01*
X98690054Y-113743020D01*
X98745946Y-113474056D01*
X98764691Y-113200000D01*
X98745946Y-112925943D01*
X98690054Y-112656979D01*
X98604658Y-112416695D01*
X98598557Y-112357343D01*
X98620445Y-112301838D01*
X98665415Y-112262626D01*
X98723383Y-112248500D01*
X101120638Y-112248500D01*
X101181201Y-112241989D01*
X101318204Y-112190889D01*
X101435261Y-112103261D01*
X101522889Y-111986204D01*
X101573989Y-111849201D01*
X101580500Y-111788638D01*
X101580500Y-111785783D01*
X101581028Y-111783719D01*
X101581222Y-111781923D01*
X101581482Y-111781950D01*
X101596032Y-111725178D01*
X101638800Y-111679516D01*
X101698259Y-111660053D01*
X101759748Y-111671587D01*
X101872757Y-111724284D01*
X102093913Y-111783543D01*
X102322000Y-111803498D01*
X102550087Y-111783543D01*
X102771243Y-111724284D01*
X102978749Y-111627523D01*
X103166300Y-111496198D01*
X103232906Y-111429591D01*
X103289389Y-111396981D01*
X103354611Y-111396981D01*
X103411093Y-111429591D01*
X103477700Y-111496198D01*
X103553969Y-111549602D01*
X103665249Y-111627522D01*
X103872756Y-111724284D01*
X103932014Y-111740162D01*
X104093913Y-111783543D01*
X104322000Y-111803498D01*
X104550087Y-111783543D01*
X104771243Y-111724284D01*
X104884750Y-111671354D01*
X104946241Y-111659820D01*
X105005700Y-111679283D01*
X105048468Y-111724945D01*
X105063063Y-111781897D01*
X105063278Y-111781874D01*
X105063437Y-111783353D01*
X105064000Y-111785550D01*
X105064000Y-111788589D01*
X105070505Y-111849093D01*
X105121554Y-111985962D01*
X105209095Y-112102904D01*
X105326037Y-112190445D01*
X105462906Y-112241494D01*
X105523411Y-112248000D01*
X106695000Y-112248000D01*
X106695000Y-110617000D01*
X106949000Y-110617000D01*
X106949000Y-112248000D01*
X107920794Y-112248000D01*
X107978762Y-112262126D01*
X108023732Y-112301338D01*
X108045620Y-112356843D01*
X108039519Y-112416194D01*
X107953945Y-112656976D01*
X107898053Y-112925943D01*
X107879308Y-113200000D01*
X107898053Y-113474056D01*
X107953945Y-113743020D01*
X108045936Y-114001860D01*
X108172318Y-114245765D01*
X108330729Y-114470183D01*
X108384565Y-114527827D01*
X108384567Y-114527827D01*
X109712393Y-113200001D01*
X110071605Y-113200001D01*
X111399431Y-114527827D01*
X111399433Y-114527827D01*
X111453270Y-114470182D01*
X111611681Y-114245765D01*
X111738063Y-114001860D01*
X111830054Y-113743020D01*
X111885946Y-113474056D01*
X111904691Y-113200000D01*
X111885946Y-112925943D01*
X111830054Y-112656979D01*
X111738063Y-112398139D01*
X111611681Y-112154234D01*
X111453270Y-111929816D01*
X111399433Y-111872171D01*
X111399431Y-111872171D01*
X110071605Y-113199999D01*
X110071605Y-113200001D01*
X109712393Y-113200001D01*
X111220319Y-111692075D01*
X111052677Y-111555689D01*
X110817973Y-111412963D01*
X110566010Y-111303519D01*
X110301486Y-111229403D01*
X110029355Y-111192000D01*
X109754645Y-111192000D01*
X109482513Y-111229403D01*
X109217989Y-111303519D01*
X108966026Y-111412963D01*
X108771467Y-111531277D01*
X108708151Y-111549602D01*
X108644246Y-111533449D01*
X108597241Y-111487240D01*
X108580000Y-111423620D01*
X108580000Y-110617000D01*
X106949000Y-110617000D01*
X106695000Y-110617000D01*
X106695000Y-108732000D01*
X106949000Y-108732000D01*
X106949000Y-110363000D01*
X108580000Y-110363000D01*
X108580000Y-109191411D01*
X108573494Y-109130906D01*
X108522445Y-108994037D01*
X108434904Y-108877095D01*
X108317962Y-108789554D01*
X108181093Y-108738505D01*
X108120589Y-108732000D01*
X106949000Y-108732000D01*
X106695000Y-108732000D01*
X105523411Y-108732000D01*
X105462906Y-108738505D01*
X105326037Y-108789554D01*
X105209095Y-108877095D01*
X105121554Y-108994037D01*
X105070505Y-109130906D01*
X105064000Y-109191411D01*
X105064000Y-109194450D01*
X105063437Y-109196646D01*
X105063278Y-109198126D01*
X105063063Y-109198102D01*
X105048468Y-109255055D01*
X105005700Y-109300717D01*
X104946241Y-109320180D01*
X104884750Y-109308645D01*
X104884250Y-109308412D01*
X104857939Y-109296142D01*
X104771242Y-109255715D01*
X104550087Y-109196457D01*
X104322000Y-109176502D01*
X104093912Y-109196457D01*
X103872756Y-109255715D01*
X103665249Y-109352477D01*
X103477696Y-109483804D01*
X103411095Y-109550406D01*
X103354611Y-109583018D01*
X103289389Y-109583018D01*
X103232905Y-109550406D01*
X103166303Y-109483804D01*
X102978750Y-109352477D01*
X102771243Y-109255715D01*
X102550087Y-109196457D01*
X102322000Y-109176502D01*
X102093912Y-109196457D01*
X101872757Y-109255715D01*
X101786972Y-109295717D01*
X101759748Y-109308412D01*
X101698259Y-109319947D01*
X101638800Y-109300484D01*
X101596032Y-109254822D01*
X101581482Y-109198049D01*
X101581222Y-109198077D01*
X101581028Y-109196280D01*
X101580500Y-109194217D01*
X101580500Y-109191362D01*
X101578902Y-109176502D01*
X101573989Y-109130799D01*
X101522889Y-108993796D01*
X101522888Y-108993794D01*
X101435261Y-108876738D01*
X101318205Y-108789111D01*
X101249702Y-108763560D01*
X101181201Y-108738011D01*
X101120638Y-108731500D01*
X98523362Y-108731500D01*
X98462799Y-108738011D01*
X98325794Y-108789111D01*
X98208738Y-108876738D01*
X98121111Y-108993794D01*
X98070011Y-109130799D01*
X98063500Y-109191362D01*
X98063500Y-111423316D01*
X98046259Y-111486936D01*
X97999254Y-111533145D01*
X97935349Y-111549298D01*
X97872033Y-111530973D01*
X97677973Y-111412963D01*
X97426010Y-111303519D01*
X97161486Y-111229403D01*
X96889355Y-111192000D01*
X96614645Y-111192000D01*
X96342513Y-111229403D01*
X96077989Y-111303519D01*
X95826026Y-111412963D01*
X95591322Y-111555689D01*
X95423680Y-111692075D01*
X95423679Y-111692075D01*
X83185000Y-111692075D01*
X83185000Y-101735405D01*
X85499198Y-101735405D01*
X85499199Y-101735406D01*
X85550831Y-101783314D01*
X85768534Y-101931741D01*
X86005928Y-102046065D01*
X86257708Y-102123728D01*
X86518258Y-102163000D01*
X86781742Y-102163000D01*
X87042291Y-102123728D01*
X87294071Y-102046065D01*
X87531465Y-101931741D01*
X87749165Y-101783316D01*
X87800799Y-101735406D01*
X86650000Y-100584605D01*
X86649999Y-100584605D01*
X85499198Y-101735405D01*
X83185000Y-101735405D01*
X83185000Y-100404999D01*
X84887070Y-100404999D01*
X84906760Y-100667752D01*
X84965392Y-100924634D01*
X85061655Y-101169907D01*
X85193397Y-101398090D01*
X85319355Y-101556037D01*
X85319356Y-101556037D01*
X86470394Y-100405001D01*
X86470394Y-100405000D01*
X86829605Y-100405000D01*
X87980643Y-101556038D01*
X87980644Y-101556037D01*
X88106600Y-101398096D01*
X88238344Y-101169908D01*
X88334607Y-100924634D01*
X88393239Y-100667752D01*
X88412929Y-100404999D01*
X89636835Y-100404999D01*
X89655464Y-100641711D01*
X89710895Y-100872594D01*
X89801761Y-101091966D01*
X89925823Y-101294415D01*
X90080030Y-101474969D01*
X90260584Y-101629176D01*
X90463033Y-101753238D01*
X90463035Y-101753238D01*
X90463037Y-101753240D01*
X90682406Y-101844105D01*
X90857857Y-101886227D01*
X90913288Y-101899535D01*
X90930558Y-101900894D01*
X91150000Y-101918165D01*
X91386711Y-101899535D01*
X91617594Y-101844105D01*
X91836963Y-101753240D01*
X92039416Y-101629176D01*
X92219969Y-101474969D01*
X92374176Y-101294416D01*
X92498240Y-101091963D01*
X92589105Y-100872594D01*
X92644535Y-100641711D01*
X92663165Y-100405000D01*
X92644535Y-100168289D01*
X92637011Y-100136951D01*
X92631227Y-100112858D01*
X92589105Y-99937406D01*
X92498240Y-99718037D01*
X92374176Y-99515584D01*
X92219969Y-99335030D01*
X92039415Y-99180823D01*
X91836966Y-99056761D01*
X91617594Y-98965895D01*
X91386711Y-98910464D01*
X91150000Y-98891835D01*
X90913288Y-98910464D01*
X90682405Y-98965895D01*
X90463033Y-99056761D01*
X90260584Y-99180823D01*
X90080030Y-99335030D01*
X89925823Y-99515584D01*
X89801761Y-99718033D01*
X89710895Y-99937405D01*
X89655464Y-100168288D01*
X89636835Y-100404999D01*
X88412929Y-100404999D01*
X88393239Y-100142247D01*
X88334607Y-99885365D01*
X88238344Y-99640092D01*
X88106602Y-99411909D01*
X87980643Y-99253961D01*
X87980642Y-99253961D01*
X86829605Y-100404998D01*
X86829605Y-100405000D01*
X86470394Y-100405000D01*
X86470394Y-100404999D01*
X85319356Y-99253961D01*
X85319354Y-99253961D01*
X85193399Y-99411905D01*
X85061655Y-99640092D01*
X84965392Y-99885365D01*
X84906760Y-100142247D01*
X84887070Y-100404999D01*
X83185000Y-100404999D01*
X83185000Y-99074594D01*
X85499198Y-99074594D01*
X86649998Y-100225394D01*
X86650000Y-100225394D01*
X87800800Y-99074593D01*
X87800799Y-99074592D01*
X87749168Y-99026685D01*
X87531465Y-98878258D01*
X87294071Y-98763934D01*
X87042291Y-98686271D01*
X86781742Y-98647000D01*
X86518258Y-98647000D01*
X86257708Y-98686271D01*
X86005928Y-98763934D01*
X85768534Y-98878258D01*
X85550830Y-99026685D01*
X85499198Y-99074592D01*
X85499198Y-99074594D01*
X83185000Y-99074594D01*
X83185000Y-98424999D01*
X122811619Y-98424999D01*
X122831091Y-98622701D01*
X122888758Y-98812802D01*
X122982406Y-98988007D01*
X123108431Y-99141568D01*
X123261992Y-99267593D01*
X123261996Y-99267595D01*
X123437196Y-99361241D01*
X123532247Y-99390074D01*
X123627298Y-99418908D01*
X123775450Y-99433500D01*
X123775453Y-99433500D01*
X126414547Y-99433500D01*
X126414550Y-99433500D01*
X126562701Y-99418908D01*
X126580568Y-99413488D01*
X126752804Y-99361241D01*
X126928004Y-99267595D01*
X126928005Y-99267593D01*
X126928007Y-99267593D01*
X127081568Y-99141568D01*
X127207593Y-98988007D01*
X127219594Y-98965555D01*
X127301241Y-98812804D01*
X127358908Y-98622701D01*
X127378380Y-98425000D01*
X127378380Y-98424999D01*
X129796619Y-98424999D01*
X129816091Y-98622701D01*
X129873758Y-98812802D01*
X129967406Y-98988007D01*
X130093431Y-99141568D01*
X130246992Y-99267593D01*
X130246996Y-99267595D01*
X130422196Y-99361241D01*
X130517247Y-99390074D01*
X130612298Y-99418908D01*
X130760450Y-99433500D01*
X130760453Y-99433500D01*
X133399547Y-99433500D01*
X133399550Y-99433500D01*
X133547701Y-99418908D01*
X133565568Y-99413488D01*
X133737804Y-99361241D01*
X133913004Y-99267595D01*
X133913005Y-99267593D01*
X133913007Y-99267593D01*
X134066568Y-99141568D01*
X134192593Y-98988007D01*
X134204594Y-98965555D01*
X134286241Y-98812804D01*
X134343908Y-98622701D01*
X134363380Y-98425000D01*
X134343908Y-98227299D01*
X134286241Y-98037196D01*
X134192595Y-97861996D01*
X134192593Y-97861992D01*
X134066568Y-97708431D01*
X133913007Y-97582406D01*
X133737802Y-97488758D01*
X133547701Y-97431091D01*
X133399550Y-97416500D01*
X133399547Y-97416500D01*
X130760453Y-97416500D01*
X130760450Y-97416500D01*
X130612298Y-97431091D01*
X130422197Y-97488758D01*
X130246992Y-97582406D01*
X130093431Y-97708431D01*
X129967406Y-97861992D01*
X129873758Y-98037197D01*
X129816091Y-98227298D01*
X129796619Y-98424999D01*
X127378380Y-98424999D01*
X127358908Y-98227299D01*
X127301241Y-98037196D01*
X127207595Y-97861996D01*
X127207593Y-97861992D01*
X127081568Y-97708431D01*
X126928007Y-97582406D01*
X126752802Y-97488758D01*
X126562701Y-97431091D01*
X126414550Y-97416500D01*
X126414547Y-97416500D01*
X123775453Y-97416500D01*
X123775450Y-97416500D01*
X123627298Y-97431091D01*
X123437197Y-97488758D01*
X123261992Y-97582406D01*
X123108431Y-97708431D01*
X122982406Y-97861992D01*
X122888758Y-98037197D01*
X122831091Y-98227298D01*
X122811619Y-98424999D01*
X83185000Y-98424999D01*
X83185000Y-95235405D01*
X85499198Y-95235405D01*
X85499199Y-95235406D01*
X85550831Y-95283314D01*
X85768534Y-95431741D01*
X86005928Y-95546065D01*
X86257708Y-95623728D01*
X86518258Y-95663000D01*
X86781742Y-95663000D01*
X87042291Y-95623728D01*
X87294071Y-95546065D01*
X87531465Y-95431741D01*
X87749165Y-95283316D01*
X87800799Y-95235406D01*
X86650000Y-94084605D01*
X86649999Y-94084605D01*
X85499198Y-95235405D01*
X83185000Y-95235405D01*
X83185000Y-93905000D01*
X84887070Y-93905000D01*
X84906760Y-94167752D01*
X84965392Y-94424634D01*
X85061655Y-94669907D01*
X85193397Y-94898090D01*
X85319355Y-95056037D01*
X85319356Y-95056037D01*
X86470394Y-93905001D01*
X86829605Y-93905001D01*
X87980643Y-95056038D01*
X87980644Y-95056037D01*
X88106600Y-94898096D01*
X88238344Y-94669908D01*
X88334607Y-94424634D01*
X88393239Y-94167752D01*
X88412929Y-93905000D01*
X89636835Y-93905000D01*
X89655464Y-94141711D01*
X89710895Y-94372594D01*
X89801761Y-94591966D01*
X89925823Y-94794415D01*
X90080030Y-94974969D01*
X90260584Y-95129176D01*
X90463033Y-95253238D01*
X90463035Y-95253238D01*
X90463037Y-95253240D01*
X90682406Y-95344105D01*
X90857858Y-95386227D01*
X90913288Y-95399535D01*
X90930558Y-95400894D01*
X91150000Y-95418165D01*
X91386711Y-95399535D01*
X91617594Y-95344105D01*
X91836963Y-95253240D01*
X91842252Y-95249999D01*
X102031909Y-95249999D01*
X102050223Y-95424250D01*
X102104366Y-95590884D01*
X102191967Y-95742614D01*
X102191968Y-95742616D01*
X102191970Y-95742618D01*
X102309208Y-95872823D01*
X102450954Y-95975808D01*
X102611016Y-96047072D01*
X102782396Y-96083500D01*
X102957602Y-96083500D01*
X102957604Y-96083500D01*
X103128984Y-96047072D01*
X103289046Y-95975808D01*
X103430792Y-95872823D01*
X103548030Y-95742618D01*
X103635634Y-95590882D01*
X103689777Y-95424249D01*
X103708091Y-95250000D01*
X103689777Y-95075751D01*
X103635634Y-94909118D01*
X103635633Y-94909117D01*
X103635633Y-94909115D01*
X103548031Y-94757381D01*
X103535864Y-94743869D01*
X103511869Y-94704713D01*
X103503500Y-94659559D01*
X103503500Y-94250500D01*
X134848709Y-94250500D01*
X134867023Y-94424750D01*
X134921166Y-94591384D01*
X135008767Y-94743114D01*
X135008768Y-94743116D01*
X135008770Y-94743118D01*
X135126008Y-94873323D01*
X135267754Y-94976308D01*
X135427816Y-95047572D01*
X135594696Y-95083043D01*
X135628617Y-95095558D01*
X135657590Y-95117194D01*
X136888253Y-96347857D01*
X136912883Y-96382707D01*
X136924468Y-96423780D01*
X136929720Y-96473751D01*
X136983863Y-96640384D01*
X137071464Y-96792114D01*
X137071465Y-96792116D01*
X137071467Y-96792118D01*
X137188705Y-96922323D01*
X137330451Y-97025308D01*
X137490513Y-97096572D01*
X137661893Y-97133000D01*
X137661895Y-97133000D01*
X137831555Y-97133000D01*
X137898325Y-97152146D01*
X137944803Y-97203765D01*
X137956865Y-97272170D01*
X137943377Y-97400499D01*
X137961691Y-97574750D01*
X138015834Y-97741384D01*
X138103436Y-97893118D01*
X138115604Y-97906631D01*
X138139599Y-97945787D01*
X138147968Y-97990941D01*
X138147968Y-98965555D01*
X138131087Y-99028555D01*
X138084862Y-99108617D01*
X138030720Y-99275249D01*
X138012406Y-99449499D01*
X138030720Y-99623750D01*
X138084863Y-99790384D01*
X138172464Y-99942114D01*
X138172465Y-99942116D01*
X138172467Y-99942118D01*
X138289705Y-100072323D01*
X138431451Y-100175308D01*
X138591513Y-100246572D01*
X138762893Y-100283000D01*
X138938099Y-100283000D01*
X138938101Y-100283000D01*
X139109481Y-100246572D01*
X139224001Y-100195584D01*
X139275248Y-100184691D01*
X139326492Y-100195583D01*
X139441016Y-100246572D01*
X139612396Y-100283000D01*
X139787602Y-100283000D01*
X139787604Y-100283000D01*
X139958984Y-100246572D01*
X140119046Y-100175308D01*
X140260792Y-100072323D01*
X140378030Y-99942118D01*
X140465634Y-99790382D01*
X140519777Y-99623749D01*
X140538091Y-99449500D01*
X140519777Y-99275251D01*
X140465634Y-99108618D01*
X140465633Y-99108617D01*
X140465633Y-99108615D01*
X140378031Y-98956881D01*
X140365864Y-98943369D01*
X140341869Y-98904213D01*
X140333500Y-98859059D01*
X140333500Y-98044000D01*
X148987000Y-98044000D01*
X148987000Y-98838589D01*
X148993505Y-98899093D01*
X149044554Y-99035962D01*
X149132095Y-99152904D01*
X149249037Y-99240445D01*
X149385906Y-99291494D01*
X149446411Y-99298000D01*
X150241000Y-99298000D01*
X150241000Y-98044000D01*
X148987000Y-98044000D01*
X140333500Y-98044000D01*
X140333500Y-97990941D01*
X140341869Y-97945787D01*
X140365864Y-97906631D01*
X140378031Y-97893118D01*
X140465633Y-97741384D01*
X140476340Y-97708432D01*
X140519777Y-97574749D01*
X140538091Y-97400500D01*
X140519777Y-97226251D01*
X140465634Y-97059618D01*
X140465633Y-97059617D01*
X140465633Y-97059615D01*
X140378032Y-96907885D01*
X140378031Y-96907884D01*
X140378030Y-96907882D01*
X140260792Y-96777677D01*
X140119046Y-96674692D01*
X139958984Y-96603428D01*
X139787604Y-96567000D01*
X139612396Y-96567000D01*
X139573959Y-96575169D01*
X139515153Y-96573630D01*
X139463453Y-96545559D01*
X139430133Y-96497077D01*
X139422454Y-96438757D01*
X139437091Y-96299500D01*
X139418777Y-96125251D01*
X139364634Y-95958618D01*
X139364633Y-95958617D01*
X139364633Y-95958615D01*
X139277032Y-95806885D01*
X139277031Y-95806884D01*
X139277030Y-95806882D01*
X139159792Y-95676677D01*
X139140967Y-95663000D01*
X139086914Y-95623728D01*
X139018046Y-95573692D01*
X138857984Y-95502428D01*
X138857980Y-95502426D01*
X138779667Y-95485780D01*
X138745742Y-95473265D01*
X138716770Y-95451629D01*
X138525980Y-95260839D01*
X138512907Y-95244521D01*
X138503200Y-95235406D01*
X138461084Y-95195856D01*
X138458273Y-95193132D01*
X138438506Y-95173365D01*
X138435311Y-95170886D01*
X138426289Y-95163181D01*
X138394056Y-95132913D01*
X138376303Y-95123153D01*
X138359777Y-95112297D01*
X138343777Y-95099886D01*
X138303202Y-95082328D01*
X138292540Y-95077104D01*
X138253799Y-95055805D01*
X138240049Y-95052275D01*
X138234173Y-95050766D01*
X138215467Y-95044362D01*
X138196881Y-95036319D01*
X138153211Y-95029402D01*
X138141589Y-95026995D01*
X138098766Y-95016000D01*
X138098765Y-95016000D01*
X138078512Y-95016000D01*
X138058802Y-95014449D01*
X138023072Y-95008790D01*
X138023172Y-95008157D01*
X137989456Y-95003898D01*
X137943043Y-94974442D01*
X137344949Y-94376348D01*
X137311525Y-94316667D01*
X137314210Y-94248320D01*
X137344777Y-94154249D01*
X137363091Y-93980000D01*
X137344777Y-93805751D01*
X137290634Y-93639118D01*
X137290633Y-93639117D01*
X137290633Y-93639115D01*
X137203032Y-93487385D01*
X137203031Y-93487384D01*
X137203030Y-93487382D01*
X137085792Y-93357177D01*
X136944046Y-93254192D01*
X136783984Y-93182928D01*
X136612604Y-93146500D01*
X136437396Y-93146500D01*
X136323142Y-93170785D01*
X136266015Y-93182928D01*
X136105953Y-93254193D01*
X135964205Y-93357179D01*
X135937180Y-93387193D01*
X135882482Y-93422714D01*
X135817351Y-93426128D01*
X135774405Y-93417000D01*
X135774404Y-93417000D01*
X135599196Y-93417000D01*
X135485099Y-93441252D01*
X135427815Y-93453428D01*
X135267753Y-93524693D01*
X135126008Y-93627676D01*
X135008767Y-93757885D01*
X134921166Y-93909615D01*
X134867023Y-94076249D01*
X134848709Y-94250500D01*
X103503500Y-94250500D01*
X103503500Y-90760441D01*
X103511869Y-90715287D01*
X103535864Y-90676131D01*
X103548031Y-90662618D01*
X103635633Y-90510884D01*
X103663667Y-90424605D01*
X103689777Y-90344249D01*
X103708091Y-90170000D01*
X116611835Y-90170000D01*
X116630464Y-90406711D01*
X116685895Y-90637594D01*
X116776761Y-90856966D01*
X116900823Y-91059415D01*
X117055030Y-91239969D01*
X117235584Y-91394176D01*
X117438033Y-91518238D01*
X117438035Y-91518238D01*
X117438037Y-91518240D01*
X117657406Y-91609105D01*
X117832858Y-91651227D01*
X117888288Y-91664535D01*
X117905558Y-91665894D01*
X118125000Y-91683165D01*
X118361711Y-91664535D01*
X118592594Y-91609105D01*
X118811963Y-91518240D01*
X119014416Y-91394176D01*
X119194969Y-91239969D01*
X119299517Y-91117558D01*
X119342578Y-91084962D01*
X119395329Y-91073388D01*
X119448080Y-91084962D01*
X119491140Y-91117558D01*
X119595385Y-91239614D01*
X119775879Y-91393770D01*
X119978261Y-91517791D01*
X120197559Y-91608627D01*
X120428366Y-91664040D01*
X120537999Y-91672668D01*
X120538000Y-91672668D01*
X120792000Y-91672668D01*
X120901633Y-91664040D01*
X121132440Y-91608627D01*
X121351738Y-91517791D01*
X121554120Y-91393770D01*
X121734614Y-91239614D01*
X121838860Y-91117558D01*
X121881920Y-91084962D01*
X121934671Y-91073388D01*
X121987422Y-91084962D01*
X122030482Y-91117558D01*
X122135030Y-91239969D01*
X122315584Y-91394176D01*
X122518033Y-91518238D01*
X122518035Y-91518238D01*
X122518037Y-91518240D01*
X122737406Y-91609105D01*
X122912858Y-91651227D01*
X122968288Y-91664535D01*
X122985558Y-91665894D01*
X123205000Y-91683165D01*
X123441711Y-91664535D01*
X123672594Y-91609105D01*
X123891963Y-91518240D01*
X124094416Y-91394176D01*
X124274969Y-91239969D01*
X124289744Y-91222668D01*
X124332806Y-91190074D01*
X124385556Y-91178500D01*
X126414550Y-91178500D01*
X126562701Y-91163908D01*
X126562700Y-91163908D01*
X126752804Y-91106241D01*
X126928004Y-91012595D01*
X126928005Y-91012593D01*
X126928007Y-91012593D01*
X127081568Y-90886568D01*
X127207593Y-90733007D01*
X127207595Y-90733004D01*
X127301241Y-90557804D01*
X127358908Y-90367701D01*
X127378380Y-90170000D01*
X127358908Y-89972299D01*
X127347074Y-89933289D01*
X127330074Y-89877247D01*
X127301241Y-89782196D01*
X127207595Y-89606996D01*
X127207593Y-89606992D01*
X127081568Y-89453431D01*
X126928007Y-89327406D01*
X126752802Y-89233758D01*
X126562701Y-89176091D01*
X126414550Y-89161500D01*
X126414547Y-89161500D01*
X124385556Y-89161500D01*
X124332806Y-89149926D01*
X124289746Y-89117332D01*
X124275271Y-89100385D01*
X124274969Y-89100031D01*
X124274965Y-89100028D01*
X124094415Y-88945823D01*
X123891966Y-88821761D01*
X123672594Y-88730895D01*
X123441711Y-88675464D01*
X123205000Y-88656835D01*
X122968288Y-88675464D01*
X122737405Y-88730895D01*
X122518033Y-88821761D01*
X122315584Y-88945823D01*
X122135033Y-89100028D01*
X122030481Y-89222442D01*
X121987421Y-89255037D01*
X121934669Y-89266611D01*
X121881919Y-89255037D01*
X121838859Y-89222441D01*
X121734614Y-89100385D01*
X121554120Y-88946229D01*
X121351738Y-88822208D01*
X121132440Y-88731372D01*
X120901633Y-88675959D01*
X120792000Y-88667331D01*
X120792000Y-91672668D01*
X120538000Y-91672668D01*
X120538000Y-88667332D01*
X120537999Y-88667331D01*
X120428366Y-88675959D01*
X120197559Y-88731372D01*
X119978261Y-88822208D01*
X119775879Y-88946229D01*
X119595388Y-89100383D01*
X119491140Y-89222442D01*
X119448080Y-89255037D01*
X119395329Y-89266611D01*
X119342578Y-89255037D01*
X119299518Y-89222442D01*
X119259024Y-89175030D01*
X119194969Y-89100031D01*
X119194967Y-89100029D01*
X119194966Y-89100028D01*
X119014415Y-88945823D01*
X118811966Y-88821761D01*
X118592594Y-88730895D01*
X118361711Y-88675464D01*
X118125000Y-88656835D01*
X117888288Y-88675464D01*
X117657405Y-88730895D01*
X117438033Y-88821761D01*
X117235584Y-88945823D01*
X117055030Y-89100030D01*
X116900823Y-89280584D01*
X116776761Y-89483033D01*
X116685895Y-89702405D01*
X116630464Y-89933288D01*
X116611835Y-90170000D01*
X103708091Y-90170000D01*
X103689777Y-89995751D01*
X103635634Y-89829118D01*
X103635633Y-89829117D01*
X103635633Y-89829115D01*
X103548032Y-89677385D01*
X103548031Y-89677384D01*
X103548030Y-89677382D01*
X103430792Y-89547177D01*
X103289046Y-89444192D01*
X103128984Y-89372928D01*
X102957604Y-89336500D01*
X102782396Y-89336500D01*
X102692613Y-89355584D01*
X102611015Y-89372928D01*
X102450953Y-89444193D01*
X102309208Y-89547176D01*
X102191967Y-89677385D01*
X102104366Y-89829115D01*
X102050223Y-89995749D01*
X102031909Y-90169999D01*
X102050223Y-90344250D01*
X102104366Y-90510884D01*
X102191968Y-90662618D01*
X102204136Y-90676131D01*
X102228131Y-90715287D01*
X102236500Y-90760441D01*
X102236500Y-94659559D01*
X102228131Y-94704713D01*
X102204136Y-94743869D01*
X102191968Y-94757381D01*
X102104366Y-94909115D01*
X102050223Y-95075749D01*
X102031909Y-95249999D01*
X91842252Y-95249999D01*
X92039416Y-95129176D01*
X92219969Y-94974969D01*
X92374176Y-94794416D01*
X92498240Y-94591963D01*
X92589105Y-94372594D01*
X92644535Y-94141711D01*
X92663165Y-93905000D01*
X92644535Y-93668289D01*
X92589105Y-93437406D01*
X92498240Y-93218037D01*
X92374176Y-93015584D01*
X92219969Y-92835030D01*
X92039415Y-92680823D01*
X91836966Y-92556761D01*
X91617594Y-92465895D01*
X91386711Y-92410464D01*
X91150000Y-92391835D01*
X90913288Y-92410464D01*
X90682405Y-92465895D01*
X90463033Y-92556761D01*
X90260584Y-92680823D01*
X90080030Y-92835030D01*
X89925823Y-93015584D01*
X89801761Y-93218033D01*
X89710895Y-93437405D01*
X89655464Y-93668288D01*
X89636835Y-93905000D01*
X88412929Y-93905000D01*
X88393239Y-93642247D01*
X88334607Y-93385365D01*
X88238344Y-93140092D01*
X88106602Y-92911909D01*
X87980643Y-92753961D01*
X87980642Y-92753961D01*
X86829605Y-93904999D01*
X86829605Y-93905001D01*
X86470394Y-93905001D01*
X86470394Y-93904999D01*
X85319356Y-92753961D01*
X85319354Y-92753961D01*
X85193399Y-92911905D01*
X85061655Y-93140092D01*
X84965392Y-93385365D01*
X84906760Y-93642247D01*
X84887070Y-93905000D01*
X83185000Y-93905000D01*
X83185000Y-92574593D01*
X85499198Y-92574593D01*
X86649999Y-93725394D01*
X86650001Y-93725394D01*
X87800800Y-92574594D01*
X87800799Y-92574592D01*
X87749168Y-92526685D01*
X87531465Y-92378258D01*
X87294071Y-92263934D01*
X87071893Y-92195402D01*
X87017960Y-92162074D01*
X86987085Y-92106700D01*
X86987085Y-92043300D01*
X87017960Y-91987926D01*
X87071893Y-91954598D01*
X87294071Y-91886065D01*
X87531465Y-91771741D01*
X87749165Y-91623316D01*
X87800799Y-91575406D01*
X86650000Y-90424605D01*
X86649999Y-90424605D01*
X85499198Y-91575405D01*
X85499199Y-91575406D01*
X85550831Y-91623314D01*
X85768534Y-91771741D01*
X86005928Y-91886065D01*
X86228106Y-91954598D01*
X86282039Y-91987926D01*
X86312914Y-92043300D01*
X86312914Y-92106700D01*
X86282039Y-92162074D01*
X86228106Y-92195402D01*
X86005928Y-92263934D01*
X85768534Y-92378258D01*
X85550830Y-92526685D01*
X85499198Y-92574592D01*
X85499198Y-92574593D01*
X83185000Y-92574593D01*
X83185000Y-90244999D01*
X84887070Y-90244999D01*
X84906760Y-90507752D01*
X84965392Y-90764634D01*
X85061655Y-91009907D01*
X85193397Y-91238090D01*
X85319355Y-91396037D01*
X85319356Y-91396037D01*
X86470394Y-90245001D01*
X86829605Y-90245001D01*
X87980643Y-91396038D01*
X87980644Y-91396037D01*
X88106600Y-91238096D01*
X88238344Y-91009908D01*
X88334607Y-90764634D01*
X88393239Y-90507752D01*
X88412929Y-90245000D01*
X89636835Y-90245000D01*
X89655464Y-90481711D01*
X89710895Y-90712594D01*
X89801761Y-90931966D01*
X89925823Y-91134415D01*
X90080030Y-91314969D01*
X90260584Y-91469176D01*
X90463033Y-91593238D01*
X90463035Y-91593238D01*
X90463037Y-91593240D01*
X90682406Y-91684105D01*
X90857858Y-91726227D01*
X90913288Y-91739535D01*
X90930558Y-91740894D01*
X91150000Y-91758165D01*
X91386711Y-91739535D01*
X91617594Y-91684105D01*
X91836963Y-91593240D01*
X92039416Y-91469176D01*
X92219969Y-91314969D01*
X92374176Y-91134416D01*
X92498240Y-90931963D01*
X92589105Y-90712594D01*
X92644535Y-90481711D01*
X92663165Y-90245000D01*
X92644535Y-90008289D01*
X92641524Y-89995749D01*
X92624418Y-89924497D01*
X92589105Y-89777406D01*
X92498240Y-89558037D01*
X92491584Y-89547176D01*
X92374176Y-89355584D01*
X92219969Y-89175030D01*
X92039415Y-89020823D01*
X91836966Y-88896761D01*
X91617594Y-88805895D01*
X91386711Y-88750464D01*
X91150000Y-88731835D01*
X90913288Y-88750464D01*
X90682405Y-88805895D01*
X90463033Y-88896761D01*
X90260584Y-89020823D01*
X90080030Y-89175030D01*
X89925823Y-89355584D01*
X89801761Y-89558033D01*
X89710895Y-89777405D01*
X89655464Y-90008288D01*
X89636835Y-90245000D01*
X88412929Y-90245000D01*
X88412929Y-90244999D01*
X88393239Y-89982247D01*
X88334607Y-89725365D01*
X88238344Y-89480092D01*
X88106602Y-89251909D01*
X87980643Y-89093961D01*
X87980642Y-89093961D01*
X86829605Y-90244999D01*
X86829605Y-90245001D01*
X86470394Y-90245001D01*
X86470394Y-90244999D01*
X85319356Y-89093961D01*
X85319354Y-89093961D01*
X85193399Y-89251905D01*
X85061655Y-89480092D01*
X84965392Y-89725365D01*
X84906760Y-89982247D01*
X84887070Y-90244999D01*
X83185000Y-90244999D01*
X83185000Y-88914593D01*
X85499198Y-88914593D01*
X86649999Y-90065394D01*
X86650001Y-90065394D01*
X87800800Y-88914594D01*
X87800799Y-88914592D01*
X87749168Y-88866685D01*
X87531465Y-88718258D01*
X87294071Y-88603934D01*
X87042291Y-88526271D01*
X86781742Y-88487000D01*
X86518258Y-88487000D01*
X86257708Y-88526271D01*
X86005928Y-88603934D01*
X85768534Y-88718258D01*
X85550830Y-88866685D01*
X85499198Y-88914592D01*
X85499198Y-88914593D01*
X83185000Y-88914593D01*
X83185000Y-83872000D01*
X84896587Y-83872000D01*
X84906760Y-84007751D01*
X84965392Y-84264634D01*
X85061655Y-84509907D01*
X85193397Y-84738090D01*
X85357680Y-84944095D01*
X85550834Y-85123317D01*
X85768534Y-85271741D01*
X86005928Y-85386065D01*
X86257708Y-85463728D01*
X86518258Y-85503000D01*
X86523000Y-85503000D01*
X86523000Y-83872000D01*
X86777000Y-83872000D01*
X86777000Y-85503000D01*
X86781742Y-85503000D01*
X87042291Y-85463728D01*
X87294071Y-85386065D01*
X87531465Y-85271741D01*
X87749165Y-85123317D01*
X87942319Y-84944095D01*
X88106602Y-84738090D01*
X88238344Y-84509907D01*
X88334607Y-84264634D01*
X88393239Y-84007751D01*
X88403413Y-83872000D01*
X86777000Y-83872000D01*
X86523000Y-83872000D01*
X84896587Y-83872000D01*
X83185000Y-83872000D01*
X83185000Y-83745000D01*
X89636835Y-83745000D01*
X89655464Y-83981711D01*
X89710895Y-84212594D01*
X89801761Y-84431966D01*
X89925823Y-84634415D01*
X90080030Y-84814969D01*
X90260584Y-84969176D01*
X90456335Y-85089134D01*
X90500435Y-85135000D01*
X90516500Y-85196566D01*
X90516500Y-85599059D01*
X90508131Y-85644213D01*
X90484136Y-85683369D01*
X90471968Y-85696881D01*
X90384366Y-85848615D01*
X90330223Y-86015249D01*
X90311909Y-86189500D01*
X90330223Y-86363750D01*
X90384366Y-86530384D01*
X90471967Y-86682114D01*
X90471968Y-86682116D01*
X90471970Y-86682118D01*
X90589208Y-86812323D01*
X90730954Y-86915308D01*
X90891016Y-86986572D01*
X91062396Y-87023000D01*
X91237602Y-87023000D01*
X91237604Y-87023000D01*
X91408984Y-86986572D01*
X91569046Y-86915308D01*
X91710792Y-86812323D01*
X91828030Y-86682118D01*
X91913401Y-86534250D01*
X91915633Y-86530384D01*
X91915634Y-86530382D01*
X91969777Y-86363749D01*
X91988091Y-86189500D01*
X91969777Y-86015251D01*
X91915634Y-85848618D01*
X91915633Y-85848617D01*
X91915633Y-85848615D01*
X91828031Y-85696881D01*
X91815864Y-85683369D01*
X91791869Y-85644213D01*
X91783500Y-85599059D01*
X91783500Y-85196566D01*
X91799565Y-85135000D01*
X91843665Y-85089134D01*
X91865913Y-85075500D01*
X93776909Y-85075500D01*
X93795223Y-85249750D01*
X93837962Y-85381287D01*
X93849366Y-85416382D01*
X93856762Y-85429193D01*
X93861624Y-85437614D01*
X93878504Y-85500613D01*
X93861624Y-85563612D01*
X93849783Y-85584121D01*
X93795641Y-85750751D01*
X93777327Y-85925001D01*
X93777327Y-85925002D01*
X93786483Y-86012126D01*
X93795641Y-86099252D01*
X93849784Y-86265886D01*
X93937385Y-86417616D01*
X93937386Y-86417618D01*
X93937388Y-86417620D01*
X94054626Y-86547825D01*
X94196372Y-86650810D01*
X94356434Y-86722074D01*
X94527814Y-86758502D01*
X94703020Y-86758502D01*
X94703022Y-86758502D01*
X94874402Y-86722074D01*
X95034464Y-86650810D01*
X95176210Y-86547825D01*
X95293448Y-86417620D01*
X95293449Y-86417617D01*
X95302309Y-86407778D01*
X95303687Y-86409019D01*
X95337330Y-86375379D01*
X95400327Y-86358500D01*
X96996719Y-86358500D01*
X97059720Y-86375382D01*
X97105837Y-86421499D01*
X97111043Y-86430515D01*
X97111971Y-86432123D01*
X97203927Y-86534249D01*
X97229208Y-86562326D01*
X97370954Y-86665311D01*
X97531016Y-86736575D01*
X97702396Y-86773003D01*
X97877602Y-86773003D01*
X97877604Y-86773003D01*
X98048984Y-86736575D01*
X98209046Y-86665311D01*
X98327478Y-86579265D01*
X113877643Y-86579265D01*
X113895957Y-86753516D01*
X113950100Y-86920150D01*
X114037701Y-87071880D01*
X114037702Y-87071882D01*
X114037704Y-87071884D01*
X114154942Y-87202089D01*
X114296688Y-87305074D01*
X114456750Y-87376338D01*
X114456753Y-87376338D01*
X114460552Y-87378030D01*
X114502940Y-87408826D01*
X114529137Y-87454200D01*
X114550790Y-87520840D01*
X114638390Y-87672569D01*
X114638391Y-87672571D01*
X114638393Y-87672573D01*
X114755631Y-87802778D01*
X114897377Y-87905763D01*
X115057439Y-87977027D01*
X115057442Y-87977027D01*
X115069538Y-87982413D01*
X115067883Y-87986128D01*
X115102825Y-88003935D01*
X115138343Y-88058630D01*
X115185789Y-88204651D01*
X115273389Y-88356380D01*
X115273390Y-88356382D01*
X115273392Y-88356384D01*
X115390630Y-88486589D01*
X115532376Y-88589574D01*
X115692438Y-88660838D01*
X115863818Y-88697266D01*
X116039024Y-88697266D01*
X116039026Y-88697266D01*
X116210406Y-88660838D01*
X116370468Y-88589574D01*
X116512214Y-88486589D01*
X116629452Y-88356384D01*
X116717056Y-88204648D01*
X116762868Y-88063654D01*
X116793602Y-88013500D01*
X116927199Y-87879904D01*
X116968077Y-87852591D01*
X117016295Y-87843000D01*
X117070634Y-87843000D01*
X117070636Y-87843000D01*
X117242016Y-87806572D01*
X117402078Y-87735308D01*
X117543824Y-87632323D01*
X117661062Y-87502118D01*
X117732704Y-87378030D01*
X117748665Y-87350384D01*
X117748666Y-87350382D01*
X117802809Y-87183749D01*
X117821123Y-87009500D01*
X117802809Y-86835251D01*
X117748666Y-86668618D01*
X117748665Y-86668617D01*
X117748665Y-86668615D01*
X117661064Y-86516885D01*
X117661063Y-86516884D01*
X117661062Y-86516882D01*
X117543824Y-86386677D01*
X117524710Y-86372790D01*
X117402079Y-86283693D01*
X117402078Y-86283692D01*
X117242016Y-86212428D01*
X117237707Y-86211512D01*
X117179595Y-86181902D01*
X117144073Y-86127201D01*
X117113666Y-86033616D01*
X117026064Y-85881885D01*
X117026063Y-85881884D01*
X117026062Y-85881882D01*
X117024521Y-85880171D01*
X121745127Y-85880171D01*
X121763441Y-86054422D01*
X121817584Y-86221056D01*
X121905185Y-86372786D01*
X121905186Y-86372788D01*
X121905188Y-86372790D01*
X121907298Y-86375134D01*
X121907493Y-86375350D01*
X121933690Y-86420723D01*
X121939168Y-86472829D01*
X121922979Y-86522658D01*
X121916302Y-86534222D01*
X121862159Y-86700856D01*
X121843845Y-86875107D01*
X121862159Y-87049357D01*
X121916302Y-87215991D01*
X122003903Y-87367721D01*
X122003904Y-87367723D01*
X122003906Y-87367725D01*
X122121144Y-87497930D01*
X122262890Y-87600915D01*
X122422952Y-87672179D01*
X122594332Y-87708607D01*
X122769538Y-87708607D01*
X122769540Y-87708607D01*
X122940920Y-87672179D01*
X122948357Y-87668867D01*
X123012775Y-87658664D01*
X123073666Y-87682037D01*
X123105932Y-87705480D01*
X123265994Y-87776744D01*
X123437374Y-87813172D01*
X123437376Y-87813172D01*
X123450328Y-87815925D01*
X123449879Y-87818036D01*
X123494726Y-87830053D01*
X123540843Y-87876171D01*
X123567470Y-87922290D01*
X123684708Y-88052495D01*
X123826454Y-88155480D01*
X123986516Y-88226744D01*
X124157896Y-88263172D01*
X124333102Y-88263172D01*
X124333104Y-88263172D01*
X124504484Y-88226744D01*
X124664546Y-88155480D01*
X124806292Y-88052495D01*
X124923530Y-87922290D01*
X124923529Y-87922290D01*
X124932392Y-87912448D01*
X124933882Y-87913789D01*
X124967122Y-87880552D01*
X125030120Y-87863672D01*
X126027444Y-87863672D01*
X126075662Y-87873263D01*
X126116539Y-87900577D01*
X126643081Y-88427119D01*
X126667712Y-88461969D01*
X126679296Y-88503043D01*
X126686156Y-88568317D01*
X126740299Y-88734951D01*
X126827900Y-88886681D01*
X126827901Y-88886683D01*
X126827903Y-88886685D01*
X126945141Y-89016890D01*
X127086887Y-89119875D01*
X127246949Y-89191139D01*
X127418329Y-89227567D01*
X127593535Y-89227567D01*
X127593537Y-89227567D01*
X127764917Y-89191139D01*
X127924979Y-89119875D01*
X128066725Y-89016890D01*
X128183963Y-88886685D01*
X128262609Y-88750465D01*
X128271566Y-88734951D01*
X128271567Y-88734949D01*
X128321101Y-88582500D01*
X141544119Y-88582500D01*
X141563590Y-88780201D01*
X141621258Y-88970302D01*
X141701206Y-89119875D01*
X141714905Y-89145503D01*
X141809348Y-89260582D01*
X143784418Y-91235652D01*
X143899497Y-91330095D01*
X144074697Y-91423741D01*
X144128295Y-91440000D01*
X144264798Y-91481409D01*
X144462500Y-91500880D01*
X144660201Y-91481409D01*
X144700527Y-91469176D01*
X144850302Y-91423742D01*
X144850304Y-91423741D01*
X145025503Y-91330095D01*
X145179068Y-91204068D01*
X145305095Y-91050503D01*
X145398741Y-90875304D01*
X145456409Y-90685201D01*
X145475880Y-90487500D01*
X145456409Y-90289799D01*
X145442819Y-90245001D01*
X145398741Y-90099698D01*
X145398741Y-90099697D01*
X145305095Y-89924497D01*
X145210652Y-89809418D01*
X143235582Y-87834348D01*
X143120503Y-87739905D01*
X143120502Y-87739904D01*
X142945302Y-87646258D01*
X142755201Y-87588590D01*
X142557499Y-87569119D01*
X142359798Y-87588590D01*
X142169697Y-87646257D01*
X141994498Y-87739904D01*
X141840931Y-87865931D01*
X141714904Y-88019498D01*
X141621257Y-88194697D01*
X141563590Y-88384798D01*
X141544119Y-88582500D01*
X128321101Y-88582500D01*
X128325710Y-88568316D01*
X128344024Y-88394067D01*
X128325710Y-88219818D01*
X128274970Y-88063658D01*
X128271567Y-88053184D01*
X128255237Y-88024900D01*
X128238356Y-87961900D01*
X128255236Y-87898901D01*
X128302726Y-87816647D01*
X128356869Y-87650014D01*
X128375183Y-87475765D01*
X128356869Y-87301516D01*
X128356868Y-87301514D01*
X128355842Y-87291748D01*
X128362379Y-87236518D01*
X128392055Y-87189485D01*
X129308157Y-86273383D01*
X129324478Y-86260309D01*
X129326514Y-86258140D01*
X129326518Y-86258138D01*
X129373161Y-86208466D01*
X129375852Y-86205689D01*
X129395635Y-86185908D01*
X129398121Y-86182702D01*
X129405810Y-86173699D01*
X129436086Y-86141459D01*
X129445842Y-86123709D01*
X129456695Y-86107188D01*
X129469114Y-86091179D01*
X129486675Y-86050592D01*
X129491888Y-86039951D01*
X129513195Y-86001198D01*
X129518233Y-85981572D01*
X129524637Y-85962870D01*
X129532681Y-85944283D01*
X129539596Y-85900619D01*
X129542004Y-85888991D01*
X129543829Y-85881885D01*
X129553000Y-85846168D01*
X129553000Y-85825914D01*
X129554551Y-85806204D01*
X129557720Y-85786195D01*
X129554370Y-85750753D01*
X129553558Y-85742176D01*
X129553000Y-85730319D01*
X129553000Y-85426441D01*
X129561369Y-85381287D01*
X129585364Y-85342131D01*
X129597531Y-85328618D01*
X129685133Y-85176884D01*
X129689416Y-85163705D01*
X129694937Y-85146710D01*
X129702067Y-85124769D01*
X129741585Y-85066620D01*
X129806108Y-85038699D01*
X129875548Y-85049697D01*
X129928285Y-85096191D01*
X129947900Y-85163705D01*
X129947900Y-85310109D01*
X129931019Y-85373109D01*
X129927079Y-85379932D01*
X129872937Y-85546563D01*
X129854623Y-85720814D01*
X129872937Y-85895064D01*
X129927080Y-86061698D01*
X130014681Y-86213428D01*
X130014682Y-86213430D01*
X130014684Y-86213432D01*
X130131922Y-86343637D01*
X130273668Y-86446622D01*
X130433730Y-86517886D01*
X130605110Y-86554314D01*
X130780316Y-86554314D01*
X130780318Y-86554314D01*
X130951698Y-86517886D01*
X131111760Y-86446622D01*
X131253506Y-86343637D01*
X131370744Y-86213432D01*
X131458348Y-86061696D01*
X131512491Y-85895063D01*
X131530805Y-85720814D01*
X131512491Y-85546565D01*
X131458348Y-85379932D01*
X131458347Y-85379931D01*
X131458347Y-85379929D01*
X131370746Y-85228199D01*
X131370745Y-85228198D01*
X131370744Y-85228196D01*
X131253506Y-85097991D01*
X131253504Y-85097990D01*
X131247264Y-85091059D01*
X131223269Y-85051903D01*
X131214900Y-85006748D01*
X131214900Y-84867641D01*
X131223269Y-84822487D01*
X131247264Y-84783331D01*
X131259431Y-84769818D01*
X131347033Y-84618084D01*
X131358471Y-84582882D01*
X131401177Y-84451449D01*
X131419491Y-84277200D01*
X131401177Y-84102951D01*
X131347034Y-83936318D01*
X131347033Y-83936317D01*
X131347033Y-83936315D01*
X131259432Y-83784585D01*
X131259431Y-83784584D01*
X131259430Y-83784582D01*
X131142192Y-83654377D01*
X131000446Y-83551392D01*
X130840384Y-83480128D01*
X130669004Y-83443700D01*
X130493796Y-83443700D01*
X130379542Y-83467985D01*
X130322415Y-83480128D01*
X130162353Y-83551393D01*
X130020608Y-83654376D01*
X129903367Y-83784585D01*
X129815766Y-83936315D01*
X129761623Y-84102949D01*
X129751423Y-84199995D01*
X129732498Y-84254338D01*
X129691384Y-84294599D01*
X129636656Y-84312381D01*
X129579729Y-84303975D01*
X129532477Y-84271134D01*
X129519300Y-84256500D01*
X129480292Y-84213177D01*
X129338546Y-84110192D01*
X129178484Y-84038928D01*
X129007104Y-84002500D01*
X128831896Y-84002500D01*
X128717642Y-84026785D01*
X128660515Y-84038928D01*
X128532057Y-84096121D01*
X128516719Y-84102951D01*
X128500453Y-84110193D01*
X128358708Y-84213176D01*
X128241467Y-84343385D01*
X128153865Y-84495117D01*
X128138819Y-84541422D01*
X128103297Y-84596120D01*
X128045185Y-84625730D01*
X128010519Y-84633098D01*
X127850453Y-84704365D01*
X127756525Y-84772608D01*
X127721400Y-84790505D01*
X127682464Y-84796672D01*
X123974620Y-84796672D01*
X123911622Y-84779792D01*
X123878382Y-84746554D01*
X123876892Y-84747896D01*
X123750791Y-84607848D01*
X123679919Y-84556356D01*
X123609046Y-84504864D01*
X123448984Y-84433600D01*
X123277604Y-84397172D01*
X123102396Y-84397172D01*
X122988142Y-84421457D01*
X122931015Y-84433600D01*
X122770953Y-84504865D01*
X122629208Y-84607848D01*
X122511967Y-84738057D01*
X122424366Y-84889787D01*
X122385203Y-85010319D01*
X122359006Y-85055693D01*
X122316620Y-85086489D01*
X122164173Y-85154363D01*
X122022426Y-85257348D01*
X121905185Y-85387557D01*
X121817584Y-85539287D01*
X121763441Y-85705921D01*
X121745127Y-85880171D01*
X117024521Y-85880171D01*
X116908824Y-85751677D01*
X116907552Y-85750753D01*
X116837950Y-85700184D01*
X116767078Y-85648692D01*
X116607016Y-85577428D01*
X116607012Y-85577427D01*
X116545591Y-85564371D01*
X116487478Y-85534761D01*
X116451956Y-85480062D01*
X116442756Y-85451749D01*
X116399900Y-85319852D01*
X116372123Y-85271741D01*
X116312298Y-85168119D01*
X116312297Y-85168118D01*
X116312296Y-85168116D01*
X116195058Y-85037911D01*
X116053312Y-84934926D01*
X115893250Y-84863662D01*
X115721870Y-84827234D01*
X115546662Y-84827234D01*
X115432408Y-84851519D01*
X115375281Y-84863662D01*
X115215219Y-84934927D01*
X115073474Y-85037910D01*
X114956233Y-85168119D01*
X114868632Y-85319849D01*
X114814489Y-85486483D01*
X114814488Y-85486485D01*
X114814489Y-85486485D01*
X114808175Y-85546565D01*
X114807629Y-85551756D01*
X114796045Y-85592829D01*
X114771414Y-85627679D01*
X114686521Y-85712572D01*
X114657548Y-85734208D01*
X114623623Y-85746724D01*
X114456749Y-85782194D01*
X114296687Y-85853459D01*
X114154942Y-85956442D01*
X114037701Y-86086651D01*
X113950100Y-86238381D01*
X113895957Y-86405015D01*
X113877643Y-86579265D01*
X98327478Y-86579265D01*
X98350792Y-86562326D01*
X98468030Y-86432121D01*
X98555634Y-86280385D01*
X98609777Y-86113752D01*
X98628091Y-85939503D01*
X98609777Y-85765254D01*
X98555634Y-85598621D01*
X98552290Y-85592829D01*
X98543585Y-85577751D01*
X98526704Y-85514750D01*
X98543586Y-85451749D01*
X98555634Y-85430882D01*
X98609777Y-85264249D01*
X98628091Y-85090000D01*
X98609777Y-84915751D01*
X98555634Y-84749118D01*
X98555633Y-84749117D01*
X98555633Y-84749115D01*
X98468032Y-84597385D01*
X98468031Y-84597384D01*
X98468030Y-84597382D01*
X98350792Y-84467177D01*
X98336096Y-84456500D01*
X98209047Y-84364193D01*
X98209046Y-84364192D01*
X98048984Y-84292928D01*
X97877604Y-84256500D01*
X97702396Y-84256500D01*
X97599233Y-84278428D01*
X97531015Y-84292928D01*
X97370953Y-84364193D01*
X97277025Y-84432436D01*
X97241900Y-84450333D01*
X97202964Y-84456500D01*
X95221994Y-84456500D01*
X95183058Y-84450333D01*
X95147933Y-84432436D01*
X95034047Y-84349693D01*
X95034046Y-84349692D01*
X94873984Y-84278428D01*
X94702604Y-84242000D01*
X94527396Y-84242000D01*
X94420912Y-84264634D01*
X94356015Y-84278428D01*
X94227557Y-84335621D01*
X94210128Y-84343382D01*
X94195953Y-84349693D01*
X94054208Y-84452676D01*
X93936967Y-84582885D01*
X93849366Y-84734615D01*
X93795223Y-84901249D01*
X93776909Y-85075500D01*
X91865913Y-85075500D01*
X91978104Y-85006748D01*
X92039416Y-84969176D01*
X92219969Y-84814969D01*
X92374176Y-84634416D01*
X92498240Y-84431963D01*
X92589105Y-84212594D01*
X92644535Y-83981711D01*
X92663165Y-83745000D01*
X92644535Y-83508289D01*
X92589105Y-83277406D01*
X92498240Y-83058037D01*
X92374176Y-82855584D01*
X92374175Y-82855583D01*
X92219969Y-82675030D01*
X92039415Y-82520823D01*
X91836966Y-82396761D01*
X91617594Y-82305895D01*
X91386711Y-82250464D01*
X91150000Y-82231835D01*
X90913288Y-82250464D01*
X90682405Y-82305895D01*
X90463033Y-82396761D01*
X90260584Y-82520823D01*
X90080030Y-82675030D01*
X89925823Y-82855584D01*
X89801761Y-83058033D01*
X89710895Y-83277405D01*
X89655464Y-83508288D01*
X89636835Y-83745000D01*
X83185000Y-83745000D01*
X83185000Y-83618000D01*
X84896587Y-83618000D01*
X86523000Y-83618000D01*
X86523000Y-81987000D01*
X86777000Y-81987000D01*
X86777000Y-83618000D01*
X88403413Y-83618000D01*
X88393239Y-83482248D01*
X88334607Y-83225365D01*
X88238344Y-82980092D01*
X88106602Y-82751909D01*
X87942319Y-82545904D01*
X87749165Y-82366682D01*
X87531465Y-82218258D01*
X87294071Y-82103934D01*
X87042291Y-82026271D01*
X86781742Y-81987000D01*
X86777000Y-81987000D01*
X86523000Y-81987000D01*
X86518258Y-81987000D01*
X86257708Y-82026271D01*
X86005928Y-82103934D01*
X85768534Y-82218258D01*
X85550834Y-82366682D01*
X85357680Y-82545904D01*
X85193397Y-82751909D01*
X85061655Y-82980092D01*
X84965392Y-83225365D01*
X84906760Y-83482248D01*
X84896587Y-83618000D01*
X83185000Y-83618000D01*
X83185000Y-77469999D01*
X84846835Y-77469999D01*
X84865464Y-77706711D01*
X84920895Y-77937594D01*
X85011761Y-78156966D01*
X85135823Y-78359415D01*
X85280653Y-78528990D01*
X85309195Y-78590517D01*
X85301705Y-78657927D01*
X85260352Y-78711688D01*
X85146737Y-78796739D01*
X85059111Y-78913794D01*
X85016575Y-79027837D01*
X85008011Y-79050799D01*
X85001500Y-79111362D01*
X85001500Y-80908638D01*
X85008011Y-80969201D01*
X85029756Y-81027500D01*
X85059111Y-81106205D01*
X85146738Y-81223261D01*
X85263794Y-81310888D01*
X85263795Y-81310888D01*
X85263796Y-81310889D01*
X85400799Y-81361989D01*
X85461362Y-81368500D01*
X87258638Y-81368500D01*
X87319201Y-81361989D01*
X87456204Y-81310889D01*
X87573261Y-81223261D01*
X87660889Y-81106204D01*
X87711989Y-80969201D01*
X87718500Y-80908638D01*
X87718500Y-80363330D01*
X105205889Y-80363330D01*
X105224203Y-80537580D01*
X105278346Y-80704214D01*
X105365947Y-80855944D01*
X105365948Y-80855946D01*
X105365950Y-80855948D01*
X105483188Y-80986153D01*
X105624934Y-81089138D01*
X105784996Y-81160402D01*
X105822553Y-81168384D01*
X105880666Y-81197994D01*
X105916189Y-81252694D01*
X105919174Y-81261883D01*
X106006775Y-81413612D01*
X106006776Y-81413614D01*
X106006778Y-81413616D01*
X106124016Y-81543821D01*
X106265762Y-81646806D01*
X106425824Y-81718070D01*
X106597204Y-81754498D01*
X106772410Y-81754498D01*
X106772412Y-81754498D01*
X106943792Y-81718070D01*
X107071976Y-81660999D01*
X111556909Y-81660999D01*
X111575223Y-81835250D01*
X111629366Y-82001884D01*
X111716967Y-82153614D01*
X111716968Y-82153616D01*
X111716970Y-82153618D01*
X111834208Y-82283823D01*
X111975954Y-82386808D01*
X112136016Y-82458072D01*
X112307396Y-82494500D01*
X112482602Y-82494500D01*
X112482604Y-82494500D01*
X112653984Y-82458072D01*
X112814046Y-82386808D01*
X112907975Y-82318563D01*
X112943100Y-82300667D01*
X112982036Y-82294500D01*
X113712964Y-82294500D01*
X113751900Y-82300667D01*
X113787024Y-82318563D01*
X113880954Y-82386808D01*
X114041016Y-82458072D01*
X114212396Y-82494500D01*
X114387602Y-82494500D01*
X114387604Y-82494500D01*
X114558984Y-82458072D01*
X114719046Y-82386808D01*
X114860792Y-82283823D01*
X114978030Y-82153618D01*
X115065634Y-82001882D01*
X115119777Y-81835249D01*
X115138091Y-81661000D01*
X115124743Y-81533999D01*
X130987909Y-81533999D01*
X131006223Y-81708250D01*
X131060366Y-81874884D01*
X131147967Y-82026614D01*
X131147968Y-82026616D01*
X131147970Y-82026618D01*
X131265208Y-82156823D01*
X131406954Y-82259808D01*
X131567016Y-82331072D01*
X131738396Y-82367500D01*
X131913602Y-82367500D01*
X131913604Y-82367500D01*
X132084984Y-82331072D01*
X132245046Y-82259808D01*
X132386792Y-82156823D01*
X132504030Y-82026618D01*
X132591634Y-81874882D01*
X132645777Y-81708249D01*
X132652637Y-81642976D01*
X132664221Y-81601902D01*
X132688852Y-81567051D01*
X133032642Y-81223261D01*
X133379213Y-80876690D01*
X133408183Y-80855057D01*
X133442099Y-80842544D01*
X133608984Y-80807072D01*
X133769046Y-80735808D01*
X133910792Y-80632823D01*
X134028030Y-80502618D01*
X134115634Y-80350882D01*
X134169777Y-80184249D01*
X134188091Y-80010000D01*
X134169777Y-79835751D01*
X134115634Y-79669118D01*
X134115633Y-79669117D01*
X134115633Y-79669115D01*
X134028032Y-79517385D01*
X134028031Y-79517384D01*
X134028030Y-79517382D01*
X133910792Y-79387177D01*
X133895873Y-79376338D01*
X133769047Y-79284193D01*
X133769046Y-79284192D01*
X133608984Y-79212928D01*
X133437604Y-79176500D01*
X133262396Y-79176500D01*
X133148142Y-79200785D01*
X133091015Y-79212928D01*
X132930953Y-79284193D01*
X132789208Y-79387176D01*
X132671967Y-79517385D01*
X132584366Y-79669115D01*
X132530223Y-79835749D01*
X132523363Y-79901021D01*
X132511779Y-79942094D01*
X132487149Y-79976944D01*
X131796788Y-80667306D01*
X131767814Y-80688942D01*
X131733889Y-80701458D01*
X131567015Y-80736928D01*
X131406953Y-80808193D01*
X131265208Y-80911176D01*
X131147967Y-81041385D01*
X131060366Y-81193115D01*
X131006223Y-81359749D01*
X130987909Y-81533999D01*
X115124743Y-81533999D01*
X115119777Y-81486751D01*
X115065634Y-81320118D01*
X115065633Y-81320117D01*
X115065633Y-81320115D01*
X114978032Y-81168384D01*
X114879215Y-81058638D01*
X114860792Y-81038177D01*
X114846096Y-81027500D01*
X114719047Y-80935193D01*
X114719046Y-80935192D01*
X114558984Y-80863928D01*
X114387604Y-80827500D01*
X114212396Y-80827500D01*
X114098142Y-80851785D01*
X114041015Y-80863928D01*
X113880953Y-80935193D01*
X113787025Y-81003436D01*
X113751900Y-81021333D01*
X113712964Y-81027500D01*
X112982036Y-81027500D01*
X112943100Y-81021333D01*
X112907975Y-81003436D01*
X112860855Y-80969201D01*
X112814046Y-80935192D01*
X112653984Y-80863928D01*
X112482604Y-80827500D01*
X112307396Y-80827500D01*
X112193142Y-80851785D01*
X112136015Y-80863928D01*
X111975953Y-80935193D01*
X111834208Y-81038176D01*
X111716968Y-81168384D01*
X111629366Y-81320115D01*
X111575223Y-81486749D01*
X111556909Y-81660999D01*
X107071976Y-81660999D01*
X107103854Y-81646806D01*
X107245600Y-81543821D01*
X107362838Y-81413616D01*
X107450442Y-81261880D01*
X107504585Y-81095247D01*
X107522899Y-80920998D01*
X107508105Y-80780242D01*
X107514642Y-80725014D01*
X107544318Y-80677980D01*
X108343907Y-79878392D01*
X108394064Y-79847657D01*
X108452711Y-79843041D01*
X108507058Y-79865552D01*
X108592866Y-79927896D01*
X108752928Y-79999160D01*
X108924308Y-80035588D01*
X109099514Y-80035588D01*
X109099516Y-80035588D01*
X109270896Y-79999160D01*
X109430958Y-79927896D01*
X109572704Y-79824911D01*
X109689942Y-79694706D01*
X109777546Y-79542970D01*
X109827258Y-79389975D01*
X116085506Y-79389975D01*
X116103820Y-79564225D01*
X116157963Y-79730859D01*
X116245564Y-79882589D01*
X116245565Y-79882591D01*
X116245567Y-79882593D01*
X116362805Y-80012798D01*
X116504551Y-80115783D01*
X116664613Y-80187047D01*
X116707920Y-80196252D01*
X116741842Y-80208767D01*
X116770815Y-80230403D01*
X117248821Y-80708409D01*
X117273451Y-80743259D01*
X117285036Y-80784332D01*
X117291897Y-80849609D01*
X117346040Y-81016242D01*
X117433641Y-81167972D01*
X117433642Y-81167974D01*
X117433644Y-81167976D01*
X117550882Y-81298181D01*
X117692628Y-81401166D01*
X117852690Y-81472430D01*
X118024070Y-81508858D01*
X118199276Y-81508858D01*
X118199278Y-81508858D01*
X118370658Y-81472430D01*
X118530720Y-81401166D01*
X118672466Y-81298181D01*
X118789704Y-81167976D01*
X118877308Y-81016240D01*
X118911658Y-80910522D01*
X118947180Y-80855823D01*
X119005291Y-80826214D01*
X119020000Y-80823088D01*
X119180062Y-80751824D01*
X119321808Y-80648839D01*
X119439046Y-80518634D01*
X119526650Y-80366898D01*
X119580793Y-80200265D01*
X119599107Y-80026016D01*
X119580793Y-79851767D01*
X119526650Y-79685134D01*
X119526649Y-79685133D01*
X119526649Y-79685131D01*
X119439048Y-79533401D01*
X119439047Y-79533400D01*
X119439046Y-79533398D01*
X119321808Y-79403193D01*
X119284845Y-79376338D01*
X119180063Y-79300209D01*
X119180062Y-79300208D01*
X119020000Y-79228944D01*
X119019996Y-79228942D01*
X118853123Y-79193472D01*
X118819198Y-79180957D01*
X118790225Y-79159321D01*
X118387136Y-78756232D01*
X118362505Y-78721380D01*
X118350921Y-78680305D01*
X118348815Y-78660269D01*
X118344062Y-78615036D01*
X118289919Y-78448403D01*
X118252068Y-78382843D01*
X118202317Y-78296670D01*
X118202316Y-78296669D01*
X118202315Y-78296667D01*
X118085077Y-78166462D01*
X118055724Y-78145136D01*
X118000481Y-78104999D01*
X117943331Y-78063477D01*
X117783269Y-77992213D01*
X117611889Y-77955785D01*
X117436681Y-77955785D01*
X117329792Y-77978505D01*
X117265300Y-77992213D01*
X117105238Y-78063478D01*
X116963493Y-78166461D01*
X116846255Y-78296666D01*
X116810027Y-78359416D01*
X116760107Y-78445882D01*
X116758650Y-78448405D01*
X116736997Y-78515042D01*
X116710800Y-78560414D01*
X116668415Y-78591209D01*
X116504552Y-78664166D01*
X116362805Y-78767151D01*
X116245564Y-78897360D01*
X116157963Y-79049090D01*
X116103820Y-79215724D01*
X116085506Y-79389975D01*
X109827258Y-79389975D01*
X109831689Y-79376337D01*
X109850003Y-79202088D01*
X109831689Y-79027839D01*
X109777546Y-78861206D01*
X109777545Y-78861205D01*
X109777545Y-78861203D01*
X109689944Y-78709473D01*
X109689943Y-78709472D01*
X109689942Y-78709470D01*
X109572704Y-78579265D01*
X109572613Y-78579199D01*
X109501830Y-78527772D01*
X109430958Y-78476280D01*
X109282789Y-78410311D01*
X109270892Y-78405014D01*
X109261254Y-78402966D01*
X109213390Y-78381656D01*
X109178332Y-78342719D01*
X109170750Y-78319386D01*
X110893390Y-78319386D01*
X110911704Y-78493637D01*
X110965847Y-78660271D01*
X111053448Y-78812001D01*
X111053449Y-78812003D01*
X111053451Y-78812005D01*
X111170689Y-78942210D01*
X111312435Y-79045195D01*
X111472497Y-79116459D01*
X111643877Y-79152887D01*
X111819083Y-79152887D01*
X111819085Y-79152887D01*
X111990465Y-79116459D01*
X112150527Y-79045195D01*
X112244296Y-78977067D01*
X112279422Y-78959170D01*
X112318358Y-78953003D01*
X112457464Y-78953003D01*
X112496400Y-78959170D01*
X112531524Y-78977066D01*
X112625454Y-79045311D01*
X112785516Y-79116575D01*
X112956896Y-79153003D01*
X113132102Y-79153003D01*
X113132104Y-79153003D01*
X113303484Y-79116575D01*
X113463546Y-79045311D01*
X113605292Y-78942326D01*
X113722530Y-78812121D01*
X113798633Y-78680305D01*
X113810133Y-78660387D01*
X113810171Y-78660271D01*
X113864277Y-78493752D01*
X113882591Y-78319503D01*
X113864277Y-78145254D01*
X113810134Y-77978621D01*
X113799494Y-77960191D01*
X113798085Y-77957751D01*
X113781204Y-77894750D01*
X113798086Y-77831749D01*
X113810134Y-77810882D01*
X113864277Y-77644249D01*
X113882591Y-77470000D01*
X113864277Y-77295751D01*
X113810134Y-77129118D01*
X113805010Y-77120243D01*
X113798085Y-77108248D01*
X113781204Y-77045246D01*
X113798086Y-76982246D01*
X113810134Y-76961380D01*
X113864277Y-76794747D01*
X113882591Y-76620498D01*
X113864277Y-76446249D01*
X113824286Y-76323171D01*
X117232469Y-76323171D01*
X117250783Y-76497421D01*
X117304926Y-76664055D01*
X117392527Y-76815785D01*
X117392528Y-76815787D01*
X117392530Y-76815789D01*
X117509768Y-76945994D01*
X117651514Y-77048979D01*
X117811576Y-77120243D01*
X117982956Y-77156671D01*
X118158162Y-77156671D01*
X118158164Y-77156671D01*
X118329544Y-77120243D01*
X118489606Y-77048979D01*
X118631352Y-76945994D01*
X118687251Y-76883910D01*
X118706819Y-76866290D01*
X118719983Y-76856726D01*
X118729893Y-76850218D01*
X118767949Y-76827713D01*
X118782278Y-76813383D01*
X118797306Y-76800548D01*
X118813694Y-76788643D01*
X118841885Y-76754564D01*
X118849855Y-76745805D01*
X119233257Y-76362404D01*
X119274135Y-76335091D01*
X119322353Y-76325500D01*
X121756464Y-76325500D01*
X121813667Y-76339233D01*
X121858400Y-76377439D01*
X121880913Y-76431789D01*
X121876297Y-76490436D01*
X121862223Y-76533748D01*
X121843909Y-76708000D01*
X121862223Y-76882250D01*
X121916366Y-77048884D01*
X122003967Y-77200614D01*
X122003968Y-77200616D01*
X122003970Y-77200618D01*
X122121208Y-77330823D01*
X122262954Y-77433808D01*
X122423016Y-77505072D01*
X122594396Y-77541500D01*
X122769602Y-77541500D01*
X122769604Y-77541500D01*
X122940984Y-77505072D01*
X123101046Y-77433808D01*
X123242792Y-77330823D01*
X123242797Y-77330817D01*
X123244840Y-77329333D01*
X123303109Y-77306263D01*
X123365284Y-77314117D01*
X123415986Y-77350952D01*
X123442670Y-77407657D01*
X123438736Y-77470203D01*
X123425723Y-77510252D01*
X123407409Y-77684503D01*
X123425723Y-77858753D01*
X123479866Y-78025387D01*
X123567467Y-78177117D01*
X123567468Y-78177119D01*
X123567470Y-78177121D01*
X123684708Y-78307326D01*
X123826454Y-78410311D01*
X123986516Y-78481575D01*
X124157896Y-78518003D01*
X124333102Y-78518003D01*
X124333104Y-78518003D01*
X124504484Y-78481575D01*
X124664546Y-78410311D01*
X124806292Y-78307326D01*
X124923530Y-78177121D01*
X125011134Y-78025385D01*
X125017574Y-78005563D01*
X125043770Y-77960191D01*
X125086158Y-77929394D01*
X125137407Y-77918500D01*
X127320399Y-77918500D01*
X127368617Y-77928091D01*
X127409494Y-77955405D01*
X127422055Y-77967966D01*
X127451733Y-78015001D01*
X127458270Y-78070230D01*
X127451409Y-78135515D01*
X127455782Y-78177121D01*
X127469723Y-78309765D01*
X127523866Y-78476399D01*
X127611467Y-78628129D01*
X127611468Y-78628131D01*
X127611470Y-78628133D01*
X127728708Y-78758338D01*
X127870454Y-78861323D01*
X128030516Y-78932587D01*
X128201896Y-78969015D01*
X128377102Y-78969015D01*
X128377104Y-78969015D01*
X128548484Y-78932587D01*
X128708546Y-78861323D01*
X128850292Y-78758338D01*
X128967530Y-78628133D01*
X129055134Y-78476397D01*
X129109277Y-78309764D01*
X129127591Y-78135515D01*
X129109277Y-77961266D01*
X129055134Y-77794633D01*
X129055133Y-77794632D01*
X129055133Y-77794630D01*
X128967532Y-77642900D01*
X128967531Y-77642899D01*
X128967530Y-77642897D01*
X128901504Y-77569568D01*
X128872883Y-77515739D01*
X128872883Y-77454774D01*
X128901505Y-77400946D01*
X128967531Y-77327617D01*
X129055133Y-77175884D01*
X129070328Y-77129119D01*
X129109277Y-77009249D01*
X129127591Y-76835000D01*
X129109277Y-76660751D01*
X129055134Y-76494118D01*
X129043085Y-76473248D01*
X129026204Y-76410247D01*
X129043086Y-76347246D01*
X129055134Y-76326379D01*
X129109277Y-76159746D01*
X129127591Y-75985497D01*
X129109277Y-75811248D01*
X129055134Y-75644615D01*
X129055133Y-75644614D01*
X129055133Y-75644612D01*
X128967532Y-75492882D01*
X128967531Y-75492881D01*
X128967530Y-75492879D01*
X128850292Y-75362674D01*
X128842244Y-75356827D01*
X128708547Y-75259690D01*
X128708546Y-75259689D01*
X128548484Y-75188425D01*
X128377104Y-75151997D01*
X128201896Y-75151997D01*
X128087642Y-75176282D01*
X128030515Y-75188425D01*
X127870453Y-75259690D01*
X127728708Y-75362673D01*
X127611467Y-75492882D01*
X127523867Y-75644610D01*
X127520515Y-75654925D01*
X127517425Y-75664436D01*
X127491230Y-75709809D01*
X127448842Y-75740606D01*
X127397593Y-75751500D01*
X125137407Y-75751500D01*
X125086158Y-75740606D01*
X125043770Y-75709809D01*
X125017574Y-75664436D01*
X125011134Y-75644615D01*
X125011133Y-75644613D01*
X125011132Y-75644610D01*
X124923532Y-75492882D01*
X124923531Y-75492881D01*
X124923530Y-75492879D01*
X124806292Y-75362674D01*
X124798244Y-75356827D01*
X124664547Y-75259690D01*
X124664546Y-75259689D01*
X124504484Y-75188425D01*
X124333104Y-75151997D01*
X124157896Y-75151997D01*
X124144653Y-75151997D01*
X124144653Y-75149201D01*
X124095224Y-75145744D01*
X124039030Y-75104915D01*
X124013010Y-75040512D01*
X124009777Y-75009751D01*
X123983864Y-74930000D01*
X123955634Y-74843118D01*
X123915851Y-74774212D01*
X123868032Y-74691385D01*
X123868031Y-74691384D01*
X123868030Y-74691382D01*
X123750792Y-74561177D01*
X123747765Y-74558978D01*
X123614846Y-74462406D01*
X123609046Y-74458192D01*
X123448984Y-74386928D01*
X123277604Y-74350500D01*
X123102396Y-74350500D01*
X123002616Y-74371709D01*
X122931015Y-74386928D01*
X122770953Y-74458193D01*
X122677025Y-74526436D01*
X122641900Y-74544333D01*
X122602964Y-74550500D01*
X118680368Y-74550500D01*
X118659583Y-74548205D01*
X118588552Y-74550438D01*
X118584594Y-74550500D01*
X118556659Y-74550500D01*
X118552633Y-74551008D01*
X118540821Y-74551937D01*
X118496629Y-74553326D01*
X118477176Y-74558978D01*
X118457822Y-74562986D01*
X118437723Y-74565525D01*
X118396615Y-74581801D01*
X118385389Y-74585644D01*
X118342927Y-74597981D01*
X118325483Y-74608297D01*
X118307734Y-74616991D01*
X118288902Y-74624447D01*
X118264119Y-74642454D01*
X118228994Y-74660352D01*
X118201204Y-74664753D01*
X118021515Y-74702947D01*
X117861453Y-74774212D01*
X117719708Y-74877195D01*
X117602467Y-75007404D01*
X117514866Y-75159134D01*
X117460723Y-75325768D01*
X117442409Y-75500019D01*
X117462107Y-75687439D01*
X117458709Y-75687796D01*
X117460886Y-75729414D01*
X117431278Y-75787518D01*
X117392527Y-75830555D01*
X117304926Y-75982286D01*
X117250783Y-76148920D01*
X117232469Y-76323171D01*
X113824286Y-76323171D01*
X113810134Y-76279616D01*
X113810133Y-76279615D01*
X113810133Y-76279613D01*
X113722532Y-76127883D01*
X113722531Y-76127882D01*
X113722530Y-76127880D01*
X113605292Y-75997675D01*
X113605289Y-75997673D01*
X113463547Y-75894691D01*
X113463546Y-75894690D01*
X113303484Y-75823426D01*
X113132104Y-75786998D01*
X112956896Y-75786998D01*
X112842818Y-75811246D01*
X112785515Y-75823426D01*
X112625453Y-75894691D01*
X112531526Y-75962933D01*
X112496401Y-75980830D01*
X112457465Y-75986997D01*
X112332536Y-75986997D01*
X112293600Y-75980830D01*
X112258475Y-75962933D01*
X112164546Y-75894689D01*
X112004484Y-75823425D01*
X111833104Y-75786997D01*
X111657896Y-75786997D01*
X111543814Y-75811246D01*
X111486515Y-75823425D01*
X111326453Y-75894690D01*
X111184708Y-75997673D01*
X111067467Y-76127882D01*
X110979866Y-76279612D01*
X110925723Y-76446246D01*
X110907409Y-76620496D01*
X110925723Y-76794747D01*
X110979865Y-76961377D01*
X110991915Y-76982249D01*
X111008795Y-77045247D01*
X110991916Y-77108246D01*
X110979864Y-77129119D01*
X110925723Y-77295749D01*
X110907409Y-77470000D01*
X110925723Y-77644250D01*
X110979865Y-77810880D01*
X110984872Y-77819553D01*
X111001752Y-77882551D01*
X110984872Y-77945550D01*
X110965847Y-77978503D01*
X110911704Y-78145136D01*
X110893390Y-78319386D01*
X109170750Y-78319386D01*
X109162142Y-78292893D01*
X109150777Y-78184751D01*
X109096634Y-78018118D01*
X109096633Y-78018117D01*
X109096633Y-78018115D01*
X109009032Y-77866385D01*
X109009031Y-77866384D01*
X109009030Y-77866382D01*
X108891792Y-77736177D01*
X108891442Y-77735923D01*
X108765266Y-77644250D01*
X108750046Y-77633192D01*
X108589984Y-77561928D01*
X108589980Y-77561926D01*
X108489612Y-77540592D01*
X108441748Y-77519282D01*
X108406690Y-77480345D01*
X108332753Y-77352280D01*
X108215514Y-77222075D01*
X108087570Y-77129118D01*
X108073769Y-77119091D01*
X107913707Y-77047827D01*
X107742327Y-77011399D01*
X107567119Y-77011399D01*
X107452865Y-77035684D01*
X107395738Y-77047827D01*
X107235676Y-77119092D01*
X107093931Y-77222075D01*
X106976690Y-77352284D01*
X106889089Y-77504014D01*
X106834946Y-77670647D01*
X106828085Y-77735923D01*
X106816500Y-77776995D01*
X106791870Y-77811845D01*
X105847054Y-78756661D01*
X105830734Y-78769737D01*
X105782088Y-78821539D01*
X105779338Y-78824377D01*
X105759583Y-78844133D01*
X105757615Y-78846670D01*
X105732129Y-78871365D01*
X105674926Y-78912926D01*
X105557685Y-79043135D01*
X105470084Y-79194865D01*
X105415941Y-79361499D01*
X105397627Y-79535749D01*
X105415941Y-79710001D01*
X105418577Y-79718111D01*
X105421991Y-79783244D01*
X105392381Y-79841357D01*
X105365947Y-79870714D01*
X105278346Y-80022445D01*
X105224203Y-80189079D01*
X105205889Y-80363330D01*
X87718500Y-80363330D01*
X87718500Y-79111362D01*
X87711989Y-79050799D01*
X87660889Y-78913796D01*
X87660888Y-78913794D01*
X87573261Y-78796738D01*
X87459648Y-78711688D01*
X87418294Y-78657927D01*
X87410804Y-78590517D01*
X87439346Y-78528990D01*
X87584176Y-78359416D01*
X87708240Y-78156963D01*
X87718373Y-78132500D01*
X94384409Y-78132500D01*
X94402723Y-78306750D01*
X94456866Y-78473384D01*
X94544467Y-78625114D01*
X94544468Y-78625116D01*
X94544470Y-78625118D01*
X94661708Y-78755323D01*
X94803454Y-78858308D01*
X94963516Y-78929572D01*
X95134896Y-78966000D01*
X95310102Y-78966000D01*
X95310104Y-78966000D01*
X95481484Y-78929572D01*
X95641546Y-78858308D01*
X95767012Y-78767151D01*
X95773326Y-78762564D01*
X95808451Y-78744667D01*
X95847387Y-78738500D01*
X97202964Y-78738500D01*
X97241900Y-78744667D01*
X97277024Y-78762563D01*
X97370954Y-78830808D01*
X97531016Y-78902072D01*
X97702396Y-78938500D01*
X97877602Y-78938500D01*
X97877604Y-78938500D01*
X98048984Y-78902072D01*
X98209046Y-78830808D01*
X98350792Y-78727823D01*
X98468030Y-78597618D01*
X98539757Y-78473382D01*
X98555633Y-78445884D01*
X98555634Y-78445882D01*
X98609777Y-78279249D01*
X98628091Y-78105000D01*
X98609777Y-77930751D01*
X98555634Y-77764118D01*
X98555633Y-77764117D01*
X98555633Y-77764115D01*
X98468032Y-77612385D01*
X98468031Y-77612384D01*
X98468030Y-77612382D01*
X98350792Y-77482177D01*
X98348270Y-77480345D01*
X98279919Y-77430684D01*
X98209046Y-77379192D01*
X98048984Y-77307928D01*
X97877604Y-77271500D01*
X97702396Y-77271500D01*
X97588314Y-77295749D01*
X97531015Y-77307928D01*
X97370953Y-77379193D01*
X97277025Y-77447436D01*
X97241900Y-77465333D01*
X97202964Y-77471500D01*
X95771686Y-77471500D01*
X95732750Y-77465333D01*
X95697625Y-77447436D01*
X95641547Y-77406693D01*
X95641546Y-77406692D01*
X95481484Y-77335428D01*
X95310104Y-77299000D01*
X95134896Y-77299000D01*
X95020642Y-77323285D01*
X94963515Y-77335428D01*
X94803453Y-77406693D01*
X94661708Y-77509676D01*
X94544467Y-77639885D01*
X94456866Y-77791615D01*
X94402723Y-77958249D01*
X94384409Y-78132500D01*
X87718373Y-78132500D01*
X87799105Y-77937594D01*
X87854535Y-77706711D01*
X87873165Y-77470000D01*
X87854535Y-77233289D01*
X87846691Y-77200618D01*
X87827119Y-77119092D01*
X87799105Y-77002406D01*
X87708240Y-76783037D01*
X87685417Y-76745794D01*
X87584176Y-76580584D01*
X87429971Y-76400033D01*
X87342704Y-76325500D01*
X87307941Y-76295809D01*
X87275347Y-76252750D01*
X87263773Y-76199998D01*
X87275347Y-76147247D01*
X87307938Y-76104193D01*
X87429969Y-75999969D01*
X87584176Y-75819416D01*
X87632471Y-75740606D01*
X87704134Y-75623665D01*
X87750000Y-75579565D01*
X87811566Y-75563500D01*
X90086147Y-75563500D01*
X90106935Y-75565795D01*
X90109907Y-75565701D01*
X90109909Y-75565702D01*
X90177985Y-75563562D01*
X90181945Y-75563500D01*
X90209852Y-75563500D01*
X90209856Y-75563500D01*
X90213865Y-75562993D01*
X90225699Y-75562061D01*
X90269889Y-75560673D01*
X90289338Y-75555021D01*
X90308698Y-75551012D01*
X90328797Y-75548474D01*
X90369915Y-75532193D01*
X90381117Y-75528357D01*
X90423593Y-75516018D01*
X90441039Y-75505699D01*
X90458780Y-75497009D01*
X90477617Y-75489552D01*
X90513392Y-75463558D01*
X90523303Y-75457048D01*
X90561362Y-75434542D01*
X90575691Y-75420212D01*
X90590719Y-75407377D01*
X90607107Y-75395472D01*
X90635298Y-75361393D01*
X90643268Y-75352634D01*
X91124176Y-74871727D01*
X112039614Y-74871727D01*
X112125593Y-74916852D01*
X112292535Y-74958000D01*
X112464465Y-74958000D01*
X112631405Y-74916853D01*
X112717384Y-74871727D01*
X113139614Y-74871727D01*
X113225593Y-74916852D01*
X113392535Y-74958000D01*
X113564465Y-74958000D01*
X113731405Y-74916853D01*
X113817384Y-74871727D01*
X113817384Y-74871725D01*
X113478501Y-74532842D01*
X113478500Y-74532842D01*
X113139614Y-74871726D01*
X113139614Y-74871727D01*
X112717384Y-74871727D01*
X112717384Y-74871725D01*
X112378501Y-74532842D01*
X112378500Y-74532842D01*
X112039614Y-74871726D01*
X112039614Y-74871727D01*
X91124176Y-74871727D01*
X91636514Y-74359390D01*
X91665484Y-74337758D01*
X91699403Y-74325244D01*
X91866283Y-74289773D01*
X92026345Y-74218509D01*
X92168091Y-74115524D01*
X92285329Y-73985319D01*
X92372933Y-73833583D01*
X92427076Y-73666950D01*
X92445390Y-73492701D01*
X92427076Y-73318452D01*
X92372933Y-73151819D01*
X92372932Y-73151818D01*
X92372932Y-73151816D01*
X92285331Y-73000086D01*
X92285330Y-73000085D01*
X92285329Y-73000083D01*
X92240233Y-72949999D01*
X103861909Y-72949999D01*
X103880223Y-73124250D01*
X103934366Y-73290884D01*
X104021967Y-73442614D01*
X104021968Y-73442616D01*
X104021970Y-73442618D01*
X104139208Y-73572823D01*
X104280954Y-73675808D01*
X104441016Y-73747072D01*
X104612396Y-73783500D01*
X104787602Y-73783500D01*
X104787604Y-73783500D01*
X104958984Y-73747072D01*
X105071669Y-73696901D01*
X105120716Y-73686028D01*
X105170115Y-73695184D01*
X105212010Y-73722914D01*
X105523654Y-74034558D01*
X105536737Y-74050888D01*
X105588568Y-74099559D01*
X105591380Y-74102284D01*
X105611133Y-74122037D01*
X105613086Y-74123552D01*
X105614327Y-74124515D01*
X105623347Y-74132219D01*
X105655582Y-74162489D01*
X105673338Y-74172250D01*
X105689854Y-74183099D01*
X105705862Y-74195516D01*
X105746428Y-74213070D01*
X105757091Y-74218294D01*
X105795841Y-74239597D01*
X105795843Y-74239598D01*
X105815465Y-74244636D01*
X105834170Y-74251040D01*
X105852758Y-74259084D01*
X105896425Y-74265999D01*
X105908036Y-74268404D01*
X105946973Y-74278401D01*
X105989696Y-74298505D01*
X106090454Y-74371711D01*
X106250516Y-74442975D01*
X106421896Y-74479403D01*
X106597102Y-74479403D01*
X106597104Y-74479403D01*
X106768484Y-74442975D01*
X106928546Y-74371711D01*
X106997343Y-74321727D01*
X111489614Y-74321727D01*
X111575594Y-74366853D01*
X111610682Y-74375501D01*
X111664083Y-74403527D01*
X111698342Y-74453160D01*
X111746992Y-74581440D01*
X111754025Y-74591630D01*
X111754026Y-74591631D01*
X112095657Y-74250001D01*
X112095657Y-74250000D01*
X112661342Y-74250000D01*
X112928499Y-74517157D01*
X112928501Y-74517157D01*
X113195657Y-74250001D01*
X113195657Y-74250000D01*
X113195656Y-74249999D01*
X113761342Y-74249999D01*
X114102973Y-74591630D01*
X114110006Y-74581441D01*
X114158657Y-74453160D01*
X114192916Y-74403527D01*
X114246318Y-74375501D01*
X114281404Y-74366853D01*
X114367384Y-74321727D01*
X114367384Y-74321725D01*
X114028501Y-73982842D01*
X114028500Y-73982842D01*
X113970759Y-74040584D01*
X113970756Y-74040585D01*
X113761342Y-74249999D01*
X113195656Y-74249999D01*
X112986244Y-74040586D01*
X112986241Y-74040584D01*
X112928500Y-73982842D01*
X112870759Y-74040584D01*
X112870756Y-74040585D01*
X112661342Y-74249999D01*
X112661342Y-74250000D01*
X112095657Y-74250000D01*
X111886244Y-74040586D01*
X111886241Y-74040584D01*
X111828500Y-73982842D01*
X111489614Y-74321726D01*
X111489614Y-74321727D01*
X106997343Y-74321727D01*
X107070292Y-74268726D01*
X107187530Y-74138521D01*
X107275134Y-73986785D01*
X107329277Y-73820152D01*
X107341905Y-73699999D01*
X111115299Y-73699999D01*
X111136023Y-73870678D01*
X111196992Y-74031440D01*
X111204025Y-74041630D01*
X111204026Y-74041631D01*
X111545657Y-73700001D01*
X111545657Y-73700000D01*
X112111342Y-73700000D01*
X112194842Y-73783499D01*
X112194843Y-73783501D01*
X112378500Y-73967157D01*
X112562158Y-73783500D01*
X112562158Y-73783501D01*
X112562159Y-73783500D01*
X112562158Y-73783500D01*
X112645657Y-73700000D01*
X113211342Y-73700000D01*
X113294842Y-73783499D01*
X113294843Y-73783501D01*
X113478500Y-73967157D01*
X113662158Y-73783500D01*
X113662158Y-73783501D01*
X113662159Y-73783500D01*
X113662158Y-73783500D01*
X113745656Y-73700001D01*
X114311342Y-73700001D01*
X114652972Y-74041631D01*
X114652972Y-74041630D01*
X114660006Y-74031440D01*
X114720976Y-73870678D01*
X114741700Y-73699999D01*
X114720976Y-73529321D01*
X114660007Y-73368560D01*
X114652972Y-73358368D01*
X114311342Y-73700000D01*
X114311342Y-73700001D01*
X113745656Y-73700001D01*
X113745657Y-73700000D01*
X113538359Y-73492701D01*
X113538360Y-73492701D01*
X113538359Y-73492700D01*
X113538359Y-73492701D01*
X113478499Y-73432842D01*
X113418642Y-73492699D01*
X113418641Y-73492702D01*
X113211342Y-73700000D01*
X112645657Y-73700000D01*
X112438359Y-73492701D01*
X112438360Y-73492701D01*
X112438359Y-73492700D01*
X112438359Y-73492701D01*
X112378499Y-73432842D01*
X112318642Y-73492699D01*
X112318641Y-73492702D01*
X112111342Y-73700000D01*
X111545657Y-73700000D01*
X111204025Y-73358367D01*
X111196992Y-73368558D01*
X111136023Y-73529321D01*
X111115299Y-73699999D01*
X107341905Y-73699999D01*
X107347591Y-73645903D01*
X107329277Y-73471654D01*
X107275134Y-73305021D01*
X107263085Y-73284151D01*
X107246204Y-73221150D01*
X107263086Y-73158149D01*
X107267791Y-73150000D01*
X111561342Y-73150000D01*
X111828499Y-73417157D01*
X111828500Y-73417157D01*
X112024507Y-73221151D01*
X112024507Y-73221152D01*
X112024508Y-73221151D01*
X112024507Y-73221151D01*
X112095657Y-73150000D01*
X112661342Y-73150000D01*
X112732493Y-73221150D01*
X112732494Y-73221152D01*
X112928499Y-73417157D01*
X113124507Y-73221151D01*
X113124507Y-73221152D01*
X113124508Y-73221151D01*
X113124507Y-73221151D01*
X113195657Y-73150000D01*
X113761342Y-73150000D01*
X113832493Y-73221150D01*
X113832494Y-73221152D01*
X114028500Y-73417157D01*
X114028501Y-73417157D01*
X114295657Y-73150001D01*
X114295657Y-73150000D01*
X114028500Y-72882842D01*
X113968128Y-72943215D01*
X113968127Y-72943216D01*
X113761342Y-73150000D01*
X113195657Y-73150000D01*
X112988875Y-72943217D01*
X112988872Y-72943215D01*
X112928500Y-72882842D01*
X112868128Y-72943215D01*
X112868127Y-72943216D01*
X112661342Y-73150000D01*
X112095657Y-73150000D01*
X111888875Y-72943217D01*
X111888872Y-72943215D01*
X111828500Y-72882842D01*
X111561342Y-73149999D01*
X111561342Y-73150000D01*
X107267791Y-73150000D01*
X107275134Y-73137282D01*
X107329277Y-72970649D01*
X107347591Y-72796400D01*
X107329277Y-72622151D01*
X107322080Y-72600000D01*
X111115299Y-72600000D01*
X111136023Y-72770678D01*
X111196992Y-72931440D01*
X111204025Y-72941630D01*
X111545657Y-72599999D01*
X112111342Y-72599999D01*
X112170540Y-72659198D01*
X112170544Y-72659201D01*
X112378498Y-72867156D01*
X112586457Y-72659201D01*
X112586457Y-72659202D01*
X112586459Y-72659200D01*
X112586457Y-72659201D01*
X112645657Y-72599999D01*
X113211342Y-72599999D01*
X113270540Y-72659198D01*
X113270544Y-72659201D01*
X113478498Y-72867156D01*
X113686457Y-72659201D01*
X113686457Y-72659202D01*
X113686459Y-72659200D01*
X113686457Y-72659201D01*
X113745657Y-72599999D01*
X114311342Y-72599999D01*
X114652973Y-72941630D01*
X114660006Y-72931440D01*
X114720976Y-72770678D01*
X114741700Y-72600000D01*
X114720976Y-72429321D01*
X114660007Y-72268560D01*
X114652972Y-72258367D01*
X114311342Y-72599998D01*
X114311342Y-72599999D01*
X113745657Y-72599999D01*
X113535658Y-72390001D01*
X113535657Y-72390000D01*
X113478500Y-72332842D01*
X113421343Y-72390000D01*
X113421340Y-72390001D01*
X113211342Y-72599999D01*
X112645657Y-72599999D01*
X112435658Y-72390001D01*
X112435657Y-72390000D01*
X112378500Y-72332842D01*
X112321343Y-72390000D01*
X112321340Y-72390001D01*
X112111342Y-72599999D01*
X111545657Y-72599999D01*
X111545657Y-72599998D01*
X111204026Y-72258367D01*
X111204025Y-72258367D01*
X111196992Y-72268558D01*
X111136023Y-72429321D01*
X111115299Y-72600000D01*
X107322080Y-72600000D01*
X107275134Y-72455518D01*
X107275133Y-72455517D01*
X107275133Y-72455515D01*
X107187532Y-72303785D01*
X107187531Y-72303784D01*
X107187530Y-72303782D01*
X107070292Y-72173577D01*
X106928546Y-72070592D01*
X106768484Y-71999328D01*
X106669423Y-71978272D01*
X111489614Y-71978272D01*
X111828500Y-72317157D01*
X112043003Y-72102655D01*
X112043003Y-72102656D01*
X112095657Y-72050001D01*
X112095657Y-72050000D01*
X112661342Y-72050000D01*
X112713997Y-72102654D01*
X112713998Y-72102656D01*
X112928499Y-72317157D01*
X113143003Y-72102655D01*
X113143003Y-72102656D01*
X113195657Y-72050001D01*
X113195657Y-72050000D01*
X113761342Y-72050000D01*
X113813997Y-72102654D01*
X113813998Y-72102656D01*
X114028499Y-72317157D01*
X114367384Y-71978271D01*
X114281401Y-71933145D01*
X114246313Y-71924496D01*
X114192915Y-71896470D01*
X114158657Y-71846839D01*
X114110006Y-71718559D01*
X114102972Y-71708368D01*
X113761342Y-72050000D01*
X113195657Y-72050000D01*
X113195657Y-72049999D01*
X112928500Y-71782842D01*
X112928499Y-71782842D01*
X112661342Y-72050000D01*
X112095657Y-72050000D01*
X111754025Y-71708367D01*
X111746993Y-71718557D01*
X111698342Y-71846839D01*
X111664084Y-71896469D01*
X111610687Y-71924496D01*
X111575596Y-71933145D01*
X111489614Y-71978272D01*
X106669423Y-71978272D01*
X106597104Y-71962900D01*
X106421896Y-71962900D01*
X106250516Y-71999328D01*
X106250514Y-71999328D01*
X106250513Y-71999329D01*
X106098597Y-72066966D01*
X106049548Y-72077840D01*
X106000148Y-72068684D01*
X105958254Y-72040954D01*
X105631299Y-71713999D01*
X105618222Y-71697676D01*
X105566399Y-71649011D01*
X105563587Y-71646286D01*
X105543821Y-71626520D01*
X105540626Y-71624041D01*
X105531604Y-71616336D01*
X105527640Y-71612614D01*
X105499372Y-71586069D01*
X105499371Y-71586068D01*
X105481618Y-71576308D01*
X105465092Y-71565452D01*
X105449090Y-71553039D01*
X105408517Y-71535482D01*
X105397856Y-71530260D01*
X105354831Y-71506607D01*
X105321896Y-71480502D01*
X105321293Y-71479832D01*
X105250326Y-71428272D01*
X112039614Y-71428272D01*
X112378499Y-71767156D01*
X112717383Y-71428272D01*
X113139614Y-71428272D01*
X113478499Y-71767156D01*
X113817384Y-71428271D01*
X113731405Y-71383147D01*
X113564465Y-71342000D01*
X113392533Y-71342000D01*
X113225597Y-71383145D01*
X113139614Y-71428272D01*
X112717383Y-71428272D01*
X112717384Y-71428271D01*
X112631405Y-71383147D01*
X112464465Y-71342000D01*
X112292533Y-71342000D01*
X112125597Y-71383145D01*
X112039614Y-71428272D01*
X105250326Y-71428272D01*
X105179547Y-71376848D01*
X105179546Y-71376847D01*
X105099980Y-71341422D01*
X116906692Y-71341422D01*
X116925006Y-71515673D01*
X116979149Y-71682307D01*
X117066750Y-71834037D01*
X117066751Y-71834039D01*
X117066753Y-71834041D01*
X117183991Y-71964246D01*
X117325737Y-72067231D01*
X117485799Y-72138495D01*
X117652678Y-72173966D01*
X117686598Y-72186480D01*
X117715572Y-72208116D01*
X118088803Y-72581348D01*
X118113433Y-72616198D01*
X118125017Y-72657272D01*
X118137557Y-72776583D01*
X118191700Y-72943216D01*
X118279301Y-73094947D01*
X118279302Y-73094949D01*
X118279304Y-73094951D01*
X118396542Y-73225156D01*
X118538288Y-73328141D01*
X118698350Y-73399405D01*
X118869730Y-73435833D01*
X119044936Y-73435833D01*
X119044938Y-73435833D01*
X119216318Y-73399405D01*
X119376380Y-73328141D01*
X119518126Y-73225156D01*
X119635364Y-73094951D01*
X119707129Y-72970650D01*
X119722968Y-72943216D01*
X119750788Y-72857594D01*
X119777111Y-72776582D01*
X119795425Y-72602333D01*
X119777111Y-72428084D01*
X119722968Y-72261451D01*
X119722967Y-72261450D01*
X119722967Y-72261448D01*
X119635366Y-72109718D01*
X119635365Y-72109717D01*
X119635364Y-72109715D01*
X119518126Y-71979510D01*
X119495264Y-71962900D01*
X119432188Y-71917072D01*
X119376380Y-71876525D01*
X119216318Y-71805261D01*
X119216314Y-71805259D01*
X119110852Y-71782842D01*
X119076927Y-71770327D01*
X119047955Y-71748691D01*
X118607634Y-71308370D01*
X118583003Y-71273518D01*
X118571419Y-71232443D01*
X118564560Y-71167174D01*
X118541500Y-71096204D01*
X118510417Y-71000541D01*
X118486548Y-70959199D01*
X118422815Y-70848808D01*
X118422814Y-70848807D01*
X118422813Y-70848805D01*
X118305575Y-70718600D01*
X118269782Y-70692595D01*
X118163830Y-70615616D01*
X118163829Y-70615615D01*
X118003767Y-70544351D01*
X117832387Y-70507923D01*
X117657179Y-70507923D01*
X117542925Y-70532208D01*
X117485798Y-70544351D01*
X117325736Y-70615616D01*
X117183991Y-70718599D01*
X117066750Y-70848808D01*
X116979149Y-71000538D01*
X116925006Y-71167172D01*
X116906692Y-71341422D01*
X105099980Y-71341422D01*
X105019484Y-71305583D01*
X104848104Y-71269155D01*
X104672896Y-71269155D01*
X104558642Y-71293440D01*
X104501515Y-71305583D01*
X104341453Y-71376848D01*
X104199708Y-71479831D01*
X104082467Y-71610040D01*
X103994866Y-71761770D01*
X103940723Y-71928404D01*
X103922409Y-72102654D01*
X103940723Y-72276905D01*
X103990169Y-72429082D01*
X103995646Y-72481188D01*
X103979456Y-72531016D01*
X103934366Y-72609116D01*
X103880223Y-72775749D01*
X103861909Y-72949999D01*
X92240233Y-72949999D01*
X92168091Y-72869878D01*
X92026345Y-72766893D01*
X91866283Y-72695629D01*
X91694903Y-72659201D01*
X91519695Y-72659201D01*
X91405441Y-72683486D01*
X91348314Y-72695629D01*
X91188252Y-72766894D01*
X91046507Y-72869877D01*
X90929266Y-73000086D01*
X90841665Y-73151816D01*
X90787522Y-73318449D01*
X90780661Y-73383724D01*
X90769076Y-73424796D01*
X90744447Y-73459646D01*
X89944500Y-74259595D01*
X89903622Y-74286909D01*
X89855404Y-74296500D01*
X87811566Y-74296500D01*
X87750000Y-74280435D01*
X87704134Y-74236335D01*
X87584176Y-74040584D01*
X87429969Y-73860030D01*
X87307943Y-73755811D01*
X87275347Y-73712751D01*
X87263773Y-73660000D01*
X87275347Y-73607249D01*
X87307943Y-73564189D01*
X87429969Y-73459969D01*
X87584178Y-73279414D01*
X87708238Y-73076966D01*
X87708237Y-73076966D01*
X87708240Y-73076963D01*
X87799105Y-72857594D01*
X87854535Y-72626711D01*
X87873165Y-72390000D01*
X87854535Y-72153289D01*
X87799105Y-71922406D01*
X87708240Y-71703037D01*
X87703705Y-71695637D01*
X87584176Y-71500584D01*
X87429969Y-71320030D01*
X87307943Y-71215811D01*
X87275347Y-71172751D01*
X87263773Y-71120000D01*
X87263773Y-71119999D01*
X94411909Y-71119999D01*
X94430223Y-71294250D01*
X94484366Y-71460884D01*
X94571967Y-71612614D01*
X94571968Y-71612616D01*
X94571970Y-71612618D01*
X94689208Y-71742823D01*
X94830954Y-71845808D01*
X94991016Y-71917072D01*
X95162396Y-71953500D01*
X95337602Y-71953500D01*
X95337604Y-71953500D01*
X95508984Y-71917072D01*
X95669046Y-71845808D01*
X95762975Y-71777563D01*
X95798100Y-71759667D01*
X95837036Y-71753500D01*
X97202964Y-71753500D01*
X97241900Y-71759667D01*
X97277024Y-71777563D01*
X97370954Y-71845808D01*
X97531016Y-71917072D01*
X97702396Y-71953500D01*
X97877602Y-71953500D01*
X97877604Y-71953500D01*
X98048984Y-71917072D01*
X98209046Y-71845808D01*
X98350792Y-71742823D01*
X98468030Y-71612618D01*
X98532712Y-71500584D01*
X98555633Y-71460884D01*
X98555634Y-71460882D01*
X98609777Y-71294249D01*
X98628091Y-71120000D01*
X98609777Y-70945751D01*
X98555634Y-70779118D01*
X98555633Y-70779117D01*
X98555633Y-70779115D01*
X98468032Y-70627385D01*
X98468031Y-70627384D01*
X98468030Y-70627382D01*
X98350792Y-70497177D01*
X98336096Y-70486500D01*
X98209047Y-70394193D01*
X98209046Y-70394192D01*
X98048984Y-70322928D01*
X97877604Y-70286500D01*
X97702396Y-70286500D01*
X97588142Y-70310785D01*
X97531015Y-70322928D01*
X97370953Y-70394193D01*
X97277025Y-70462436D01*
X97241900Y-70480333D01*
X97202964Y-70486500D01*
X95837036Y-70486500D01*
X95798100Y-70480333D01*
X95762975Y-70462436D01*
X95669047Y-70394193D01*
X95669046Y-70394192D01*
X95508984Y-70322928D01*
X95337604Y-70286500D01*
X95162396Y-70286500D01*
X95048142Y-70310785D01*
X94991015Y-70322928D01*
X94830953Y-70394193D01*
X94689208Y-70497176D01*
X94571967Y-70627385D01*
X94484366Y-70779115D01*
X94430223Y-70945749D01*
X94411909Y-71119999D01*
X87263773Y-71119999D01*
X87275347Y-71067249D01*
X87307943Y-71024189D01*
X87399785Y-70945749D01*
X87429969Y-70919969D01*
X87584176Y-70739416D01*
X87708240Y-70536963D01*
X87799105Y-70317594D01*
X87854535Y-70086711D01*
X87873165Y-69850000D01*
X87854535Y-69613289D01*
X87799105Y-69382406D01*
X87708240Y-69163037D01*
X87652828Y-69072614D01*
X87584176Y-68960584D01*
X87429969Y-68780030D01*
X87307558Y-68675482D01*
X87274962Y-68632422D01*
X87263388Y-68579671D01*
X87274962Y-68526920D01*
X87307558Y-68483859D01*
X87332744Y-68462348D01*
X86360001Y-67489605D01*
X86359999Y-67489605D01*
X85387254Y-68462348D01*
X85412441Y-68483859D01*
X85445037Y-68526919D01*
X85456611Y-68579671D01*
X85445037Y-68632422D01*
X85412442Y-68675482D01*
X85290028Y-68780033D01*
X85135823Y-68960584D01*
X85011761Y-69163033D01*
X84920895Y-69382405D01*
X84865464Y-69613288D01*
X84846835Y-69850000D01*
X84865464Y-70086711D01*
X84920895Y-70317594D01*
X85011761Y-70536966D01*
X85135823Y-70739415D01*
X85271812Y-70898638D01*
X85290031Y-70919969D01*
X85335966Y-70959201D01*
X85412057Y-71024189D01*
X85444652Y-71067249D01*
X85456226Y-71120000D01*
X85444652Y-71172751D01*
X85412057Y-71215811D01*
X85290028Y-71320033D01*
X85135823Y-71500584D01*
X85011761Y-71703033D01*
X84920895Y-71922405D01*
X84865464Y-72153288D01*
X84846835Y-72389999D01*
X84865464Y-72626711D01*
X84920895Y-72857594D01*
X85011761Y-73076966D01*
X85135822Y-73279414D01*
X85275211Y-73442618D01*
X85290031Y-73459969D01*
X85335965Y-73499200D01*
X85412057Y-73564189D01*
X85444652Y-73607249D01*
X85456226Y-73660000D01*
X85444652Y-73712751D01*
X85412057Y-73755811D01*
X85290028Y-73860033D01*
X85135823Y-74040584D01*
X85011761Y-74243033D01*
X84920895Y-74462405D01*
X84865464Y-74693288D01*
X84846835Y-74929999D01*
X84865464Y-75166711D01*
X84920895Y-75397594D01*
X85011761Y-75616966D01*
X85135823Y-75819415D01*
X85290027Y-75999965D01*
X85290031Y-75999969D01*
X85412057Y-76104189D01*
X85444652Y-76147249D01*
X85456226Y-76200000D01*
X85444652Y-76252751D01*
X85412057Y-76295811D01*
X85290028Y-76400033D01*
X85135823Y-76580584D01*
X85011761Y-76783033D01*
X84920895Y-77002405D01*
X84865464Y-77233288D01*
X84846835Y-77469999D01*
X83185000Y-77469999D01*
X83185000Y-67310000D01*
X84847337Y-67310000D01*
X84865960Y-67546633D01*
X84921372Y-67777440D01*
X85012208Y-67996738D01*
X85136227Y-68199116D01*
X85207650Y-68282744D01*
X86180395Y-67310001D01*
X86539605Y-67310001D01*
X87512348Y-68282744D01*
X87512349Y-68282743D01*
X87583770Y-68199120D01*
X87621839Y-68136998D01*
X129353618Y-68136998D01*
X129373089Y-68334700D01*
X129430757Y-68524801D01*
X129511297Y-68675482D01*
X129524404Y-68700002D01*
X129618847Y-68815081D01*
X129618851Y-68815085D01*
X131401912Y-70598147D01*
X131401917Y-70598151D01*
X131401918Y-70598152D01*
X131516996Y-70692595D01*
X131692196Y-70786241D01*
X131787247Y-70815074D01*
X131882298Y-70843908D01*
X132079999Y-70863380D01*
X132079999Y-70863379D01*
X132080000Y-70863380D01*
X132277701Y-70843908D01*
X132467803Y-70786241D01*
X132643003Y-70692595D01*
X132796568Y-70566568D01*
X132922595Y-70413003D01*
X133016241Y-70237803D01*
X133073908Y-70047701D01*
X133093380Y-69850000D01*
X133073908Y-69652299D01*
X133062074Y-69613289D01*
X133016241Y-69462197D01*
X133016241Y-69462196D01*
X132922595Y-69286996D01*
X132828152Y-69171918D01*
X132828151Y-69171917D01*
X132828147Y-69171912D01*
X131045085Y-67388851D01*
X131045084Y-67388850D01*
X131045081Y-67388847D01*
X130930002Y-67294404D01*
X130930001Y-67294403D01*
X130754801Y-67200757D01*
X130564700Y-67143089D01*
X130366999Y-67123618D01*
X130169297Y-67143089D01*
X129979196Y-67200756D01*
X129803997Y-67294403D01*
X129650430Y-67420430D01*
X129524403Y-67573997D01*
X129430756Y-67749196D01*
X129373089Y-67939297D01*
X129353618Y-68136998D01*
X87621839Y-68136998D01*
X87707791Y-67996738D01*
X87798627Y-67777440D01*
X87854039Y-67546633D01*
X87872662Y-67310000D01*
X87854039Y-67073366D01*
X87798627Y-66842559D01*
X87707791Y-66623261D01*
X87583772Y-66420883D01*
X87512348Y-66337254D01*
X86539605Y-67309999D01*
X86539605Y-67310001D01*
X86180395Y-67310001D01*
X86180395Y-67309999D01*
X85207650Y-66337254D01*
X85207649Y-66337255D01*
X85136228Y-66420880D01*
X85012208Y-66623261D01*
X84921372Y-66842559D01*
X84865960Y-67073366D01*
X84847337Y-67310000D01*
X83185000Y-67310000D01*
X83185000Y-66157650D01*
X85387254Y-66157650D01*
X86359999Y-67130395D01*
X86360001Y-67130395D01*
X87332744Y-66157650D01*
X87249116Y-66086227D01*
X87046738Y-65962208D01*
X86827440Y-65871372D01*
X86596633Y-65815960D01*
X86360000Y-65797337D01*
X86123366Y-65815960D01*
X85892559Y-65871372D01*
X85673261Y-65962208D01*
X85470880Y-66086228D01*
X85387255Y-66157649D01*
X85387254Y-66157650D01*
X83185000Y-66157650D01*
X83185000Y-62297766D01*
X87680787Y-62297766D01*
X87710413Y-62567015D01*
X87710414Y-62567018D01*
X87778928Y-62829088D01*
X87884870Y-63078390D01*
X88025982Y-63309610D01*
X88199255Y-63517820D01*
X88199256Y-63517821D01*
X88199258Y-63517823D01*
X88400993Y-63698578D01*
X88400995Y-63698579D01*
X88400998Y-63698582D01*
X88626910Y-63848044D01*
X88759104Y-63910014D01*
X88872171Y-63963018D01*
X88872173Y-63963018D01*
X88872176Y-63963020D01*
X89131569Y-64041060D01*
X89131572Y-64041060D01*
X89131574Y-64041061D01*
X89399558Y-64080500D01*
X89399561Y-64080500D01*
X89602630Y-64080500D01*
X89602631Y-64080500D01*
X89805156Y-64065677D01*
X90069553Y-64006780D01*
X90322558Y-63910014D01*
X90558777Y-63777441D01*
X90773177Y-63611888D01*
X90961186Y-63416881D01*
X91118799Y-63196579D01*
X91242656Y-62955675D01*
X91330118Y-62699305D01*
X91379319Y-62432933D01*
X91389212Y-62162235D01*
X91359586Y-61892982D01*
X91291072Y-61630912D01*
X91185130Y-61381610D01*
X91044018Y-61150390D01*
X90870745Y-60942180D01*
X90870741Y-60942176D01*
X90669006Y-60761421D01*
X90669003Y-60761419D01*
X90669002Y-60761418D01*
X90443090Y-60611956D01*
X90443086Y-60611954D01*
X90197828Y-60496981D01*
X89938425Y-60418938D01*
X89670442Y-60379500D01*
X89670439Y-60379500D01*
X89467369Y-60379500D01*
X89433614Y-60381970D01*
X89264839Y-60394323D01*
X89000449Y-60453219D01*
X88747441Y-60549985D01*
X88511225Y-60682557D01*
X88296820Y-60848114D01*
X88108815Y-61043117D01*
X87951200Y-61263422D01*
X87827342Y-61504328D01*
X87739882Y-61760693D01*
X87690681Y-62027065D01*
X87680787Y-62297766D01*
X83185000Y-62297766D01*
X83185000Y-60628006D01*
X83189046Y-60596334D01*
X83193355Y-60579742D01*
X83209037Y-60543722D01*
X83288649Y-60418757D01*
X83290837Y-60415445D01*
X83330174Y-60358021D01*
X83333553Y-60353326D01*
X83333558Y-60353320D01*
X83575462Y-60032986D01*
X83582864Y-60024071D01*
X83851354Y-59729552D01*
X83859552Y-59721354D01*
X84154071Y-59452864D01*
X84162986Y-59445462D01*
X84483332Y-59203547D01*
X84488021Y-59200174D01*
X84545445Y-59160837D01*
X84548757Y-59158649D01*
X84673722Y-59079037D01*
X84709741Y-59063355D01*
X84726333Y-59059046D01*
X84758006Y-59055000D01*
X92557862Y-59055000D01*
X92587809Y-59058611D01*
G37*
%TD.AperFunction*%
M02*
