M48
; DRILL file {KiCad 7.0.1} date Sun Apr 16 19:55:21 2023
; FORMAT={-:-/ absolute / metric / decimal}
; #@! TF.CreationDate,2023-04-16T19:55:21+01:00
; #@! TF.GenerationSoftware,Kicad,Pcbnew,7.0.1
; #@! TF.FileFunction,Plated,1,2,PTH
FMAT,2
METRIC
; #@! TA.AperFunction,Plated,PTH,ComponentDrill
T1C0.300
; #@! TA.AperFunction,Plated,PTH,ViaDrill
T2C0.500
; #@! TA.AperFunction,Plated,PTH,ComponentDrill
T3C0.700
; #@! TA.AperFunction,Plated,PTH,ComponentDrill
T4C0.950
; #@! TA.AperFunction,Plated,PTH,ComponentDrill
T5C1.000
; #@! TA.AperFunction,Plated,PTH,ComponentDrill
T6C1.100
; #@! TA.AperFunction,Plated,PTH,ComponentDrill
T7C1.320
; #@! TA.AperFunction,Plated,PTH,ComponentDrill
T8C2.300
%
G90
G05
T1
X111.828Y-72.6
X111.828Y-73.7
X112.378Y-72.05
X112.378Y-73.15
X112.378Y-74.25
X112.928Y-72.6
X112.928Y-73.7
X113.478Y-72.05
X113.478Y-73.15
X113.478Y-74.25
X114.028Y-72.6
X114.028Y-73.7
T2
X88.9Y-81.28
X91.15Y-86.189
X91.44Y-71.12
X91.607Y-73.493
X93.345Y-77.639
X93.345Y-82.55
X93.345Y-88.265
X93.98Y-73.279
X94.615Y-85.075
X94.615Y-85.925
X95.222Y-78.132
X95.25Y-71.12
X96.901Y-68.326
X97.155Y-93.98
X97.79Y-71.12
X97.79Y-78.105
X97.79Y-85.09
X97.79Y-85.94
X98.552Y-97.028
X98.552Y-98.044
X98.552Y-99.06
X98.552Y-100.076
X99.568Y-70.104
X99.568Y-99.06
X100.33Y-72.39
X100.33Y-88.265
X101.092Y-99.06
X102.108Y-99.06
X102.87Y-90.17
X102.87Y-95.25
X103.124Y-80.264
X103.124Y-97.028
X103.124Y-98.044
X103.124Y-99.06
X103.124Y-100.076
X103.734Y-104.14
X104.7Y-72.95
X104.76Y-72.103
X105.41Y-103.835
X106.044Y-80.363
X106.236Y-79.536
X106.509Y-72.796
X106.509Y-73.646
X106.685Y-80.921
X107.315Y-67.945
X107.655Y-77.845
X107.95Y-89.535
X108.331Y-78.359
X108.458Y-76.835
X108.458Y-82.042
X109.012Y-79.202
X111.125Y-81.915
X111.125Y-86.36
X111.731Y-78.319
X111.745Y-76.62
X111.745Y-77.47
X112.395Y-81.661
X113.044Y-76.62
X113.044Y-77.47
X113.044Y-78.32
X113.665Y-99.695
X113.665Y-100.965
X113.665Y-102.235
X113.665Y-103.505
X114.3Y-68.58
X114.3Y-81.661
X114.716Y-86.579
X114.808Y-78.41
X114.935Y-99.695
X114.935Y-103.505
X115.316Y-87.18
X115.443Y-80.899
X115.634Y-85.661
X115.951Y-87.864
X116.205Y-99.695
X116.205Y-103.505
X116.348Y-86.374
X116.924Y-79.39
X116.983Y-87.01
X117.475Y-103.505
X117.524Y-78.789
X117.745Y-71.341
X118.071Y-76.323
X118.112Y-80.675
X118.28Y-75.5
X118.761Y-80.026
X118.872Y-84.074
X118.957Y-72.602
X122.009Y-95.339
X122.583Y-85.88
X122.682Y-86.875
X122.682Y-76.708
X122.936Y-80.518
X123.19Y-75.184
X123.19Y-85.231
X123.19Y-106.045
X123.525Y-86.98
X123.825Y-98.425
X124.245Y-75.985
X124.245Y-76.835
X124.245Y-77.685
X124.245Y-87.43
X125.984Y-68.58
X126.365Y-90.17
X126.365Y-97.4
X126.365Y-98.425
X127.0Y-92.075
X127.506Y-88.394
X127.537Y-87.476
X127.59Y-86.176
X127.635Y-99.695
X127.635Y-100.965
X127.635Y-102.235
X127.635Y-103.505
X128.269Y-85.43
X128.29Y-75.985
X128.29Y-76.835
X128.29Y-78.136
X128.905Y-99.695
X128.905Y-103.505
X128.919Y-84.836
X129.54Y-81.915
X129.54Y-87.63
X130.175Y-99.695
X130.175Y-103.505
X130.367Y-68.137
X130.581Y-84.277
X130.693Y-85.721
X130.81Y-98.425
X131.127Y-65.722
X131.445Y-103.505
X131.592Y-83.3
X131.826Y-81.534
X132.08Y-69.85
X132.715Y-67.31
X133.032Y-108.585
X133.096Y-113.687
X133.35Y-80.01
X133.35Y-98.425
X133.35Y-120.015
X133.985Y-68.58
X135.128Y-70.866
X135.128Y-97.028
X135.255Y-116.84
X135.687Y-94.251
X135.89Y-66.675
X136.525Y-74.93
X136.525Y-93.98
X136.652Y-116.586
X137.16Y-68.107
X137.16Y-72.39
X137.749Y-96.299
X138.599Y-96.299
X138.748Y-60.008
X138.781Y-97.4
X138.85Y-99.45
X139.7Y-97.4
X139.7Y-99.45
X140.335Y-90.805
X140.97Y-71.755
X140.97Y-87.63
X142.558Y-88.582
X142.875Y-67.564
X142.875Y-86.36
X143.51Y-93.98
X144.145Y-80.025
X144.145Y-98.425
X144.463Y-90.487
X144.78Y-87.63
X144.78Y-120.142
X145.415Y-106.68
X145.415Y-107.95
X145.415Y-109.22
X145.415Y-110.49
X146.685Y-110.49
X147.167Y-86.36
X147.32Y-78.105
X147.955Y-81.28
X147.955Y-88.9
X147.955Y-110.49
X148.844Y-87.63
X149.86Y-105.41
X151.231Y-101.245
X152.68Y-99.796
X154.686Y-100.076
X160.02Y-106.68
X160.02Y-107.95
X160.02Y-109.22
X160.02Y-110.49
X161.29Y-110.49
X162.56Y-110.49
X163.195Y-105.41
T4
X99.822Y-110.49
X102.322Y-110.49
X104.322Y-110.49
X106.822Y-110.49
T5
X86.36Y-67.31
X86.36Y-69.85
X86.36Y-72.39
X86.36Y-74.93
X86.36Y-77.47
X86.36Y-80.01
X118.125Y-90.17
X120.665Y-90.17
X123.205Y-90.17
X128.016Y-115.138
X130.556Y-115.138
X133.096Y-115.138
X135.636Y-115.138
X138.176Y-115.138
X150.495Y-59.69
X150.495Y-62.23
X150.495Y-64.77
X150.495Y-67.31
X150.495Y-69.85
X150.495Y-72.39
X150.495Y-74.93
X150.495Y-77.47
X150.495Y-80.01
X150.495Y-82.55
X150.495Y-85.09
X150.495Y-87.63
X150.495Y-90.17
X150.495Y-92.71
X150.495Y-95.25
X150.495Y-97.79
X153.035Y-59.69
X153.035Y-62.23
X153.035Y-64.77
X153.035Y-67.31
X153.035Y-69.85
X153.035Y-72.39
X153.035Y-74.93
X153.035Y-77.47
X153.035Y-80.01
X153.035Y-82.55
X153.035Y-85.09
X153.035Y-87.63
X153.035Y-90.17
X153.035Y-92.71
X153.035Y-95.25
X153.035Y-97.79
X155.575Y-59.69
X155.575Y-62.23
X155.575Y-64.77
X155.575Y-67.31
X155.575Y-69.85
X155.575Y-72.39
X155.575Y-74.93
X155.575Y-77.47
X155.575Y-80.01
X155.575Y-82.55
X155.575Y-85.09
X155.575Y-87.63
X155.575Y-90.17
X155.575Y-92.71
X155.575Y-95.25
X155.575Y-97.79
X158.115Y-59.69
X158.115Y-62.23
X158.115Y-64.77
X158.115Y-67.31
X158.115Y-69.85
X158.115Y-72.39
X158.115Y-74.93
X158.115Y-77.47
X158.115Y-80.01
X158.115Y-82.55
X158.115Y-85.09
X158.115Y-87.63
X158.115Y-90.17
X158.115Y-92.71
X158.115Y-95.25
X158.115Y-97.79
X160.655Y-59.69
X160.655Y-62.23
X160.655Y-64.77
X160.655Y-67.31
X160.655Y-69.85
X160.655Y-72.39
X160.655Y-74.93
X160.655Y-77.47
X160.655Y-80.01
X160.655Y-82.55
X160.655Y-85.09
X160.655Y-87.63
X160.655Y-90.17
X160.655Y-92.71
X160.655Y-95.25
X160.655Y-97.79
X163.195Y-59.69
X163.195Y-62.23
X163.195Y-64.77
X163.195Y-67.31
X163.195Y-69.85
X163.195Y-72.39
X163.195Y-74.93
X163.195Y-77.47
X163.195Y-80.01
X163.195Y-82.55
X163.195Y-85.09
X163.195Y-87.63
X163.195Y-90.17
X163.195Y-92.71
X163.195Y-95.25
X163.195Y-97.79
X165.735Y-59.69
X165.735Y-62.23
X165.735Y-64.77
X165.735Y-67.31
X165.735Y-69.85
X165.735Y-72.39
X165.735Y-74.93
X165.735Y-77.47
X165.735Y-80.01
X165.735Y-82.55
X165.735Y-85.09
X165.735Y-87.63
X165.735Y-90.17
X165.735Y-92.71
X165.735Y-95.25
X165.735Y-97.79
X168.275Y-67.31
X168.275Y-69.85
X168.275Y-72.39
X168.275Y-74.93
X168.275Y-77.47
X168.275Y-80.01
X168.275Y-82.55
X168.275Y-85.09
X168.275Y-87.63
X168.275Y-90.17
X168.275Y-92.71
X168.275Y-95.25
X168.275Y-97.79
X170.815Y-67.31
X170.815Y-69.85
X170.815Y-72.39
X170.815Y-74.93
X170.815Y-77.47
X170.815Y-80.01
X170.815Y-82.55
X170.815Y-85.09
X170.815Y-87.63
X170.815Y-90.17
X170.815Y-92.71
X170.815Y-95.25
X170.815Y-97.79
X173.355Y-67.31
X173.355Y-69.85
X173.355Y-72.39
X173.355Y-74.93
X173.355Y-77.47
X173.355Y-80.01
X173.355Y-82.55
X173.355Y-85.09
X173.355Y-87.63
X173.355Y-90.17
X173.355Y-92.71
X173.355Y-95.25
X173.355Y-97.79
T6
X86.65Y-83.745
X86.65Y-90.245
X86.65Y-93.905
X86.65Y-100.405
X91.15Y-83.745
X91.15Y-90.245
X91.15Y-93.905
X91.15Y-100.405
T7
X116.27Y-117.36
X121.27Y-117.36
X144.79Y-117.37
X149.79Y-117.37
X158.85Y-117.37
X163.85Y-117.37
T8
X96.752Y-113.2
X109.892Y-113.2
T3
X130.52Y-121.22G85X130.52Y-120.52
G05
X136.18Y-121.22G85X136.18Y-120.52
G05
T0
M30
