%TF.GenerationSoftware,KiCad,Pcbnew,7.0.1*%
%TF.CreationDate,2023-04-16T19:54:37+01:00*%
%TF.ProjectId,lightweatherV3,6c696768-7477-4656-9174-68657256332e,rev?*%
%TF.SameCoordinates,Original*%
%TF.FileFunction,Profile,NP*%
%FSLAX46Y46*%
G04 Gerber Fmt 4.6, Leading zero omitted, Abs format (unit mm)*
G04 Created by KiCad (PCBNEW 7.0.1) date 2023-04-16 19:54:37*
%MOMM*%
%LPD*%
G01*
G04 APERTURE LIST*
%TA.AperFunction,Profile*%
%ADD10C,0.100000*%
%TD*%
G04 APERTURE END LIST*
D10*
X127308154Y-63808154D02*
X130431930Y-59907898D01*
X170815000Y-58420000D02*
X142875000Y-58420000D01*
X141605000Y-62230000D02*
X141605000Y-59690000D01*
X96211846Y-63808154D02*
G75*
G03*
X101600000Y-66040000I5388154J5388154D01*
G01*
X82550000Y-117429872D02*
X82550000Y-110490000D01*
X102235000Y-66040000D02*
X101600000Y-66040000D01*
X135255000Y-62230000D02*
G75*
G03*
X136525000Y-62230000I635000J0D01*
G01*
X137160000Y-58420000D02*
G75*
G03*
X136525000Y-59055000I0J-635000D01*
G01*
X140335000Y-59055000D02*
X140335000Y-62230000D01*
X86995000Y-58420000D02*
G75*
G03*
X82550000Y-62865000I0J-4445000D01*
G01*
X169313885Y-123824973D02*
G75*
G03*
X175259999Y-118110000I15J5950773D01*
G01*
X140335000Y-62230000D02*
G75*
G03*
X141605000Y-62230000I635000J0D01*
G01*
X96211846Y-63808154D02*
X93762102Y-59907898D01*
X102235000Y-66040000D02*
X121920000Y-66040000D01*
X135255599Y-59690000D02*
G75*
G03*
X134024032Y-58420001I-1270599J0D01*
G01*
X86995000Y-58420000D02*
X90170000Y-58420000D01*
X134024032Y-58420024D02*
G75*
G03*
X130431931Y-59907899I-32J-5079976D01*
G01*
X82550160Y-117429873D02*
G75*
G03*
X88900000Y-123825000I6349840J-45127D01*
G01*
X121920000Y-66040000D02*
G75*
G03*
X127308154Y-63808154I0J7620000D01*
G01*
X137160000Y-58420000D02*
X139700000Y-58420000D01*
X93762102Y-59907898D02*
G75*
G03*
X90170000Y-58420000I-3592102J-3592102D01*
G01*
X136525000Y-59055000D02*
X136525000Y-62230000D01*
X91440000Y-123825000D02*
X169313885Y-123825000D01*
X175260000Y-62865000D02*
G75*
G03*
X170815000Y-58420000I-4445000J0D01*
G01*
X82550000Y-62865000D02*
X82550000Y-110490000D01*
X142875000Y-58420000D02*
G75*
G03*
X141605000Y-59690000I0J-1270000D01*
G01*
X135255000Y-62230000D02*
X135255599Y-59690000D01*
X140335000Y-59055000D02*
G75*
G03*
X139700000Y-58420000I-635000J0D01*
G01*
X175260000Y-118110000D02*
X175260000Y-62865000D01*
X91440000Y-123825000D02*
X88900000Y-123825000D01*
M02*
